<?xml version="1.0" encoding="utf-8"?>
<!-- Generator: Adobe Illustrator 24.1.1, SVG Export Plug-In . SVG Version: 6.00 Build 0)  -->
<svg version="1.1" xmlns="http://www.w3.org/2000/svg" xmlns:xlink="http://www.w3.org/1999/xlink" x="0px" y="0px"
	 viewBox="0 0 1100 1100" style="enable-background:new 0 0 1100 1100;" xml:space="preserve">
<style type="text/css">
	.st0{fill:#05A535;}
	.st1{fill:#FFFFFF;}
</style>
<g id="Capa_1">
	<rect class="st0" width="1100" height="1100"/>
</g>
<g id="Capa_2">
	<g>
		<g>
			<g>
				<path class="st1" d="M795.3,784.7H304.7c-5.9,0-10.7,4.8-10.7,10.7c0,5.9,4.8,10.7,10.7,10.7h490.7c5.9,0,10.7-4.8,10.7-10.7
					C806,789.4,801.2,784.7,795.3,784.7z"/>
			</g>
		</g>
		<g>
			<g>
				<path class="st1" d="M390,656.7h-64c-5.9,0-10.7,4.8-10.7,10.7v128c0,5.9,4.8,10.7,10.7,10.7h64c5.9,0,10.7-4.8,10.7-10.7v-128
					C400.7,661.4,395.9,656.7,390,656.7z M379.3,784.7h-42.7V678h42.7L379.3,784.7L379.3,784.7z"/>
			</g>
		</g>
		<g>
			<g>
				<path class="st1" d="M518,550h-64c-5.9,0-10.7,4.8-10.7,10.7v234.7c0,5.9,4.8,10.7,10.7,10.7h64c5.9,0,10.7-4.8,10.7-10.7V560.7
					C528.7,554.8,523.9,550,518,550z M507.3,784.7h-42.7V571.3h42.7L507.3,784.7L507.3,784.7z"/>
			</g>
		</g>
		<g>
			<g>
				<path class="st1" d="M646,592.7h-64c-5.9,0-10.7,4.8-10.7,10.7v192c0,5.9,4.8,10.7,10.7,10.7h64c5.9,0,10.7-4.8,10.7-10.7v-192
					C656.7,597.4,651.9,592.7,646,592.7z M635.3,784.7h-42.7V614h42.7V784.7z"/>
			</g>
		</g>
		<g>
			<g>
				<path class="st1" d="M774,464.7h-64c-5.9,0-10.7,4.8-10.7,10.7v320c0,5.9,4.8,10.7,10.7,10.7h64c5.9,0,10.7-4.8,10.7-10.7v-320
					C784.7,469.4,779.9,464.7,774,464.7z M763.3,784.7h-42.7V486h42.7V784.7z"/>
			</g>
		</g>
		<g>
			<g>
				<path class="st1" d="M358,486c-23.5,0-42.7,19.1-42.7,42.7s19.1,42.7,42.7,42.7s42.7-19.1,42.7-42.7S381.5,486,358,486z
					 M358,550c-11.8,0-21.3-9.6-21.3-21.3c0-11.8,9.6-21.3,21.3-21.3s21.3,9.6,21.3,21.3C379.3,540.4,369.8,550,358,550z"/>
			</g>
		</g>
		<g>
			<g>
				<path class="st1" d="M486,379.3c-23.5,0-42.7,19.1-42.7,42.7s19.1,42.7,42.7,42.7s42.7-19.1,42.7-42.7
					C528.7,398.5,509.5,379.3,486,379.3z M486,443.3c-11.8,0-21.3-9.6-21.3-21.3c0-11.8,9.6-21.3,21.3-21.3s21.3,9.6,21.3,21.3
					C507.3,433.8,497.8,443.3,486,443.3z"/>
			</g>
		</g>
		<g>
			<g>
				<path class="st1" d="M614,422c-23.5,0-42.7,19.1-42.7,42.7c0,23.5,19.1,42.7,42.7,42.7s42.7-19.1,42.7-42.7S637.5,422,614,422z
					 M614,486c-11.8,0-21.3-9.6-21.3-21.3c0-11.8,9.6-21.3,21.3-21.3s21.3,9.6,21.3,21.3S625.8,486,614,486z"/>
			</g>
		</g>
		<g>
			<g>
				<path class="st1" d="M742,294c-23.5,0-42.7,19.1-42.7,42.7s19.1,42.7,42.7,42.7s42.7-19.1,42.7-42.7S765.5,294,742,294z
					 M742,358c-11.8,0-21.3-9.6-21.3-21.3c0-11.8,9.6-21.3,21.3-21.3s21.3,9.6,21.3,21.3S753.8,358,742,358z"/>
			</g>
		</g>
		<g>
			<g>
				<path class="st1" d="M726.9,351.7c-4.2-4.2-10.9-4.2-15.1,0l-82.8,82.8c-4.2,4.2-4.2,10.9,0,15.1c2.1,2.1,4.8,3.1,7.6,3.1
					c2.7,0,5.4-1,7.5-3.1l82.8-82.8C731.1,362.7,731.1,355.9,726.9,351.7z"/>
			</g>
		</g>
		<g>
			<g>
				<path class="st1" d="M588.2,440l-68.5-19.5c-5.7-1.7-11.6,1.7-13.2,7.3c-1.6,5.7,1.7,11.6,7.3,13.2l68.5,19.5
					c1,0.3,2,0.4,2.9,0.4c4.7,0,8.9-3.1,10.3-7.7C597.2,447.6,593.9,441.7,588.2,440z"/>
			</g>
		</g>
		<g>
			<g>
				<path class="st1" d="M469.4,435.3c-3.7-4.6-10.4-5.4-15-1.7L374,497.7c-4.6,3.7-5.4,10.4-1.7,15c2.1,2.6,5.2,4,8.3,4
					c2.3,0,4.7-0.8,6.6-2.3l80.4-64.1C472.3,446.6,473.1,439.9,469.4,435.3z"/>
			</g>
		</g>
	</g>
</g>
</svg>
