<?xml version="1.0" encoding="utf-8"?>
<!-- Generator: Adobe Illustrator 24.1.1, SVG Export Plug-In . SVG Version: 6.00 Build 0)  -->
<svg version="1.1" xmlns="http://www.w3.org/2000/svg" xmlns:xlink="http://www.w3.org/1999/xlink" x="0px" y="0px"
	 viewBox="0 0 1100 1100" style="enable-background:new 0 0 1100 1100;" xml:space="preserve">
<style type="text/css">
	.st0{fill:#FFFFFF;}
	.st1{fill:#047C87;}
</style>
<g id="Capa_1">
	<g id="Capa_2_1_">
		<rect x="126.5" y="120" class="st0" width="903" height="887"/>
	</g>
	<g id="Capa_1_1_">
		<g>
			<rect class="st1" width="1100" height="1100"/>
		</g>
	</g>
</g>
<g id="Capa_2">
	<g>
		<path class="st0" d="M806,508.7h-18.6l-27.7,14.6c-3.1-1.7-6.4-3.2-9.8-4l-34.8-8.7v-4c15.4-10.7,24.8-28.5,24.8-47.4v-14.4
			c0-32.1-25.1-58.9-56-59.9c-1.6,0-3.1,0-4.7,0.1l9-21.1l-43.7-43.7l-25.8,16.8c-9.8-5.5-20.2-9.8-30.9-12.8l-6.4-30.1h-62.9
			l-6.4,30.1c-10.8,3-21.1,7.3-30.9,12.8l-25.8-16.8l-43.7,43.7l8.9,21.1c-0.3,0-0.7-0.1-1-0.1c-15.8-0.5-30.7,5.3-42,16.3
			c-11.3,11-17.6,25.7-17.6,41.5v16.5c0,18.9,9.4,36.6,24.8,47.4v4l-22.7,5.7l-41.1-24h-27v171.1l81.2,27.1h15.8l2-6.9l24.9,14.9
			c0.4,13.5,11.3,24.4,24.8,24.9c0.5,13.5,11.3,24.3,24.8,24.8c0.5,13.5,11.3,24.3,24.8,24.8c0.5,13.8,11.8,24.9,25.7,24.9
			c5.2,0,10.2-1.6,14.5-4.5l7.3,6.5c4.6,4,10.5,6.3,16.6,6.3h1.5c13.7,0,24.9-11.1,25.1-24.8c13.6-0.2,24.6-11.2,24.8-24.8
			c13.6-0.2,24.6-11.2,24.8-24.8c13.7-0.3,24.8-11.5,24.8-25.3c0-0.8,0-1.6-0.1-2.5L806,629.4V508.7z M723.4,444.7v14.4
			c0,14.7-7.9,28.4-20.7,35.7l-4.1,2.4l0,26.1l41.3,10.3l-90.8,47.8v-22.2c0-11.1-4.5-21.3-11.8-28.8l28.3-7.1v-26.2l-4.1-2.4
			c-12.7-7.4-20.7-21.1-20.7-35.7v-16.5c0-11.3,4.5-21.8,12.5-29.6c8.1-7.8,18.8-12.1,30-11.6C705.5,402,723.4,421.5,723.4,444.7z
			 M562.5,575l-37.4-11.9c-17-5.5-35.5-6.3-52.9-2.4l-4.7,1v-2.4c0-11.4,7.7-21.3,18.8-24l47.3-11.8v-26.2l-4.1-2.4
			c-12.7-7.4-20.7-21.1-20.7-35.7v-16.5c0-11.3,4.5-21.8,12.5-29.6c8.1-7.8,18.9-12.1,30-11.6c22.1,0.7,40,20.1,40,43.3v14.4
			c0,14.7-7.9,28.4-20.7,35.7l-4.1,2.4l0,26.1l47.3,11.8c11,2.8,18.8,12.7,18.8,24v30.9l-2,1.1h-5.1l-50.8-14.5
			C570.7,575.6,566.6,575.2,562.5,575z M469.3,417.6c15.5-30,46.7-49.3,80.7-49.3c33.7,0,64.8,19,80.4,48.6
			c-3.9,7.9-6.1,16.6-6.1,25.7v16.5c0,18.9,9.4,36.6,24.8,47.4v4l-33,8.3l-33-8.3v-4c15.4-10.7,24.8-28.5,24.8-47.4v-14.4
			c0-32.1-25.1-58.9-56-59.9c-15.8-0.5-30.7,5.3-42,16.3c-11.3,11-17.6,25.7-17.6,41.5v16.5c0,18.9,9.4,36.6,24.8,47.4v4l-33,8.3
			l-33-8.3v-4c15.4-10.7,24.8-28.5,24.8-47.4v-14.4C475.7,435,473.3,425.8,469.3,417.6z M431.3,367.7l26.4-26.4l23.2,15.1l4.4-2.7
			c11.1-6.8,23.2-11.8,35.8-14.8l5.1-1.2l5.7-27.1h36.2l5.7,27.1l5.1,1.2c12.6,3,24.6,8,35.8,14.8l4.4,2.7l23.2-15.1l26.4,26.4
			l-9.4,21.9c-6.4,2.7-12.3,6.6-17.4,11.6c-0.3,0.3-0.6,0.7-1,1c-19.5-30.9-53.9-50.4-90.9-50.4c-37.3,0-71.8,19.6-91.2,50.9
			c-5.2-5.4-11.4-9.8-18.2-12.9L431.3,367.7z M401.4,523.4v-26.2l-4.1-2.4c-12.7-7.4-20.7-21.1-20.7-35.7v-16.5
			c0-11.3,4.5-21.8,12.5-29.6c8.1-7.8,18.8-12.1,30-11.6c22.1,0.7,40,20.1,40,43.3v14.4c0,14.7-7.9,28.4-20.7,35.7l-4.1,2.4l0,26.1
			l28.3,7.1c-7.3,7.5-11.8,17.7-11.8,28.8v6.1l-25.8,5.7l0.7-2.3l0.3-15.3l-43.6-25.4L401.4,523.4z M310.5,508.7h6l59.4,34.6
			l-30,119.9l-35.4-11.8V508.7z M377.9,673.9l-16.3-5.4L390.8,552l18.8,11v2.4l-31,108.5H377.9z M434.4,697.6c0-2.4,1-4.8,2.7-6.5
			l14.5-14.5c1.7-1.7,4.1-2.7,6.5-2.7c5.1,0,9.3,4.2,9.3,9.3c0,2.4-1,4.8-2.7,6.5l-14.5,14.5c-1.7,1.7-4.1,2.7-6.5,2.7
			C438.5,706.9,434.4,702.8,434.4,697.6z M459.2,722.4c0-2.4,1-4.8,2.7-6.5l14.5-14.5c1.7-1.7,4.1-2.7,6.5-2.7
			c5.1,0,9.3,4.2,9.3,9.3c0,2.4-1,4.8-2.7,6.5L475,729c-1.7,1.7-4.1,2.7-6.5,2.7C463.3,731.7,459.2,727.5,459.2,722.4z M483.9,747.2
			c0-2.4,1-4.8,2.7-6.5l14.5-14.5c1.7-1.7,4.1-2.7,6.5-2.7c5.1,0,9.3,4.2,9.3,9.3c0,2.4-1,4.8-2.7,6.5l-14.5,14.5
			c-1.7,1.7-4.1,2.7-6.5,2.7C488.1,756.5,483.9,752.3,483.9,747.2z M518,781.2c-5.1,0-9.3-4.2-9.3-9.3c0-2.4,1-4.8,2.7-6.5
			l14.5-14.5c1.7-1.7,4.1-2.7,6.5-2.7c5.1,0,9.3,4.2,9.3,9.3c0,2.4-1,4.8-2.7,6.5l-14.5,14.5C522.8,780.2,520.4,781.2,518,781.2z
			 M557.9,789.5h-1.5c-2.1,0-4.1-0.8-5.7-2.2l-6.2-5.4l6.2-6.2c2.2-2.2,3.9-4.8,5.2-7.7l7.5,6.3c2,1.6,3.1,4,3.1,6.6
			C566.5,785.6,562.7,789.5,557.9,789.5z M632,715.2h-1.4c-2.1,0-4.1-0.7-5.7-2.1l-44.8-37.3l-10.6,12.7l43.5,36.2
			c2,1.6,3.1,4,3.1,6.6c0,4.8-3.9,8.6-8.6,8.6h-1.8c-2,0-4-0.7-5.5-2l-44.9-37.4l-10.6,12.7l43.5,36.2c2,1.6,3.1,4,3.1,6.6
			c0,4.8-3.9,8.6-8.6,8.6c-3.2,0-6.3-1.1-8.7-3.1l-18.4-15.4c-4.1-8.3-12.4-14.1-22.2-14.4c-0.5-13.5-11.3-24.3-24.8-24.8
			c-0.5-13.5-11.3-24.3-24.8-24.8c-0.5-13.8-11.8-24.9-25.7-24.9c-6.8,0-13.4,2.8-18.2,7.5l-14.5,14.5c-0.9,0.9-1.6,1.9-2.3,2.8
			L397.7,667l22.2-77.8l55.8-12.4c14.6-3.3,30-2.6,44.3,2l12.2,3.9L491,603.3c-9.4,4.7-15.3,14.2-15.3,24.7v1.6
			c0,15.3,12.4,27.7,27.7,27.7c5,0,9.9-1.4,14.2-3.9l30.8-18.4c6.2-3.7,14.5-2.9,19.8,1.9l69.8,62.8c1.9,1.7,2.9,4.1,2.9,6.6
			C640.8,711.2,636.9,715.2,632,715.2z M789.5,619.2l-139.1,69.6c-0.5-0.5-0.9-0.9-1.4-1.4l-69.8-62.8c-6.1-5.5-14-8.5-22.3-8.5
			c-6,0-11.9,1.6-17.1,4.7l-30.8,18.4c-1.7,1-3.7,1.6-5.7,1.6c-6.2,0-11.1-5-11.1-11.1v-1.6c0-4.3,2.4-8.1,6.2-10l46.1-23
			c7.9-3.9,17.2-4.8,25.7-2.4l51.9,14.8l12.6,0.3l154.9-81.5V619.2z"/>
	</g>
</g>
</svg>
