<?xml version="1.0" encoding="utf-8"?>
<!-- Generator: Adobe Illustrator 24.1.1, SVG Export Plug-In . SVG Version: 6.00 Build 0)  -->
<svg version="1.1" xmlns="http://www.w3.org/2000/svg" xmlns:xlink="http://www.w3.org/1999/xlink" x="0px" y="0px"
	 viewBox="0 0 1100 1100" style="enable-background:new 0 0 1100 1100;" xml:space="preserve">
<style type="text/css">
	.st0{fill:#FFFFFF;}
	.st1{fill:#AA9906;}
</style>
<g id="Capa_1">
	<g id="Capa_2_1_">
		<rect x="126.5" y="120" class="st0" width="903" height="887"/>
	</g>
	<g id="Capa_1_1_">
		<g>
			<rect class="st1" width="1100" height="1100"/>
		</g>
	</g>
</g>
<g id="Capa_2">
	<g>
		<path class="st0" d="M760.7,704.4l-20.7-7.2c11.6-9.2,19-23.3,19-39.2v-15.1c0-27.6-22.4-50-50-50s-50,22.4-50,50v15.1
			c0,15.9,7.4,30,19,39.2l-20.7,7.2c-13.3,4.6-24.4,13.1-32.4,23.8h-55.8v-22c0-29-18.4-54.9-45.8-64.4l-20.7-7.2
			c11.6-9.2,19-23.3,19-39.2v-15.1c0-27.6-22.4-50-50-50s-50,22.4-50,50v15.1c0,15.9,7.4,30,19,39.2l-20.7,7.2
			c-27.4,9.5-45.8,35.4-45.8,64.4v22h-72.2c-4.2,0-7.6,3.4-7.6,7.6v62.6c0,4.2,3.4,7.6,7.6,7.6h315.1c0.3,0,0.7,0,1-0.1
			c0.3,0,0.7,0.1,1,0.1h179.8c4.2,0,7.6-3.4,7.6-7.6v-29.6C806.5,739.8,788.1,713.9,760.7,704.4z M674.2,642.9
			c0-19.2,15.6-34.8,34.8-34.8s34.8,15.6,34.8,34.8v15.1c0,19.2-15.6,34.8-34.8,34.8s-34.8-15.6-34.8-34.8V642.9z M436.9,580.3
			c0-19.2,15.6-34.8,34.8-34.8s34.8,15.6,34.8,34.8v15.1c0,19.2-15.6,34.8-34.8,34.8s-34.8-15.6-34.8-34.8V580.3z M487.6,645.4
			l7.4,2.6l-23.3,40.3L448.5,648l7.4-2.6H487.6z M389.4,706.2c0-22.6,14.3-42.7,35.6-50.1l8.9-3.1l31.3,54.2
			c1.4,2.3,3.9,3.8,6.6,3.8s5.2-1.4,6.6-3.8l31.3-54.2l8.9,3.1c21.3,7.4,35.6,27.5,35.6,50.1v22H389.4V706.2z M309.6,743.4h306.9
			c-3.2,7.9-4.9,16.5-4.9,25.4v22H309.6V743.4z M791.4,790.9H626.7v-22c0-22.6,14.3-42.7,35.6-50.1l30.8-10.7h31.8l30.8,10.7
			c21.3,7.4,35.6,27.5,35.6,50.1V790.9z"/>
		<path class="st0" d="M758.5,348.5h-76.9c-4.2,0-7.6,3.4-7.6,7.6c0,4.2,3.4,7.6,7.6,7.6h76.9c18.1,0,32.8,14.7,32.8,32.8v105
			c0,18.1-14.7,32.8-32.8,32.8h-104c-4.2,0-7.6,3.4-7.6,7.6v32.2l-37.6-37.6c-1.4-1.4-3.3-2.2-5.4-2.2h-61.6
			c-18.1,0-32.8-14.7-32.8-32.8v-105c0-18.1,14.7-32.8,32.8-32.8h103.8c4.2,0,7.6-3.4,7.6-7.6s-3.4-7.6-7.6-7.6h-39.6V342
			c0-26.4-21.5-48-48-48H342.5c-26.4,0-48,21.5-48,48v16.7c0,4.2,3.4,7.6,7.6,7.6s7.6-3.4,7.6-7.6V342c0-18.1,14.7-32.8,32.8-32.8
			h216.1c18.1,0,32.8,14.7,32.8,32.8v6.6h-49c-26.4,0-48,21.5-48,48v83.3h-79.3c-4.2,0-7.6,3.4-7.6,7.6v32.2L370,482
			c-1.4-1.4-3.3-2.2-5.4-2.2h-22.2c-18.1,0-32.8-14.7-32.8-32.8v-53.1c0-4.2-3.4-7.6-7.6-7.6s-7.6,3.4-7.6,7.6V447
			c0,26.5,21.5,48,48,48h19.1l48.3,48.3c1.4,1.4,3.4,2.2,5.4,2.2c1,0,2-0.2,2.9-0.6c2.8-1.2,4.7-3.9,4.7-7V495h71.7v6.6
			c0,26.4,21.5,48,48,48h58.5l48.3,48.3c1.4,1.4,3.4,2.2,5.4,2.2c1,0,2-0.2,2.9-0.6c2.8-1.2,4.7-3.9,4.7-7v-42.9h96.4
			c26.4,0,48-21.5,48-48v-105C806.5,370.1,785,348.5,758.5,348.5z"/>
	</g>
</g>
</svg>
