<?xml version="1.0" encoding="utf-8"?>
<!-- Generator: Adobe Illustrator 24.1.1, SVG Export Plug-In . SVG Version: 6.00 Build 0)  -->
<svg version="1.1" xmlns="http://www.w3.org/2000/svg" xmlns:xlink="http://www.w3.org/1999/xlink" x="0px" y="0px"
	 viewBox="0 0 1100 1100" style="enable-background:new 0 0 1100 1100;" xml:space="preserve">
<style type="text/css">
	.st0{fill:#FFFFFF;}
	.st1{fill:#80582A;}
</style>
<g id="Capa_1">
	<g id="Capa_2_1_">
		<rect x="126.5" y="120" class="st0" width="903" height="887"/>
	</g>
	<g id="Capa_1_1_">
		<g>
			<rect class="st1" width="1100" height="1100"/>
		</g>
	</g>
</g>
<g id="Capa_2">
	<g>
		<g>
			<path class="st0" d="M521,554.9c0,10.5-4,14.4-10.5,14.4s-10.5-3.9-10.5-14.4v-37H477v37.7c0,20.5,12.3,32.4,33.4,32.4
				c21,0,33.4-11.8,33.4-32.4v-37.7H521L521,554.9L521,554.9z"/>
			<polygon class="st0" points="626.5,517.9 601.6,517.9 590.3,535.2 578.6,517.9 552.7,517.9 576.6,551.9 551.8,586.4 578.1,586.4 
				589.7,568.1 601.5,586.4 627.9,586.4 602.7,551 			"/>
			<path class="st0" d="M731,369c-48.4-48.4-112.6-75-181-75s-132.7,26.6-181,75c-48.4,48.4-75,112.6-75,181s26.6,132.7,75,181
				c48.4,48.4,112.6,75,181,75s132.7-26.6,181-75c48.4-48.4,75-112.6,75-181S779.4,417.3,731,369z M775.3,534.9h-61.1
				C707,456,644,393,565.1,385.8v-61.1c54.6,3.6,105.5,26.6,144.6,65.6C748.7,429.4,771.7,480.3,775.3,534.9z M550,684.7
				c-74.3,0-134.7-60.4-134.7-134.7c0-74.3,60.4-134.7,134.7-134.7S684.7,475.7,684.7,550C684.7,624.3,624.3,684.7,550,684.7z
				 M390.3,390.3c39.1-39.1,89.9-62,144.6-65.6v61.1C456,393,393,456,385.8,534.9h-61.1C328.3,480.3,351.3,429.4,390.3,390.3z
				 M324.7,565.1h61.1C393,644,456,707,534.9,714.2v61.1c-54.6-3.6-105.5-26.6-144.6-65.6C351.3,670.6,328.3,619.7,324.7,565.1z
				 M709.7,709.7c-39.1,39.1-89.9,62-144.6,65.6v-61.1C644,707,707,644,714.2,565.1h61.1C771.7,619.7,748.7,670.6,709.7,709.7z"/>
		</g>
	</g>
</g>
</svg>
