<svg id="Capa_3" data-name="Capa 3" xmlns="http://www.w3.org/2000/svg" viewBox="0 0 426.83 1250.42"><defs><style>.cls-1{fill:#fff;}.cls-2{fill:none;stroke:#fff;stroke-miterlimit:10;stroke-width:15px;}</style></defs><title>1</title><path class="cls-1" d="M570.28,1140.05c72.46,0,131.67-59.21,131.67-131.67a132.8,132.8,0,0,0-44.52-99C636.59,888.55,638.48,844,639,843.55a7.86,7.86,0,0,0-2.36-6.16A8.76,8.76,0,0,0,630.9,835H510.12a7.85,7.85,0,0,0-5.68,2.36,9,9,0,0,0-2.37,6.16c0,.48,2.37,45-18.47,65.84l-1.42,1.42c-27.47,25.1-43.57,60.62-43.57,97.57C438.61,1080.84,497.81,1140.05,570.28,1140.05ZM494.49,921.7c.48-.47,1.43-1.42,1.43-1.89,18.47-19.9,21.78-52.58,22.26-68.21H622.85c.47,15.63,3.79,49.74,23.68,70.1a115.33,115.33,0,1,1-152,0Z" transform="translate(-357.25 0.01)"/><path class="cls-1" d="M570.75,1106.42a8,8,0,0,0,0-16.1,86.21,86.21,0,0,1-86.2-86.21,8.06,8.06,0,0,0-16.11,0C468,1060.48,513.91,1106.42,570.75,1106.42Z" transform="translate(-357.25 0.01)"/><path class="cls-1" d="M518.18,826H623.32a19.9,19.9,0,1,0,0-39.79H518.65c-11.37.48-20.37,9-20.37,19.89A20,20,0,0,0,518.18,826Zm0-23.21H623.32a3.73,3.73,0,0,1,3.79,3.79,3.49,3.49,0,0,1-3.79,3.79H518.65a3.74,3.74,0,0,1-3.79-3.79C514.86,804.24,516.28,802.82,518.18,802.82Z" transform="translate(-357.25 0.01)"/><path class="cls-1" d="M533.81,778.19h73.88a19.89,19.89,0,1,0,0-39.78H533.81a20,20,0,0,0-19.9,19.89A19.71,19.71,0,0,0,533.81,778.19Zm0-23.21h73.88a3.73,3.73,0,0,1,3.79,3.79,3.49,3.49,0,0,1-3.79,3.79H533.81a3.79,3.79,0,0,1,0-7.58Z" transform="translate(-357.25 0.01)"/><path class="cls-1" d="M570.75,1179.36a8,8,0,0,0-8,8.05v54.94a8.05,8.05,0,1,0,16.1,0v-54.94A8.3,8.3,0,0,0,570.75,1179.36Z" transform="translate(-357.25 0.01)"/><path class="cls-1" d="M436.71,1209.67a7.64,7.64,0,0,0,10.89-1.89l30.32-45.47a7.81,7.81,0,0,0-1.9-11.37,7.48,7.48,0,0,0-10.89,2.37l-30.31,45.47A7.33,7.33,0,0,0,436.71,1209.67Z" transform="translate(-357.25 0.01)"/><path class="cls-1" d="M666.9,1151.42a7.61,7.61,0,0,0-4.26,1.42,8.29,8.29,0,0,0-2.37,11.36l29.36,46a8.21,8.21,0,0,0,13.74-9l-29.37-46A7.84,7.84,0,0,0,666.9,1151.42Z" transform="translate(-357.25 0.01)"/><path class="cls-1" d="M724.21,1101.21l47.84,26c3.78,1.89,9,.47,10.89-3.32a7.56,7.56,0,0,0-3.32-10.89l-47.83-26a11.24,11.24,0,0,0-3.79-1,7.82,7.82,0,0,0-7.11,4.27C719,1094.11,720.42,1099.32,724.21,1101.21Z" transform="translate(-357.25 0.01)"/><path class="cls-1" d="M358.09,1123.94c1.89,3.79,7.1,5.21,10.89,3.32l48.31-26c3.79-1.89,5.21-7.1,3.32-10.89a7.82,7.82,0,0,0-7.11-4.27,9,9,0,0,0-3.79,1l-48.31,26C357.61,1115,356.19,1120.16,358.09,1123.94Z" transform="translate(-357.25 0.01)"/><line class="cls-2" x1="213.75" y1="738.01" x2="212.75" y2="0.01"/></svg>