<svg id="Capa_1" data-name="Capa 1" xmlns="http://www.w3.org/2000/svg" viewBox="0 0 512 430.99"><defs><style>.cls-1{fill:#6787f5;}.cls-2{fill:#38478a;}.cls-3{fill:#fff;}.cls-4{fill:#c7d3ed;}.cls-5{fill:#ff337a;}.cls-6{fill:#d1005b;}</style></defs><title>EN_Language</title><path class="cls-1" d="M407,41H0V420H120.58l36.52,46.33a15,15,0,0,0,23.56,0L217.18,420H407A105.12,105.12,0,0,0,512,315V146A105.12,105.12,0,0,0,407,41Z" transform="translate(0 -41)"/><path class="cls-2" d="M407,41H256V420H512V41Z" transform="translate(0 -41)"/><path class="cls-3" d="M199.76,442.05,217.18,420Z" transform="translate(0 -41)"/><path class="cls-3" d="M512,164.25H385.88l93.88-93.88A104.65,104.65,0,0,0,407,41H381.86l-59.62,59.61V41H189.76v59.61L130.15,41H4.07L126.12,164.25H0V296.73H126.12L35.76,387.09,2.91,420H120.58l4.24,5.37L188.15,362l-1,58H322.24V360.54L381.45,420H407a104.63,104.63,0,0,0,72.5-29.12L476,387.29l-90.25-90.56H512Z" transform="translate(0 -41)"/><path class="cls-4" d="M512,164.25H385.88L509.13,41H381.86l-59.62,59.61V41H256V420h66.24V360.54L381.45,420h127L476,387.29l-90.25-90.56H512Z" transform="translate(0 -41)"/><path class="cls-5" d="M292.24,194.25V41H219.76V194.25H0v72.48H219.76L217.18,420h75.06V266.73H512V194.25Z" transform="translate(0 -41)"/><path class="cls-6" d="M292.24,194.25V41H256V420h36.24V266.73H512V194.25Z" transform="translate(0 -41)"/><path class="cls-5" d="M199.76,174.25V153L87.86,41H47.91L178.55,174.25Z" transform="translate(0 -41)"/><path class="cls-6" d="M466.71,41H424.28l-112,112v21.21h21.21Z" transform="translate(0 -41)"/><path class="cls-5" d="M45.34,420H87.76l112-112V286.73H178.55Z" transform="translate(0 -41)"/><path class="cls-6" d="M312.24,286.73V308L423.8,420h42.36L333.39,286.73Z" transform="translate(0 -41)"/></svg>