<svg id="Capa_1" data-name="Capa 1" xmlns="http://www.w3.org/2000/svg" viewBox="0 0 512 430.99"><defs><style>.cls-1{fill:#d1005b;}.cls-2{fill:#ff337a;}.cls-3{fill:#ffe95c;}.cls-4{fill:#fcc733;}</style></defs><title>ES_Language</title><rect class="cls-1" x="323" y="0.02" width="189" height="378.95"/><rect class="cls-2" width="189" height="378.95"/><path class="cls-2" d="M407,41H105A105.12,105.12,0,0,0,0,146V315A105.12,105.12,0,0,0,105,420h15.58l36.52,46.33a15,15,0,0,0,23.56,0L217.18,420H407A105.12,105.12,0,0,0,512,315V146A105.12,105.12,0,0,0,407,41Z" transform="translate(0 -41)"/><path class="cls-3" d="M0,159H512V302H0Z" transform="translate(0 -41)"/><path class="cls-1" d="M407,41H256V420H407A105.12,105.12,0,0,0,512,315V146A105.12,105.12,0,0,0,407,41Z" transform="translate(0 -41)"/><path class="cls-4" d="M256,159H512V302H256Z" transform="translate(0 -41)"/></svg>