<svg id="Capa_3" data-name="Capa 3" xmlns="http://www.w3.org/2000/svg" viewBox="0 0 1193.29 1412.08"><defs><style>.cls-1,.cls-2{fill:#fff;}.cls-2{stroke:#fff;}</style></defs><title>Ideas</title><path class="cls-1" d="M518.48,1842.92a63.85,63.85,0,0,0,42.19-111.68c-10.09-10.09-9.17-31.65-8.94-31.88a3.8,3.8,0,0,0-1.15-3,4.2,4.2,0,0,0-2.75-1.15H489.35a3.8,3.8,0,0,0-2.75,1.15,4.37,4.37,0,0,0-1.15,3c0,.23,1.15,21.79-8.94,31.88l-.69.69a63.65,63.65,0,0,0,42.66,111Zm-36.7-105.72c.23-.23.69-.69.69-.91,8.95-9.64,10.55-25.46,10.78-33h50.68c.23,7.57,1.84,24.08,11.47,33.94a55.84,55.84,0,1,1-73.62,0Z" transform="translate(0.41 -484.28)"/><path class="cls-1" d="M518.71,1826.64a3.9,3.9,0,0,0,0-7.8A41.73,41.73,0,0,1,477,1777.11a3.9,3.9,0,0,0-7.8,0A49.33,49.33,0,0,0,518.71,1826.64Z" transform="translate(0.41 -484.28)"/><path class="cls-1" d="M493.25,1690.88h50.91a9.64,9.64,0,0,0,0-19.27H493.48c-5.5.23-9.86,4.36-9.86,9.64A9.69,9.69,0,0,0,493.25,1690.88Zm0-11.24h50.91a1.81,1.81,0,0,1,1.84,1.83,1.69,1.69,0,0,1-1.84,1.84H493.48a1.81,1.81,0,0,1-1.83-1.84A1.63,1.63,0,0,1,493.25,1679.64Z" transform="translate(0.41 -484.28)"/><path class="cls-1" d="M500.82,1667.71h35.77a9.63,9.63,0,1,0,0-19.26H500.82a9.69,9.69,0,0,0-9.63,9.63A9.53,9.53,0,0,0,500.82,1667.71Zm0-11.23h35.77a1.81,1.81,0,0,1,1.84,1.83,1.69,1.69,0,0,1-1.84,1.84H500.82a1.84,1.84,0,1,1,0-3.67Z" transform="translate(0.41 -484.28)"/><path class="cls-1" d="M518.71,1862a3.86,3.86,0,0,0-3.9,3.9v26.6a3.9,3.9,0,1,0,7.8,0v-26.6A4,4,0,0,0,518.71,1862Z" transform="translate(0.41 -484.28)"/><path class="cls-1" d="M453.81,1876.64a3.7,3.7,0,0,0,5.27-.92l14.68-22a3.78,3.78,0,0,0-.92-5.5,3.7,3.7,0,0,0-2.06-.69,3.64,3.64,0,0,0-3.21,1.84l-14.68,22A3.55,3.55,0,0,0,453.81,1876.64Z" transform="translate(0.41 -484.28)"/><path class="cls-1" d="M565.26,1848.43a3.68,3.68,0,0,0-2.06.69,4,4,0,0,0-1.15,5.5l14.22,22.25a4,4,0,0,0,6.65-4.36l-14.22-22.25A3.81,3.81,0,0,0,565.26,1848.43Z" transform="translate(0.41 -484.28)"/><path class="cls-1" d="M593,1824.12l23.16,12.61a4,4,0,0,0,5.28-1.6,3.67,3.67,0,0,0-1.61-5.28l-23.16-12.61a5.41,5.41,0,0,0-1.84-.46,3.79,3.79,0,0,0-3.44,2.07A4,4,0,0,0,593,1824.12Z" transform="translate(0.41 -484.28)"/><path class="cls-1" d="M415.74,1835.13a4,4,0,0,0,5.27,1.6l23.39-12.61a4,4,0,0,0,1.61-5.28,3.8,3.8,0,0,0-3.44-2.06,4.33,4.33,0,0,0-1.84.46l-23.39,12.61A4,4,0,0,0,415.74,1835.13Z" transform="translate(0.41 -484.28)"/><path class="cls-1" d="M143.81,979.86V860.38l-65-13.87V981.33h0c0,1.88.11,3.75.2,5.61h65.11C143.93,984.61,143.81,982.25,143.81,979.86Z" transform="translate(0.41 -484.28)"/><path class="cls-1" d="M237.72,906.12a75.93,75.93,0,0,1,57.14,63.13L360.55,983c0-1,.07-2.06.07-3.1A140.94,140.94,0,0,0,251.25,842.53Z" transform="translate(0.41 -484.28)"/><path class="cls-1" d="M219.71,904a76.24,76.24,0,0,1,11.08.82l13.54-63.64A141.61,141.61,0,0,0,219.71,839c-23.49,0-52.16,7.95-68.69,18.15v89.78C165.37,918.32,192.06,904,219.71,904Z" transform="translate(0.41 -484.28)"/><polygon class="cls-1" points="144.22 368.88 144.22 247.28 79.21 203.18 79.21 355.01 144.22 368.88"/><path class="cls-1" d="M295.54,976.61c0,1.08.08,2.16.08,3.25a75.91,75.91,0,0,1-75.91,75.9c-1.1,0-2.19,0-3.29-.08l13.44,64.68A140.87,140.87,0,0,0,360.21,990.1Z" transform="translate(0.41 -484.28)"/><path class="cls-1" d="M209.07,1055a75.94,75.94,0,0,1-63.9-60.84H79.58a140.88,140.88,0,0,0,140.13,126.61c1,0,2-.06,3-.08Z" transform="translate(0.41 -484.28)"/><ellipse class="cls-1" cx="46.51" cy="362.23" rx="32.7" ry="10.82"/><path class="cls-1" d="M125.39,1368.72c0-8.6,6.65-15.68,16.55-15.68h10.57V1346c0-6.31-3.81-10.89-10.24-10.89-5.77,0-9.37,4-9.8,10-.11.76-.43,1.09-1.09,1.09h-4a1,1,0,0,1-1.08-1.09c.54-9.26,6.63-16,16-16,10,0,16.45,7.3,16.45,16.88v22.76c0,9.7-6.54,16.88-16.56,16.88S125.39,1378.42,125.39,1368.72Zm27.12,0V1359H141.94c-6.42,0-10.34,4.36-10.34,9.69,0,6.43,3.92,10.89,10.56,10.89S152.51,1375.15,152.51,1368.72Z" transform="translate(0.41 -484.28)"/><path class="cls-1" d="M169.6,1383.53v-37.35c0-9.8,6.54-17.1,16.23-17.1s16.23,7.3,16.23,17.1v37.35a1,1,0,0,1-1.09,1.09h-4a1,1,0,0,1-1.09-1.09v-37.35c0-6.64-3.81-11.22-10-11.22s-10,4.58-10,11.22v37.35a1,1,0,0,1-1.09,1.09h-4A1,1,0,0,1,169.6,1383.53Z" transform="translate(0.41 -484.28)"/><path class="cls-1" d="M212.18,1368.72c0-8.6,6.64-15.68,16.55-15.68H239.3V1346c0-6.31-3.81-10.89-10.24-10.89-5.77,0-9.37,4-9.8,10-.11.76-.44,1.09-1.09,1.09h-4a1,1,0,0,1-1.09-1.09c.54-9.26,6.64-16,16-16,10,0,16.44,7.3,16.44,16.88v22.76c0,9.7-6.53,16.88-16.55,16.88S212.18,1378.42,212.18,1368.72Zm27.12,0V1359H228.73c-6.42,0-10.34,4.36-10.34,9.69,0,6.43,3.92,10.89,10.56,10.89S239.3,1375.15,239.3,1368.72Z" transform="translate(0.41 -484.28)"/><path class="cls-1" d="M257.48,1383.53v-74a1,1,0,0,1,1.09-1.09h4a1,1,0,0,1,1.09,1.09v74a1,1,0,0,1-1.09,1.09h-4A1,1,0,0,1,257.48,1383.53Z" transform="translate(0.41 -484.28)"/><path class="cls-1" d="M309.65,1331.26v59.14c0,10.23-6.65,17.09-16.56,17.09-9.47,0-16.12-6.86-16.55-17.09a1,1,0,0,1,1.09-1.09h4a1,1,0,0,1,1.08,1.09c.22,7,4,11.1,10.35,11.1,6.53,0,10.35-4.13,10.35-11.1V1378c-2.62,3.38-6.21,5.55-10.35,5.55-9.91,0-16.55-7.29-16.55-17.09v-35.18a1,1,0,0,1,1.09-1.09h4a1,1,0,0,1,1.08,1.09v35.18c0,6.53,3.93,11.11,10.35,11.11s10.35-4.58,10.35-11.11v-35.18a1,1,0,0,1,1.08-1.09h4A1,1,0,0,1,309.65,1331.26Z" transform="translate(0.41 -484.28)"/><path class="cls-1" d="M344.05,1379.94v3.81a1,1,0,0,1-1.08,1.09h-1.42c-9.7,0-15.36-6.75-15.36-18.3v-30.49h-6.75a1,1,0,0,1-1.09-1.09v-3.7a1,1,0,0,1,1.09-1.09h6.75V1316a1,1,0,0,1,1.09-1.09h4a1,1,0,0,1,1.09,1.09v14.16h9.25a1,1,0,0,1,1.09,1.09v3.7a1,1,0,0,1-1.09,1.09H332.4v30.49c0,8.06,3.16,12.31,9.15,12.31H343A1,1,0,0,1,344.05,1379.94Z" transform="translate(0.41 -484.28)"/><path class="cls-1" d="M352.43,1318.84a4.06,4.06,0,0,1,4.25-4.24,4.12,4.12,0,0,1,4.25,4.24,4.25,4.25,0,0,1-4.25,4.25A4.12,4.12,0,0,1,352.43,1318.84Zm1.2,64.69v-52.27a1,1,0,0,1,1.09-1.09h4a1,1,0,0,1,1.09,1.09v52.27a1,1,0,0,1-1.09,1.09h-4A1,1,0,0,1,353.63,1383.53Z" transform="translate(0.41 -484.28)"/><path class="cls-1" d="M370.94,1368.61v-22.43c0-9.8,6.54-17.1,16.34-17.1,9.48,0,15.79,6.75,16.34,16a1,1,0,0,1-1.09,1.09h-4a1,1,0,0,1-1.09-1.09c-.44-6-4.14-10-10.13-10-6.31,0-10.12,4.58-10.12,11.11v22.43c0,6.54,3.91,11.11,10.34,11.11,6.1,0,9.91-4.46,10.35-11.11a1,1,0,0,1,1.09-1.08h4a1,1,0,0,1,1.09,1.08c-.54,9.92-7,17.1-16.55,17.1C377.59,1385.71,370.94,1378.42,370.94,1368.61Z" transform="translate(0.41 -484.28)"/><path class="cls-1" d="M410.91,1368.61a1,1,0,0,1,1.09-1.08h4a1,1,0,0,1,1.09,1.08c.32,7.41,4,11.11,11.21,11.11,6.54,0,9.8-3.59,9.8-8.71,0-13.18-26.68-9-26.68-27.23,0-8,6.21-14.7,15.69-14.7,10.67,0,16,6.32,16.44,16a1,1,0,0,1-1.09,1.09h-4a1,1,0,0,1-1.09-1.09c-.32-5.77-3.59-10-9.91-10-5.88,0-9.8,3.59-9.8,8.71,0,12.64,26.69,8.5,26.69,27.23,0,8-6.32,14.7-16,14.7C417.88,1385.71,411.34,1379,410.91,1368.61Z" transform="translate(0.41 -484.28)"/><path class="cls-1" d="M44.22,1232.33c7.67-3.74,12.31-12.38,12.31-23.34v-8.37c0-18.12-11.61-30.3-28.9-30.3-16.77,0-28,12.18-28,30.3v89.56A6.15,6.15,0,0,0,6,1296.61H29.89c17.71,0,29.61-12.24,29.61-30.47v-8.54C59.5,1246.18,53.6,1236.59,44.22,1232.33ZM43.67,1209c0,11.52-5.91,18.13-16.22,18.13h-15v-26.5c0-11.52,5.53-18.13,15.18-18.13,10.2,0,16,6.61,16,18.13Zm-31.22,30.3H29.89c10.64,0,16.75,6.67,16.75,18.31v8.54c0,11.63-6.11,18.31-16.75,18.31H12.45Z" transform="translate(0.41 -484.28)"/><path class="cls-1" d="M98.36,1205c-15.09,0-25.87,10.75-26.81,26.81a2.85,2.85,0,0,0,2.94,3h6.45c1.16,0,2.61-.48,2.94-2.86.67-9.2,6.22-14.91,14.48-14.91,9.22,0,15.18,6.36,15.18,16.22v10.12H97.84c-15.78,0-27.69,11.3-27.69,26.29,0,16.61,11.53,28.21,28,28.21,16.3,0,27.69-11.6,27.69-28.21v-36.41C125.88,1216.6,114.56,1205,98.36,1205Zm-.52,50.32h15.7v14.3c0,10-5.88,16.22-15.35,16.22-9.68,0-15.7-6.21-15.7-16.22C82.49,1261.2,88.8,1255.32,97.84,1255.32Z" transform="translate(0.41 -484.28)"/><path class="cls-1" d="M206.91,1205A22.75,22.75,0,0,0,187,1216.74c-4.47-7.4-11.81-11.74-20-11.74-15.38,0-26.12,11.74-26.12,28.55v59.77a2.84,2.84,0,0,0,3,2.94h6.44a2.84,2.84,0,0,0,2.95-2.94v-59.77c0-10.21,5.28-16.56,13.78-16.56s13.78,6.35,13.78,16.56v59.77a2.84,2.84,0,0,0,3,2.94h6.44a2.84,2.84,0,0,0,2.95-2.94v-59.77c0-10.21,5.28-16.56,13.78-16.56s13.78,6.35,13.78,16.56v59.77a2.84,2.84,0,0,0,2.95,2.94h6.44a2.84,2.84,0,0,0,2.95-2.94v-59.77C233,1216.74,222.29,1205,206.91,1205Z" transform="translate(0.41 -484.28)"/><path class="cls-1" d="M276.25,1205a21.89,21.89,0,0,0-15.52,6.77v-36.93a2.85,2.85,0,0,0-2.94-2.95h-6.45a2.85,2.85,0,0,0-3,2.95v94.61c0,16.81,11.46,28.56,27.86,28.56s27.87-11.75,27.87-28.56v-35.9C304.12,1216.74,292.66,1205,276.25,1205Zm0,12c9.43,0,15.53,6.5,15.53,16.56v35.9c0,10.07-6.1,16.57-15.53,16.57s-15.52-6.5-15.52-16.57v-35.9C260.73,1223.49,266.82,1217,276.25,1217Z" transform="translate(0.41 -484.28)"/><path class="cls-1" d="M345.42,1205c-16.5,0-28,11.74-28,28.55v35.9c0,16.81,11.53,28.56,28,28.56s28-11.75,28-28.56v-35.9C373.46,1216.74,361.93,1205,345.42,1205Zm-15.52,28.55c0-10.32,6-16.74,15.52-16.74s15.53,6.42,15.53,16.74v35.9c0,10.33-5.95,16.74-15.53,16.74s-15.52-6.41-15.52-16.74Z" transform="translate(0.41 -484.28)"/><path class="cls-1" d="M414.76,1205c-16.5,0-28,11.74-28,28.55v35.9c0,16.81,11.53,28.56,28,28.56s28-11.75,28-28.56v-35.9C442.8,1216.74,431.27,1205,414.76,1205Zm-15.52,28.55c0-10.32,5.95-16.74,15.52-16.74s15.53,6.42,15.53,16.74v35.9c0,10.33-6,16.74-15.53,16.74s-15.52-6.41-15.52-16.74Z" transform="translate(0.41 -484.28)"/><rect class="cls-1" x="513.46" width="10.7" height="1167.72"/><path class="cls-2" d="M608.76,899.77a1.45,1.45,0,0,1,1.53-1.53h6.13a1.45,1.45,0,0,1,1.54,1.53c.46,13.49,6.13,20.54,16.55,20.54,10.73,0,16.24-5.52,16.24-16.1,0-26.2-41.22-32-41.22-61.91,0-14.26,9.81-23.76,24.67-23.76,13.95,0,23.6,11.34,24.37,28.35a1.45,1.45,0,0,1-1.53,1.54h-6.13a1.45,1.45,0,0,1-1.53-1.54c-.62-13.48-6-19.77-15.18-19.77-10.11,0-15.48,5.21-15.48,15.18,0,24.67,41.23,30.34,41.23,61.91,0,14.87-10.12,24.68-25.44,24.68C619.49,928.89,609.22,917.24,608.76,899.77Z" transform="translate(0.41 -484.28)"/><path class="cls-2" d="M673,900.38V847.05c0-16.86,10.73-28.36,26-28.36s26.06,11.5,26.06,26.83v56.39c0,15.33-10.73,26.82-26.06,26.82S673,917.24,673,900.38Zm42.91,1.53V845.52c0-10.58-6.9-18.24-16.86-18.24s-16.86,7.66-16.86,19.77v53.33c0,12.11,6.9,19.77,16.86,19.77S715.89,912.49,715.89,901.91Z" transform="translate(0.41 -484.28)"/><path class="cls-2" d="M780.41,919.08a1.45,1.45,0,0,1,1.54,1.53v5.52a1.45,1.45,0,0,1-1.54,1.53H766.62c-14.71,0-24.52-11.49-24.52-26.2V821.61a1.45,1.45,0,0,1,1.53-1.54h6.13a1.45,1.45,0,0,1,1.53,1.54v79.85c0,10,6.13,17.62,15.33,17.62Z" transform="translate(0.41 -484.28)"/><path class="cls-2" d="M798,820.07a1.45,1.45,0,0,1,1.53,1.54V901.3c0,11.34,6.29,19,16.09,19s16.1-7.67,16.1-19V821.61a1.45,1.45,0,0,1,1.53-1.54h6.13a1.45,1.45,0,0,1,1.53,1.54V901.3c0,16.09-10,27.59-25.29,27.59s-25.28-11.5-25.28-27.59V821.61a1.45,1.45,0,0,1,1.53-1.54Z" transform="translate(0.41 -484.28)"/><path class="cls-2" d="M858,902.53V844.9c0-15.78,10-26.36,25-26.36,14.4,0,24.52,11.34,25,28.35a1.46,1.46,0,0,1-1.54,1.54h-6.13a1.38,1.38,0,0,1-1.53-1.54c-.46-12.72-6.59-19.77-15.78-19.77-10,0-15.79,6.59-15.79,17.78v57.63c0,11.19,5.82,17.78,15.79,17.78s16.24-7.67,16.55-20.54a1.37,1.37,0,0,1,1.53-1.53h6.13c.92,0,1.53.46,1.53,1.38-.46,17.62-10.73,29.27-25.74,29.27S858,918.31,858,902.53Z" transform="translate(0.41 -484.28)"/><path class="cls-2" d="M925.4,820.07h6.13a1.45,1.45,0,0,1,1.53,1.54V925.82a1.45,1.45,0,0,1-1.53,1.54H925.4a1.45,1.45,0,0,1-1.53-1.54V821.61A1.45,1.45,0,0,1,925.4,820.07Z" transform="translate(0.41 -484.28)"/><path class="cls-2" d="M951.3,900.38V847.05c0-16.86,10.73-28.36,26.06-28.36s26,11.5,26,26.83v56.39c0,15.33-10.73,26.82-26,26.82S951.3,917.24,951.3,900.38Zm42.91,1.53V845.52c0-10.58-6.89-18.24-16.85-18.24s-16.86,7.66-16.86,19.77v53.33c0,12.11,6.89,19.77,16.86,19.77S994.21,912.49,994.21,901.91Z" transform="translate(0.41 -484.28)"/><path class="cls-2" d="M1020.42,925.82V846.13c0-16.09,10-27.59,25.29-27.59S1071,830,1071,846.13v79.69a1.46,1.46,0,0,1-1.54,1.54h-6.13a1.45,1.45,0,0,1-1.53-1.54V846.13c0-11.34-6.28-19-16.09-19s-16.09,7.67-16.09,19v79.69a1.46,1.46,0,0,1-1.54,1.54H1022A1.45,1.45,0,0,1,1020.42,925.82Z" transform="translate(0.41 -484.28)"/><path class="cls-2" d="M1088,901.3V846.13c0-14.87,10.27-26.36,25-26.36h15.94a1.44,1.44,0,0,1,1.53,1.53v5.52a1.44,1.44,0,0,1-1.53,1.53H1113c-9.35,0-15.78,7.66-15.78,17.78v22.53h28a1.44,1.44,0,0,1,1.53,1.53v5.52a1.44,1.44,0,0,1-1.53,1.53h-28V901.3c0,10.12,6.43,17.78,15.78,17.78h15.94a1.44,1.44,0,0,1,1.53,1.53v5.52a1.44,1.44,0,0,1-1.53,1.53H1113C1098.28,927.66,1088,916.17,1088,901.3Z" transform="translate(0.41 -484.28)"/><path class="cls-2" d="M1141.19,899.77a1.44,1.44,0,0,1,1.53-1.53h6.13a1.45,1.45,0,0,1,1.54,1.53c.46,13.49,6.13,20.54,16.55,20.54,10.73,0,16.24-5.52,16.24-16.1,0-26.2-41.22-32-41.22-61.91,0-14.26,9.8-23.76,24.67-23.76,13.95,0,23.6,11.34,24.37,28.35a1.45,1.45,0,0,1-1.53,1.54h-6.13a1.46,1.46,0,0,1-1.54-1.54c-.61-13.48-6-19.77-15.17-19.77-10.11,0-15.48,5.21-15.48,15.18,0,24.67,41.23,30.34,41.23,61.91,0,14.87-10.12,24.68-25.44,24.68C1151.92,928.89,1141.65,917.24,1141.19,899.77Z" transform="translate(0.41 -484.28)"/><path class="cls-2" d="M627.13,1003.49v2.42a.64.64,0,0,1-.67.67h-8.07v42.64a.64.64,0,0,1-.67.68H615a.64.64,0,0,1-.68-.68v-42.64h-8.07a.64.64,0,0,1-.67-.67v-2.42a.64.64,0,0,1,.67-.68h20.18A.64.64,0,0,1,627.13,1003.49Z" transform="translate(0.41 -484.28)"/><path class="cls-2" d="M630,1038.46v-24.21c0-6.53,4.5-11.57,11-11.57h7a.64.64,0,0,1,.68.67v2.42a.64.64,0,0,1-.68.68h-7c-4.1,0-6.93,3.36-6.93,7.8v9.89h12.31a.64.64,0,0,1,.67.67v2.42a.64.64,0,0,1-.67.67H634.06v10.56c0,4.44,2.83,7.81,6.93,7.81h7a.63.63,0,0,1,.68.67v2.42a.64.64,0,0,1-.68.67h-7C634.53,1050,630,1045,630,1038.46Z" transform="translate(0.41 -484.28)"/><path class="cls-2" d="M654.24,1039v-25.29c0-6.93,4.37-11.57,11-11.57,6.32,0,10.76,5,11,12.45a.64.64,0,0,1-.68.67H672.8a.6.6,0,0,1-.67-.67c-.2-5.59-2.89-8.68-6.93-8.68-4.37,0-6.93,2.89-6.93,7.8V1039c0,4.91,2.56,7.8,6.93,7.8s7.13-3.36,7.27-9a.6.6,0,0,1,.67-.67h2.69c.4,0,.67.2.67.6-.2,7.74-4.71,12.85-11.3,12.85S654.24,1045.93,654.24,1039Z" transform="translate(0.41 -484.28)"/><path class="cls-2" d="M682.62,1049.22v-35c0-7.06,4.37-12.11,11.1-12.11s11.1,5.05,11.1,12.11v35a.64.64,0,0,1-.67.68h-2.69a.64.64,0,0,1-.68-.68v-35c0-5-2.75-8.34-7.06-8.34s-7.06,3.36-7.06,8.34v35a.64.64,0,0,1-.67.68h-2.7A.64.64,0,0,1,682.62,1049.22Z" transform="translate(0.41 -484.28)"/><path class="cls-2" d="M712.29,1038.06v-23.41c0-7.4,4.7-12.44,11.43-12.44s11.43,5,11.43,11.77v24.75c0,6.73-4.7,11.77-11.43,11.77S712.29,1045.46,712.29,1038.06Zm18.83.67V1014c0-4.64-3-8-7.4-8s-7.4,3.36-7.4,8.67v23.41c0,5.31,3,8.68,7.4,8.68S731.12,1043.37,731.12,1038.73Z" transform="translate(0.41 -484.28)"/><path class="cls-2" d="M759.43,1046.27a.63.63,0,0,1,.68.67v2.42a.64.64,0,0,1-.68.67h-6c-6.46,0-10.76-5-10.76-11.5v-35a.64.64,0,0,1,.67-.68H746a.64.64,0,0,1,.67.68v35c0,4.37,2.69,7.74,6.73,7.74Z" transform="translate(0.41 -484.28)"/><path class="cls-2" d="M762.86,1038.06v-23.41c0-7.4,4.71-12.44,11.44-12.44s11.43,5,11.43,11.77v24.75c0,6.73-4.71,11.77-11.43,11.77S762.86,1045.46,762.86,1038.06Zm18.84.67V1014c0-4.64-3-8-7.4-8s-7.4,3.36-7.4,8.67v23.41c0,5.31,3,8.68,7.4,8.68S781.7,1043.37,781.7,1038.73Zm-10.09-41.36,4.64-6.12a.92.92,0,0,1,.87-.41h3.1c.54,0,.74.41.33.81l-5.44,6.12a1,1,0,0,1-.81.4H772C771.47,998.17,771.27,997.77,771.61,997.37Z" transform="translate(0.41 -484.28)"/><path class="cls-2" d="M792.32,1038.33v-24c0-7.2,4.44-12.18,11.3-12.18,6.59,0,10.9,4.91,11.17,11.44a.64.64,0,0,1-.67.67h-2.69a.6.6,0,0,1-.68-.67c-.27-4.44-2.89-7.67-7.13-7.67-4.5,0-7.26,3.36-7.26,8.47v23.95c0,5.11,3,8.47,7.4,8.47s7.4-3.36,7.4-7.8v-10.42h-6.33a.64.64,0,0,1-.67-.68v-2.42a.64.64,0,0,1,.67-.67h8.34a1.84,1.84,0,0,1,2,2V1039a11.17,11.17,0,0,1-11.43,11.57C797,1050.57,792.32,1045.53,792.32,1038.33Z" transform="translate(0.41 -484.28)"/><path class="cls-2" d="M823.2,1002.81h2.69a.64.64,0,0,1,.67.68v45.73a.64.64,0,0,1-.67.68H823.2a.64.64,0,0,1-.68-.68v-45.73A.64.64,0,0,1,823.2,1002.81Z" transform="translate(0.41 -484.28)"/><path class="cls-2" d="M834.56,1039v-25.29c0-6.93,4.38-11.57,11-11.57,6.32,0,10.76,5,11,12.45a.64.64,0,0,1-.67.67h-2.69a.6.6,0,0,1-.67-.67c-.21-5.59-2.9-8.68-6.93-8.68-4.38,0-6.93,2.89-6.93,7.8V1039c0,4.91,2.55,7.8,6.93,7.8s7.13-3.36,7.26-9a.6.6,0,0,1,.67-.67h2.69c.41,0,.68.2.68.6-.2,7.74-4.71,12.85-11.3,12.85S834.56,1045.93,834.56,1039Z" transform="translate(0.41 -484.28)"/><path class="cls-2" d="M863,1049.22v-34.9c0-7.27,4.44-12.11,11.09-12.11s11.1,4.84,11.1,12.11v34.9a.63.63,0,0,1-.67.68h-2.69a.64.64,0,0,1-.67-.68v-16.41H867v16.41a.64.64,0,0,1-.67.68h-2.69A.64.64,0,0,1,863,1049.22Zm18.16-20.17v-14.73c0-5.25-2.56-8.34-7.07-8.34s-7.06,3.09-7.06,8.34v14.73Z" transform="translate(0.41 -484.28)"/><path class="cls-2" d="M891.73,1037.79a.64.64,0,0,1,.68-.67h2.69a.64.64,0,0,1,.67.67c.2,5.92,2.69,9,7.27,9s7.12-2.42,7.12-7.06c0-11.5-18.09-14.06-18.09-27.17,0-6.26,4.31-10.43,10.83-10.43,6.12,0,10.36,5,10.69,12.45a.63.63,0,0,1-.67.67h-2.69a.64.64,0,0,1-.67-.67c-.27-5.92-2.62-8.68-6.66-8.68-4.44,0-6.79,2.29-6.79,6.66,0,10.83,18.09,13.32,18.09,27.17,0,6.53-4.44,10.83-11.16,10.83S891.94,1045.46,891.73,1037.79Z" transform="translate(0.41 -484.28)"/><path class="cls-2" d="M943.6,1047.15V967.71a3.38,3.38,0,0,1,3.7-3.7H964c12.45,0,20.1,9.25,20.1,21.59v43.79c0,12.21-7.89,21.46-20.1,21.46H947.3A3.38,3.38,0,0,1,943.6,1047.15Zm20.36-3.21c7.77,0,12.7-6.16,12.7-14.55V985.6c0-8.51-4.81-14.68-12.7-14.68H951v73Z" transform="translate(0.41 -484.28)"/><path class="cls-2" d="M996.15,1029.63v-44.4c0-12,8.27-21.22,20.11-21.22h12.83a1.16,1.16,0,0,1,1.23,1.23v4.44a1.17,1.17,0,0,1-1.23,1.24h-12.83c-7.53,0-12.71,6.17-12.71,14.31v18.13h22.58a1.16,1.16,0,0,1,1.23,1.23V1009a1.17,1.17,0,0,1-1.23,1.24h-22.58v19.36c0,8.15,5.18,14.31,12.71,14.31h12.83a1.17,1.17,0,0,1,1.23,1.24v4.44a1.16,1.16,0,0,1-1.23,1.23h-12.83C1004.42,1050.85,996.15,1041.6,996.15,1029.63Z" transform="translate(0.41 -484.28)"/><path class="cls-2" d="M1039,1028.4a1.16,1.16,0,0,1,1.23-1.23h4.93a1.17,1.17,0,0,1,1.24,1.23c.37,10.85,4.93,16.53,13.32,16.53,8.63,0,13.07-4.44,13.07-13,0-21.1-33.18-25.78-33.18-49.84,0-11.47,7.9-19.12,19.86-19.12,11.23,0,19,9.13,19.61,22.82a1.17,1.17,0,0,1-1.23,1.24h-4.93a1.18,1.18,0,0,1-1.24-1.24c-.49-10.85-4.81-15.91-12.21-15.91-8.14,0-12.46,4.2-12.46,12.21,0,19.86,33.19,24.43,33.19,49.84,0,12-8.15,19.86-20.48,19.86C1047.59,1051.84,1039.33,1042.46,1039,1028.4Z" transform="translate(0.41 -484.28)"/><path class="cls-2" d="M1093.23,1047.15V967.71a3.38,3.38,0,0,1,3.7-3.7h16.65c12.46,0,20.11,9.25,20.11,21.59v43.79c0,12.21-7.9,21.46-20.11,21.46h-16.65A3.38,3.38,0,0,1,1093.23,1047.15Zm20.35-3.21c7.77,0,12.71-6.16,12.71-14.55V985.6c0-8.51-4.81-14.68-12.71-14.68h-12.95v73Z" transform="translate(0.41 -484.28)"/><path class="cls-2" d="M1145.78,1029.63v-44.4c0-12,8.26-21.22,20.11-21.22h12.82a1.16,1.16,0,0,1,1.24,1.23v4.44a1.17,1.17,0,0,1-1.24,1.24h-12.82c-7.53,0-12.71,6.17-12.71,14.31v18.13h22.57a1.17,1.17,0,0,1,1.24,1.23V1009a1.18,1.18,0,0,1-1.24,1.24h-22.57v19.36c0,8.15,5.18,14.31,12.71,14.31h12.82a1.17,1.17,0,0,1,1.24,1.24v4.44a1.16,1.16,0,0,1-1.24,1.23h-12.82C1154,1050.85,1145.78,1041.6,1145.78,1029.63Z" transform="translate(0.41 -484.28)"/><path class="cls-2" d="M607.05,1127.16V1103c0-6.53,4.5-11.57,11-11.57h7a.64.64,0,0,1,.67.67v2.42a.64.64,0,0,1-.67.68h-7c-4.1,0-6.93,3.36-6.93,7.8v9.89h12.31a.63.63,0,0,1,.68.67v2.42a.64.64,0,0,1-.68.67H611.08v10.56c0,4.44,2.83,7.8,6.93,7.8h7a.64.64,0,0,1,.67.68v2.42a.64.64,0,0,1-.67.67h-7C611.55,1138.73,607.05,1133.69,607.05,1127.16Z" transform="translate(0.41 -484.28)"/><path class="cls-2" d="M649,1135a.63.63,0,0,1,.67.68v2.42a.63.63,0,0,1-.67.67H642.9c-6.46,0-10.76-5-10.76-11.5v-35a.64.64,0,0,1,.67-.68h2.69a.64.64,0,0,1,.67.68v35c0,4.37,2.69,7.73,6.73,7.73Z" transform="translate(0.41 -484.28)"/><path class="cls-2" d="M660.19,1192.67v-80.16c0-16.19,10-27.75,25.44-27.75s25.43,11.56,25.43,27.75v80.16a1.45,1.45,0,0,1-1.54,1.54h-6.16a1.46,1.46,0,0,1-1.55-1.54v-80.16c0-11.41-6.32-19.12-16.18-19.12s-16.19,7.71-16.19,19.12v80.16a1.46,1.46,0,0,1-1.54,1.54h-6.17A1.46,1.46,0,0,1,660.19,1192.67Z" transform="translate(0.41 -484.28)"/><path class="cls-2" d="M728.17,1168v-55.49c0-15,10.33-26.52,25.13-26.52h16a1.46,1.46,0,0,1,1.54,1.54v5.55a1.45,1.45,0,0,1-1.54,1.54h-16c-9.4,0-15.88,7.71-15.88,17.89v22.66h28.22a1.45,1.45,0,0,1,1.54,1.54v5.55a1.46,1.46,0,0,1-1.54,1.54H737.42V1168c0,10.18,6.48,17.89,15.88,17.89h16a1.45,1.45,0,0,1,1.54,1.54V1193a1.46,1.46,0,0,1-1.54,1.54h-16C738.5,1194.52,728.17,1183,728.17,1168Z" transform="translate(0.41 -484.28)"/><path class="cls-2" d="M783.67,1167.7v-55c0-16.49,10.17-27.9,25.9-27.9,15.11,0,25,11.25,25.59,26.2a1.46,1.46,0,0,1-1.54,1.55h-6.17a1.39,1.39,0,0,1-1.54-1.55c-.62-10.17-6.63-17.57-16.34-17.57-10.33,0-16.65,7.71-16.65,19.42v54.89c0,11.71,6.94,19.42,17,19.42s17-7.71,17-17.88v-23.9H812.34a1.45,1.45,0,0,1-1.54-1.54v-5.55a1.46,1.46,0,0,1,1.54-1.54h19.12c2.93,0,4.62,1.7,4.62,4.62v27.91c0,15-10.79,26.51-26.2,26.51S783.67,1184.19,783.67,1167.7Z" transform="translate(0.41 -484.28)"/><path class="cls-2" d="M849.65,1167.08v-53.65c0-17,10.79-28.52,26.21-28.52s26.2,11.56,26.2,27v56.73c0,15.42-10.79,27-26.2,27S849.65,1184,849.65,1167.08Zm43.16,1.54v-56.73c0-10.64-6.93-18.35-16.95-18.35s-17,7.71-17,19.89v53.65c0,12.18,6.94,19.89,17,19.89S892.81,1179.26,892.81,1168.62Z" transform="translate(0.41 -484.28)"/><path class="cls-2" d="M917.17,1169.24v-58c0-15.88,10-26.51,25.13-26.51,14.49,0,24.66,11.41,25.13,28.52a1.46,1.46,0,0,1-1.55,1.54h-6.16a1.38,1.38,0,0,1-1.54-1.54c-.47-12.8-6.63-19.89-15.88-19.89-10,0-15.88,6.63-15.88,17.88v58c0,11.25,5.86,17.88,15.88,17.88,10.17,0,16.34-7.71,16.65-20.66a1.38,1.38,0,0,1,1.54-1.54h6.16c.93,0,1.55.46,1.55,1.39-.47,17.73-10.79,29.44-25.9,29.44S917.17,1185.12,917.17,1169.24Z" transform="translate(0.41 -484.28)"/><path class="cls-2" d="M985,1086.3h6.17a1.46,1.46,0,0,1,1.54,1.54v104.83a1.46,1.46,0,0,1-1.54,1.54H985a1.45,1.45,0,0,1-1.54-1.54V1087.84A1.45,1.45,0,0,1,985,1086.3Z" transform="translate(0.41 -484.28)"/><path class="cls-2" d="M1011.05,1167.08v-53.65c0-17,10.79-28.52,26.21-28.52s26.21,11.56,26.21,27v56.73c0,15.42-10.8,27-26.21,27S1011.05,1184,1011.05,1167.08Zm43.17,1.54v-56.73c0-10.64-6.94-18.35-17-18.35s-17,7.71-17,19.89v53.65c0,12.18,6.94,19.89,17,19.89S1054.22,1179.26,1054.22,1168.62Z" transform="translate(0.41 -484.28)"/><path class="cls-2" d="M1075.65,1129v-35c0-7.06,4.17-12.1,10.89-12.1s11,5,11,12.1v7.27c0,6.39-4.31,10.83-11,10.83h-6.86V1129a.64.64,0,0,1-.67.67h-2.69A.64.64,0,0,1,1075.65,1129Zm10.89-20.65c4.17,0,6.93-2.76,6.93-7.06V1094c0-5-2.69-8.34-6.93-8.34s-6.86,3.37-6.86,8.34v14.33Z" transform="translate(0.41 -484.28)"/><path class="cls-2" d="M1103.83,1129v-34.91c0-7.26,4.44-12.11,11.1-12.11s11.09,4.85,11.09,12.11V1129a.64.64,0,0,1-.67.67h-2.69a.64.64,0,0,1-.67-.67v-16.41h-14.13V1129a.64.64,0,0,1-.67.67h-2.69A.64.64,0,0,1,1103.83,1129Zm18.16-20.18v-14.73c0-5.25-2.56-8.34-7.06-8.34s-7.07,3.09-7.07,8.34v14.73Z" transform="translate(0.41 -484.28)"/><path class="cls-2" d="M1134.36,1129v-35c0-7.06,4.51-12.1,11-12.1s11,5,11,12.1v5c0,5.58-2.9,9.48-6.8,11.1l7.74,18.77a.53.53,0,0,1-.54.8h-3a.7.7,0,0,1-.74-.54l-7.26-18.22h-7.47V1129a.64.64,0,0,1-.67.67H1135A.64.64,0,0,1,1134.36,1129Zm11-21.86c4.24,0,7.06-3.36,7.06-8.14v-5c0-5-2.82-8.34-7-8.34s-7,3.37-7,8.34v13.12Z" transform="translate(0.41 -484.28)"/><path class="cls-2" d="M1163.89,1129v-34.91c0-7.26,4.44-12.11,11.1-12.11s11.1,4.85,11.1,12.11V1129a.64.64,0,0,1-.67.67h-2.7a.64.64,0,0,1-.67-.67v-16.41h-14.12V1129a.64.64,0,0,1-.68.67h-2.69A.64.64,0,0,1,1163.89,1129Zm18.16-20.18v-14.73c0-5.25-2.55-8.34-7.06-8.34s-7.06,3.09-7.06,8.34v14.73Z" transform="translate(0.41 -484.28)"/><path class="cls-2" d="M1146.67,1180.7v-24.22c0-6.52,4.51-11.56,11-11.56h7a.62.62,0,0,1,.67.67V1148a.63.63,0,0,1-.67.67h-7c-4.11,0-6.93,3.36-6.93,7.8v9.89H1163a.64.64,0,0,1,.67.67v2.43a.64.64,0,0,1-.67.67h-12.31v10.56c0,4.44,2.82,7.8,6.93,7.8h7a.63.63,0,0,1,.67.67v2.42a.63.63,0,0,1-.67.68h-7C1151.18,1192.27,1146.67,1187.22,1146.67,1180.7Z" transform="translate(0.41 -484.28)"/><path class="cls-2" d="M1188.58,1188.5a.64.64,0,0,1,.67.67v2.42a.64.64,0,0,1-.67.68h-6.06c-6.45,0-10.76-5-10.76-11.5v-35a.64.64,0,0,1,.67-.67h2.69a.64.64,0,0,1,.68.67v35c0,4.37,2.69,7.73,6.72,7.73Z" transform="translate(0.41 -484.28)"/><path class="cls-1" d="M993.06,1231.68c11.55,14,23.66,27.49,37.51,38.85a119.3,119.3,0,0,0,22.25,14.59,68.21,68.21,0,0,0,25,7.24,54.83,54.83,0,0,0,25.47-4c8.12-3.22,15.5-8.26,22.22-14.06a120.21,120.21,0,0,0,9.5-9.39q4.53-5,8.56-10.38a168.94,168.94,0,0,0,14.55-22.81,132.4,132.4,0,0,1-12.54,24.22,120,120,0,0,1-17.44,21.25,79,79,0,0,1-23,15.55,59,59,0,0,1-27.66,4.64,71.79,71.79,0,0,1-26.78-8,100.46,100.46,0,0,1-11.83-7.26c-.95-.65-1.89-1.31-2.8-2l-2.74-2.09c-1.77-1.47-3.55-2.93-5.26-4.46C1014.33,1261.28,1002.94,1246.88,993.06,1231.68Z" transform="translate(0.41 -484.28)"/><path class="cls-1" d="M985.31,1272.59l1.77-23.26,1.86-23.24L989,1225l1.05.32,9.22,2.77c1.54.46,3.06,1,4.59,1.46s3,1,4.56,1.51c3,1,6.07,2.09,9.08,3.21s6,2.22,9,3.44l-.06.19c-3.14-.73-6.25-1.54-9.34-2.39s-6.19-1.72-9.27-2.62c-1.54-.45-3.07-.92-4.6-1.4s-3.07-.94-4.59-1.45l-9.13-3.06,1.14-.75-2.54,23.18-2.63,23.18Z" transform="translate(0.41 -484.28)"/></svg>