<?xml version="1.0" encoding="utf-8"?>
<!-- Generator: Adobe Illustrator 24.0.0, SVG Export Plug-In . SVG Version: 6.00 Build 0)  -->
<svg version="1.1" id="Capa_1" xmlns="http://www.w3.org/2000/svg" xmlns:xlink="http://www.w3.org/1999/xlink" x="0px" y="0px"
	 viewBox="0 0 1193.2 1412.1" style="enable-background:new 0 0 1193.2 1412.1;" xml:space="preserve">
<style type="text/css">
	.st0{fill:#FFFFFF;}
</style>
<g id="LogoTipo">
	<title>LogoTipoEN</title>
	<g>
		<path class="st0" d="M145,497.6v-120l-65.3-13.9V499l0,0c0,1.9,0,3.8,0.2,5.6h65.4C145.2,502.3,145,499.9,145,497.6z"/>
		<path class="st0" d="M239.3,423.5c30.3,7.4,53,32.5,57.4,63.4l65.9,13.8c0-1,0-2.1,0-3.1c0-65.9-45.5-123.1-109.8-137.9
			L239.3,423.5z"/>
		<path class="st0" d="M221.2,421.3c3.7,0,7.5,0.3,11.1,0.8l13.6-63.9c-8.2-1.5-16.4-2.2-24.7-2.2c-23.6,0-52.4,8-68.9,18.2v90.1
			C165,438,191.8,421.2,221.2,421.3z"/>
		<polygon class="st0" points="145,370.3 145,248.3 79.8,204 79.8,356.4 		"/>
		<path class="st0" d="M297.3,494.3c0,1.1,0,2.1,0,3.3c0,42.1-34.1,76.2-76.2,76.2c-1.1,0-2.2,0-3.3,0l13.5,64.9
			c70-5.1,125.8-60.8,130.9-130.8L297.3,494.3z"/>
		<path class="st0" d="M210.5,573c-32.2-4.6-58-29.1-64.2-61.1H80.5C87.9,584.1,148.6,639,221.2,639h3.1L210.5,573z"/>
		<ellipse class="st0" cx="46.9" cy="363.7" rx="32.8" ry="10.9"/>
		<path class="st0" d="M126.6,888c0-8.7,7.1-15.8,15.8-15.8c0.3,0,0.6,0,0.9,0h10.6V865c0.5-5.5-3.5-10.4-9-10.9
			c-0.4,0-0.8-0.1-1.2,0c-5.4-0.1-9.8,4.2-9.9,9.6c0,0.2,0,0.3,0,0.5c0,0.8-0.4,1.1-1.1,1.1h-4.1c-0.6,0-1.1-0.4-1.1-1v-0.1
			c0.6-9.2,6.7-16.1,16.1-16.1c8.8-0.3,16.2,6.7,16.5,15.5c0,0.5,0,1,0,1.4v22.8c0.5,8.8-6.2,16.4-15.1,16.9c-0.5,0-1,0-1.5,0
			c-8.9,0.4-16.5-6.5-16.9-15.5C126.5,888.9,126.5,888.4,126.6,888z M153.8,888v-9.7h-10.6c-5.3-0.4-10,3.6-10.4,9
			c0,0.3,0,0.5,0,0.8c-0.5,5.6,3.7,10.4,9.2,10.9c0.5,0,0.9,0,1.4,0c5.5,0.2,10.1-4,10.4-9.5C153.8,888.9,153.8,888.4,153.8,888
			L153.8,888z"/>
		<path class="st0" d="M170.9,902.8v-37.5c-0.6-8.9,6.1-16.6,15-17.2c0.4,0,0.9,0,1.3,0c8.9-0.1,16.2,7,16.3,15.9c0,0.4,0,0.9,0,1.3
			v37.5c0,0.6-0.4,1.1-1,1.1h-0.1h-4.1c-0.6,0-1-0.4-1.1-0.9c0-0.1,0-0.1,0-0.2v-37.5c0-6.7-3.8-11.3-10.1-11.3
			c-6.2,0-10.1,4.6-10.1,11.3v37.5c0.1,0.6-0.4,1.1-0.9,1.1c-0.1,0-0.1,0-0.2,0H172C171.4,903.9,170.9,903.5,170.9,902.8
			C170.9,902.9,170.9,902.9,170.9,902.8z"/>
		<path class="st0" d="M213.7,888c0-8.7,7.1-15.8,15.8-15.8c0.3,0,0.5,0,0.8,0h10.6V865c0.5-5.5-3.5-10.4-9-10.9
			c-0.4,0-0.9-0.1-1.3,0c-5.8,0-9.4,4.1-9.8,10.1c0,0.8-0.5,1.1-1.1,1.1h-4.1c-0.6,0-1.1-0.4-1.1-1v-0.1c0.5-9.2,6.7-16.1,16.1-16.1
			c8.8-0.3,16.2,6.6,16.5,15.5c0,0.5,0,1,0,1.5v22.8c0.5,8.9-6.3,16.4-15.1,16.9c-0.5,0-1,0-1.5,0c-8.9,0.4-16.4-6.6-16.8-15.5
			C213.6,888.9,213.6,888.4,213.7,888z M240.9,888v-9.7h-10.6c-5.3-0.4-10,3.6-10.3,8.9c0,0.3,0,0.5,0,0.8
			c-0.5,5.5,3.6,10.4,9.2,10.9c0.5,0,1,0,1.5,0c5.5,0.2,10.2-4,10.4-9.5C241,888.9,240.9,888.4,240.9,888z"/>
		<path class="st0" d="M259.2,902.8v-74.3c0-0.6,0.4-1,0.9-1.1h0.1h4.1c0.6,0,1.1,0.4,1.1,1v0.1v74.3c0,0.6-0.4,1.1-1,1.1h-0.1h-4.1
			c-0.6,0-1-0.4-1.1-0.9C259.2,902.9,259.2,902.9,259.2,902.8z"/>
		<path class="st0" d="M311.5,850.4v59.4c0.7,8.8-6,16.5-14.8,17.1c-0.6,0-1.2,0.1-1.9,0c-9.5,0-16.2-6.9-16.6-17.2
			c0-0.6,0.4-1.1,1-1.1h0.1h4.1c0.5-0.1,1,0.3,1.1,0.9c0,0.1,0,0.2,0,0.2c0.2,7,4.1,11.1,10.4,11.1s10.4-4.1,10.4-11.1v-12.5
			c-2.4,3.4-6.3,5.4-10.4,5.6c-8.9,0.2-16.4-6.8-16.6-15.8c0-0.5,0-0.9,0-1.4v-35.3c0-0.6,0.4-1.1,1-1.1h0.1h4.1
			c0.6,0,1,0.4,1.1,0.9c0,0.1,0,0.1,0,0.2v35.3c-0.6,5.6,3.5,10.6,9.1,11.1c0.4,0,0.9,0.1,1.3,0c5.6,0.2,10.3-4.3,10.5-9.9
			c0-0.4,0-0.9,0-1.3v-35.3c-0.1-0.6,0.4-1.1,0.9-1.1c0.1,0,0.1,0,0.2,0h4.1c0.6,0,1.1,0.4,1.1,1
			C311.5,850.3,311.5,850.3,311.5,850.4z"/>
		<path class="st0" d="M346.1,899.2v3.8c0,0.6-0.4,1-0.9,1.1h-0.1h-1.4c-9.7,0-15.3-6.8-15.3-18.4V855h-6.8c-0.6,0-1-0.4-1.1-0.9
			V854v-3.7c-0.1-0.6,0.4-1.1,0.9-1.1c0.1,0,0.1,0,0.2,0h6.8V835c0-0.6,0.4-1.1,1-1.1h0.1h4.1c0.6,0,1.1,0.4,1.1,1v0.1v14.2h9.2
			c0.6,0,1.1,0.4,1.1,1v0.1v3.7c0,0.6-0.4,1.1-1,1.1h-0.1h-9.2v30.7c0,8.1,3.1,12.3,9.2,12.3h1.4c0.5,0,1,0.4,1,1
			C346.1,899,346.1,899.1,346.1,899.2z"/>
		<path class="st0" d="M354.5,837.9c-0.1-2.3,1.6-4.2,3.9-4.3c0.1,0,0.3,0,0.4,0c2.3-0.1,4.2,1.7,4.3,4c0,0.1,0,0.2,0,0.3
			c0,2.4-1.9,4.3-4.3,4.3l0,0c-2.3,0.1-4.2-1.7-4.3-4C354.5,838.1,354.5,838,354.5,837.9z M355.7,902.8v-52.5
			c-0.1-0.6,0.4-1.1,0.9-1.1c0.1,0,0.1,0,0.2,0h4.1c0.6,0,1.1,0.4,1.1,1v0.1v52.5c0,0.6-0.4,1.1-1,1.1h-0.1h-4.1
			c-0.6,0-1-0.4-1.1-0.9C355.7,902.9,355.7,902.9,355.7,902.8z"/>
		<path class="st0" d="M373.1,887.8v-22.5c-0.6-8.9,6.1-16.6,15-17.2c0.5,0,0.9,0,1.4,0c8.9-0.2,16.2,6.8,16.4,15.7
			c0,0.1,0,0.3,0,0.4c0,0.6-0.4,1.1-1,1.1c0,0,0,0-0.1,0h-4.1c-0.5,0.1-1-0.3-1.1-0.9c0-0.1,0-0.2,0-0.2c0.1-5.5-4.2-10-9.7-10.1
			c-0.2,0-0.3,0-0.5,0c-6.3,0-10.2,4.6-10.2,11.2v22.5c-0.6,5.6,3.5,10.6,9.1,11.1c0.4,0,0.9,0.1,1.3,0c6.1,0,10-4.5,10.4-11.2
			c-0.1-0.5,0.3-1,0.9-1.1c0.1,0,0.2,0,0.2,0h4c0.6-0.1,1.1,0.4,1.1,0.9c0,0.1,0,0.1,0,0.2c-0.6,10-7,17.2-16.6,17.2
			c-9,0.2-16.4-6.9-16.6-15.8C373,888.7,373,888.3,373.1,887.8z"/>
		<path class="st0" d="M413.2,887.8c0-0.6,0.4-1,0.9-1.1c0.1,0,0.1,0,0.2,0h4.1c0.5-0.1,1,0.3,1.1,0.9c0,0.1,0,0.1,0,0.2
			c0.3,7.5,4.1,11.2,11.3,11.2c6.6,0,9.9-3.6,9.9-8.7c0-13.2-26.8-9.2-26.8-27.3c0.1-8.2,6.8-14.8,15-14.8c0.3,0,0.5,0,0.8,0
			c10.7,0,16.1,6.4,16.5,16.1c0,0.6-0.4,1.1-1,1.1h-0.1H441c-0.5,0.1-1-0.3-1.1-0.9c0-0.1,0-0.2,0-0.2c0.3-5.3-3.8-9.8-9.1-10.1
			c-0.3,0-0.6,0-0.9,0c-4.9-0.5-9.3,3-9.8,7.9c0,0.3,0,0.6-0.1,0.8c0,12.7,26.8,8.5,26.8,27.3c-0.2,8.3-7,14.9-15.3,14.8
			c-0.2,0-0.5,0-0.7,0C420.2,904.9,413.6,898.2,413.2,887.8z"/>
		<path class="st0" d="M45,751c7.7-3.7,12.3-12.4,12.3-23.5v-8.4c0-18.2-11.7-30.4-29-30.4c-16.9,0-28.1,12.3-28.1,30.4V809
			c-0.2,3.4,2.4,6.3,5.8,6.4c0.2,0,0.4,0,0.6,0h24c17.8,0,29.7-12.3,29.7-30.7v-8.6C60.6,765.6,54.7,755.7,45,751z M44.5,727.6
			c0,11.6-6,18.2-16.3,18.2H13.1v-26.6c0-11.6,5.6-18.2,15.3-18.2c10.2,0,16.1,6.6,16.1,18.2V727.6z M13.1,758h17.5
			c10.7,0,16.8,6.7,16.8,18.4v8.6c0,11.7-6.1,18.4-16.8,18.4H13.1V758z"/>
		<path class="st0" d="M99.4,723.6c-15.1,0-26,10.8-26.9,26.9c-0.1,1.6,1.1,2.9,2.6,3.1c0.1,0,0.3,0,0.4,0H82c1.2,0,2.6-0.5,3.1-2.9
			c0.6-9.2,6.1-15,14.5-15c9.2,0,15.3,6.4,15.3,16.3v10.2h-16c-15.8,0-27.6,11.3-27.6,26.4c-0.7,14.9,10.8,27.6,25.7,28.3
			c0.8,0,1.7,0,2.5,0c16.4,0,27.8-11.6,27.8-28.3V752C127,735.2,115.7,723.6,99.4,723.6z M98.9,774.1h15.8v14.4
			c0,10-5.9,16.3-15.3,16.3s-15.8-6.1-15.8-16.3C83.6,780,89.7,774.1,98.9,774.1L98.9,774.1z"/>
		<path class="st0" d="M208.4,723.6c-8.3,0-16,4.5-20,11.8c-4.1-7.2-11.8-11.7-20.1-11.8c-15.3,0-26.2,11.8-26.2,28.7v60
			c-0.1,1.6,1.1,2.9,2.6,3.1c0.1,0,0.3,0,0.4,0h6.5c1.6,0.1,2.9-1.1,3.1-2.6c0-0.1,0-0.3,0-0.4v-60c0-10.3,5.3-16.6,13.8-16.6
			s13.8,6.4,13.8,16.6v60c-0.1,1.6,1.1,2.9,2.6,3.1c0.1,0,0.3,0,0.4,0h6.5c1.6,0.1,2.9-1.1,3.1-2.6c0-0.1,0-0.3,0-0.4v-60
			c0-10.3,5.3-16.6,13.8-16.6s13.8,6.4,13.8,16.6v60c-0.1,1.6,1.1,2.9,2.6,3.1c0.1,0,0.3,0,0.4,0h6.5c1.6,0.1,2.9-1,3.1-2.6
			c0-0.2,0-0.3,0-0.5v-60C234.6,735.4,223.8,723.6,208.4,723.6z"/>
		<path class="st0" d="M278,723.6c-5.9,0.1-11.5,2.5-15.6,6.8v-37.1c0.1-1.6-1.1-3-2.7-3.1c-0.1,0-0.3,0-0.4,0h-6.5
			c-1.6-0.1-3,1.1-3.1,2.7c0,0.1,0,0.3,0,0.4v95c0,16.9,11.5,28.7,28,28.7s28-11.8,28-28.7v-36C306,735.4,294.5,723.6,278,723.6z
			 M278,735.6c9.5,0,15.6,6.5,15.6,16.6v36c0,10.1-6.1,16.6-15.6,16.6s-15.6-6.5-15.6-16.6v-36C262.4,742.2,268.5,735.6,278,735.6
			L278,735.6z"/>
		<path class="st0" d="M347.6,723.6c-16.6,0-28.1,11.8-28.1,28.7v36c0,16.9,11.6,28.7,28.1,28.7c16.6,0,28.1-11.8,28.1-28.7v-36
			C375.6,735.4,364,723.6,347.6,723.6z M332,752.3c0-10.4,6-16.8,15.6-16.8s15.6,6.4,15.6,16.8v36c0,10.4-6.1,16.8-15.6,16.8
			s-15.6-6.4-15.6-16.8V752.3z"/>
		<path class="st0" d="M417,723.6c-16.6,0-28.1,11.8-28.1,28.7v36c0,16.9,11.6,28.7,28.1,28.7c16.6,0,28.1-11.8,28.1-28.7v-36
			C445.2,735.4,433.5,723.6,417,723.6z M401.5,752.3c0-10.4,6.1-16.8,15.6-16.8s15.6,6.4,15.6,16.8v36c0,10.4-6.1,16.8-15.6,16.8
			s-15.6-6.4-15.6-16.8V752.3z"/>
		<rect x="515.7" class="st0" width="10.7" height="1166.8"/>
		<g id="Capa_5">
			<path class="st0" d="M618.1,562.8c-0.1-0.9,0.6-1.6,1.5-1.7c0.1,0,0.1,0,0.2,0h6.8c0.9-0.1,1.6,0.6,1.7,1.5c0,0.1,0,0.1,0,0.2
				c0.5,14.9,6.8,22.7,18.4,22.7c11.6,0,18-6.1,18-17.8c0-29.1-45.7-35.5-45.7-68.6c0-15.8,10.9-26.4,27.3-26.4
				c15.3,0,26.2,12.6,27,31.5c0.1,0.9-0.6,1.6-1.5,1.7c-0.1,0-0.1,0-0.2,0h-6.8c-0.9,0.1-1.6-0.6-1.7-1.5c0-0.1,0-0.1,0-0.2
				c-0.7-15-6.6-21.9-16.8-21.9c-11.2,0-17.2,5.8-17.2,16.9c0,27.3,45.7,33.8,45.7,68.6c0,16.5-11.2,27.3-28.2,27.3
				C629.7,595.1,618.6,582.2,618.1,562.8z"/>
			<path class="st0" d="M689.3,563.5v-59.1c0-18.7,11.9-31.4,28.9-31.4s28.9,12.7,28.9,29.7v62.5c0,17-11.9,29.7-28.9,29.7
				S689.3,582.2,689.3,563.5z M736.9,565.2v-62.5c0-11.7-7.6-20.2-18.7-20.2c-11,0-18.7,8.5-18.7,21.9v59.1
				c0,13.4,7.6,21.9,18.7,21.9C729.2,585.4,736.9,576.9,736.9,565.2z"/>
			<path class="st0" d="M808.4,584.2c0.9-0.1,1.6,0.6,1.7,1.5c0,0.1,0,0.1,0,0.2v6.1c0.1,0.9-0.6,1.6-1.5,1.7c-0.1,0-0.1,0-0.2,0
				h-15.3c-16.3,0-27.2-12.7-27.2-29.1v-88.5c-0.1-0.9,0.6-1.6,1.5-1.7c0.1,0,0.1,0,0.2,0h6.8c0.9-0.1,1.6,0.6,1.7,1.5
				c0,0.1,0,0.1,0,0.2v88.5c0,11,6.8,19.6,17,19.6H808.4z"/>
			<path class="st0" d="M827.9,474.4c0.9-0.1,1.6,0.6,1.7,1.5c0,0.1,0,0.1,0,0.2v88.4c0,12.6,7,21.1,17.8,21.1
				c10.9,0,17.8-8.5,17.8-21.1v-88.4c-0.1-0.9,0.6-1.6,1.5-1.7c0.1,0,0.1,0,0.2,0h6.8c0.9-0.1,1.6,0.6,1.7,1.5c0,0.1,0,0.1,0,0.2
				v88.4c0,17.8-11,30.7-28,30.7s-28-12.7-28-30.7v-88.4c-0.1-0.9,0.6-1.6,1.5-1.7c0.1,0,0.1,0,0.2,0H827.9z"/>
			<path class="st0" d="M943,476.1v6.1c0.1,0.9-0.6,1.6-1.5,1.7c-0.1,0-0.1,0-0.2,0H921v107.9c0.1,0.9-0.6,1.6-1.5,1.7
				c-0.1,0-0.1,0-0.2,0h-6.9c-0.9,0.1-1.6-0.6-1.7-1.5c0-0.1,0-0.1,0-0.2V484.1h-20.4c-0.9,0.1-1.6-0.6-1.7-1.5c0-0.1,0-0.1,0-0.2
				v-6.1c-0.1-0.9,0.6-1.6,1.5-1.7c0.1,0,0.1,0,0.2,0h51c0.9-0.1,1.7,0.5,1.8,1.4C943,476,943,476.1,943,476.1z"/>
			<path class="st0" d="M958.4,474.4h6.8c0.9-0.1,1.6,0.6,1.7,1.5c0,0.1,0,0.1,0,0.2v115.7c0.1,0.9-0.6,1.6-1.5,1.7
				c-0.1,0-0.1,0-0.2,0h-6.8c-0.9,0.1-1.6-0.6-1.7-1.5c0-0.1,0-0.1,0-0.2V476.1c-0.1-0.9,0.6-1.6,1.5-1.7
				C958.2,474.4,958.3,474.4,958.4,474.4z"/>
			<path class="st0" d="M987.2,563.5v-59.1c0-18.7,11.9-31.4,28.9-31.4c17,0,28.9,12.7,28.9,29.7v62.5c0,17-11.9,29.7-28.9,29.7
				S987.2,582.2,987.2,563.5z M1034.8,565.2v-62.5c0-11.7-7.6-20.2-18.7-20.2c-11,0-18.7,8.5-18.7,21.9v59.1
				c0,13.4,7.6,21.9,18.7,21.9C1027.1,585.4,1034.8,576.9,1034.8,565.2z"/>
			<path class="st0" d="M1063.8,591.8v-88.4c0-17.8,11-30.7,28-30.7s28.1,12.8,28.1,30.7v88.4c0.1,0.9-0.6,1.6-1.5,1.7
				c-0.1,0-0.1,0-0.2,0h-6.8c-0.9,0.1-1.6-0.6-1.7-1.5c0-0.1,0-0.1,0-0.2v-88.4c0-12.6-7-21.1-17.9-21.1s-17.8,8.5-17.8,21.1v88.4
				c0.1,0.9-0.6,1.6-1.5,1.7c-0.1,0-0.1,0-0.2,0h-6.8c-0.9,0.1-1.6-0.6-1.7-1.5C1063.8,592,1063.8,591.9,1063.8,591.8z"/>
			<path class="st0" d="M1136.6,562.8c-0.1-0.9,0.6-1.6,1.5-1.7c0.1,0,0.1,0,0.2,0h6.8c0.9-0.1,1.6,0.6,1.7,1.5c0,0.1,0,0.2,0,0.3
				c0.5,14.9,6.8,22.7,18.4,22.7s18-6.1,18-17.8c0-29.1-45.7-35.5-45.7-68.6c0-15.8,10.9-26.4,27.4-26.4c15.3,0,26.2,12.6,27,31.5
				c0.1,0.9-0.6,1.6-1.5,1.7c-0.1,0-0.1,0-0.2,0h-6.8c-0.9,0.1-1.6-0.6-1.7-1.5c0-0.1,0-0.1,0-0.2c-0.7-15-6.6-21.9-16.8-21.9
				c-11.2,0-17.2,5.8-17.2,16.9c0,27.3,45.7,33.8,45.7,68.6c0,16.5-11.2,27.3-28.2,27.3C1148.2,595.1,1137.1,582.2,1136.6,562.8z"/>
			<path class="st0" d="M634.6,408.3v2.4c0,0.4-0.3,0.7-0.6,0.7c0,0,0,0-0.1,0h-8.1v42.8c0,0.4-0.3,0.7-0.6,0.7c0,0,0,0-0.1,0h-2.7
				c-0.3,0-0.6-0.2-0.7-0.5v-0.1v-42.8h-8.1c-0.3,0-0.6-0.2-0.7-0.5v-0.1v-2.4c0-0.3,0.2-0.6,0.5-0.7h0.1h20.3
				C634.3,407.6,634.6,407.8,634.6,408.3C634.6,408.2,634.6,408.2,634.6,408.3z"/>
			<path class="st0" d="M637.5,443.4v-24.3c-0.3-6.1,4.3-11.3,10.4-11.6c0.2,0,0.4,0,0.6,0h7c0.4,0,0.7,0.3,0.7,0.6c0,0,0,0,0,0.1
				v2.5c0,0.4-0.3,0.7-0.6,0.7c0,0,0,0-0.1,0h-7c-4,0.1-7.1,3.4-7,7.4c0,0.2,0,0.3,0,0.5v9.9h12.3c0.4,0,0.7,0.3,0.7,0.6
				c0,0,0,0,0,0.1v2.5c0,0.4-0.3,0.7-0.6,0.7c0,0,0,0-0.1,0h-12.3v10.6c-0.4,4,2.6,7.4,6.5,7.8c0.2,0,0.3,0,0.5,0h7
				c0.4,0,0.7,0.3,0.7,0.6c0,0,0,0,0,0.1v2.4c0,0.3-0.2,0.6-0.5,0.7h-0.1h-7c-6.1,0-11-4.9-11-10.9
				C637.5,443.8,637.5,443.6,637.5,443.4z"/>
			<path class="st0" d="M661.8,443.9v-25.4c-0.5-5.9,3.9-11.1,9.8-11.6c0.4,0,0.8,0,1.2,0c6.4,0,10.8,5,11,12.5
				c0,0.3-0.2,0.6-0.5,0.7h-0.1h-2.7c-0.3,0-0.6-0.2-0.7-0.5v-0.1c-0.2-5.6-2.9-8.7-6.9-8.7c-4.1,0-7,2.9-7,7.8V444
				c0,4.9,2.6,7.8,7,7.8s7.2-3.4,7.3-9.1c0-0.3,0.2-0.6,0.5-0.7h0.1h2.7c0.4,0,0.7,0.2,0.7,0.6c-0.2,7.8-4.7,12.9-11.3,12.9
				c-5.9,0.2-10.9-4.4-11.1-10.4C661.8,444.8,661.8,444.3,661.8,443.9z"/>
			<path class="st0" d="M709.1,407.7h2.7c0.4,0,0.7,0.3,0.7,0.6c0,0,0,0,0,0.1v46c0,0.4-0.3,0.7-0.6,0.7c0,0,0,0-0.1,0h-2.7
				c-0.4,0-0.7-0.3-0.7-0.6c0,0,0,0,0-0.1v-21.5h-13.5v21.5c0,0.4-0.3,0.7-0.6,0.7c0,0,0,0-0.1,0h-2.7c-0.4,0-0.7-0.3-0.7-0.6
				c0,0,0,0,0-0.1v-46c0-0.4,0.3-0.7,0.6-0.7c0,0,0,0,0.1,0h2.7c0.4,0,0.7,0.3,0.7,0.6c0,0,0,0,0,0.1v20.7h13.5v-20.7
				C708.4,408,708.7,407.7,709.1,407.7C709,407.7,709.1,407.7,709.1,407.7z"/>
			<path class="st0" d="M721.4,454.2v-35.1c0-7.1,4.4-12.3,11.1-12.3s11.1,5.1,11.1,12.3v35.1c0,0.4-0.3,0.7-0.6,0.7c0,0,0,0-0.1,0
				h-2.5c-0.3,0-0.6-0.2-0.7-0.5v-0.1v-35.1c0-5-2.8-8.4-7.1-8.4s-7.1,3.4-7.1,8.4v35.1c0,0.4-0.3,0.7-0.6,0.7c0,0,0,0-0.1,0H722
				C721.7,454.9,721.4,454.6,721.4,454.2L721.4,454.2z"/>
			<path class="st0" d="M751.2,443v-23.5c-0.6-6.3,4.1-11.9,10.4-12.4c0.4,0,0.7,0,1.1,0c6.2-0.1,11.4,4.8,11.5,11
				c0,0.3,0,0.5,0,0.8v24.9c0.3,6.2-4.5,11.5-10.7,11.8c-0.3,0-0.5,0-0.8,0c-6.3,0-11.5-5-11.5-11.4
				C751.1,443.7,751.1,443.4,751.2,443z M770.1,443.7v-24.9c0.3-4.1-2.7-7.7-6.9-8c-0.2,0-0.4,0-0.6,0c-4.4,0-7.4,3.4-7.4,8.7V443
				c0,5.3,3.1,8.7,7.4,8.7c4.1,0,7.5-3.3,7.5-7.5C770.1,444,770.1,443.8,770.1,443.7z"/>
			<path class="st0" d="M798.5,451.2c0.4,0,0.7,0.3,0.7,0.6c0,0,0,0,0,0.1v2.4c0,0.3-0.2,0.6-0.5,0.7h-0.1h-6.1
				c-6,0-10.8-4.8-10.8-10.8c0-0.3,0-0.5,0-0.8v-35.2c0-0.4,0.3-0.7,0.6-0.7c0,0,0,0,0.1,0h2.7c0.4,0,0.7,0.3,0.7,0.6c0,0,0,0,0,0.1
				v35.2c-0.4,3.9,2.4,7.3,6.3,7.7c0.1,0,0.3,0,0.4,0L798.5,451.2L798.5,451.2z"/>
			<path class="st0" d="M801.8,443v-23.5c-0.6-6.3,4.1-11.9,10.4-12.4c0.4,0,0.7,0,1.1,0c6.2-0.1,11.4,4.8,11.5,11
				c0,0.3,0,0.5,0,0.8v24.9c0.3,6.2-4.5,11.5-10.7,11.8c-0.3,0-0.5,0-0.8,0c-6.3,0-11.5-5-11.5-11.4
				C801.8,443.7,801.8,443.4,801.8,443z M820.7,443.7v-24.9c0.3-4.1-2.7-7.7-6.9-8c-0.2,0-0.4,0-0.6,0c-4.4,0-7.4,3.4-7.4,8.7V443
				c0,5.3,3.1,8.7,7.4,8.7c4.1,0,7.5-3.3,7.5-7.4C820.9,444.1,820.8,443.9,820.7,443.7L820.7,443.7z"/>
			<path class="st0" d="M831.5,443.3v-24.1c0-7.2,4.5-12.3,11.3-12.3c6.1-0.1,11.2,4.8,11.2,11c0,0.2,0,0.3,0,0.5
				c0,0.4-0.3,0.7-0.6,0.7c0,0,0,0-0.1,0h-2.7c-0.3,0-0.6-0.2-0.7-0.5v-0.1c0.2-4-2.9-7.5-7-7.7c-0.1,0-0.2,0-0.2,0
				c-4.5,0-7.3,3.4-7.3,8.5v24.1c-0.5,4.2,2.4,7.9,6.6,8.4c0.3,0,0.5,0.1,0.8,0.1c4.1,0,7.4-3.3,7.4-7.4c0-0.2,0-0.3,0-0.5v-10.5
				h-6.4c-0.4,0-0.7-0.3-0.7-0.6c0,0,0,0,0-0.1v-2.5c0-0.4,0.3-0.7,0.6-0.7c0,0,0,0,0.1,0h8.4c1-0.1,1.9,0.6,2,1.6
				c0,0.1,0,0.3,0,0.4v12.3c0.2,6.2-4.6,11.4-10.8,11.6c-0.2,0-0.5,0-0.7,0c-6.3,0.1-11.4-5-11.5-11.3
				C831.5,443.9,831.5,443.6,831.5,443.3z"/>
			<path class="st0" d="M862.5,407.7h2.7c0.3,0,0.6,0.2,0.7,0.5v0.1v46c0,0.3-0.2,0.6-0.5,0.7h-0.1h-2.7c-0.4,0-0.7-0.2-0.7-0.6
				v-0.1v-46C861.8,408,862.1,407.7,862.5,407.7C862.4,407.7,862.5,407.7,862.5,407.7z"/>
			<path class="st0" d="M873.9,443.9v-25.4c-0.5-5.9,3.9-11.1,9.8-11.6c0.4,0,0.8,0,1.2,0c6.4,0,10.8,5,11,12.5
				c0,0.4-0.3,0.7-0.6,0.7c0,0,0,0-0.1,0h-2.7c-0.3,0-0.6-0.2-0.7-0.5v-0.1c-0.2-5.6-2.9-8.7-7-8.7s-7,2.9-7,7.8V444
				c0,4.9,2.6,7.8,7,7.8s7.2-3.4,7.3-9.1c0-0.3,0.2-0.6,0.5-0.7h0.1h2.7c0.3-0.1,0.6,0.2,0.7,0.5v0.1c-0.2,7.8-4.7,12.9-11.4,12.9
				c-5.9,0.2-10.9-4.4-11.1-10.4C873.9,444.8,873.9,444.3,873.9,443.9z"/>
			<path class="st0" d="M902.4,454.2v-35.1c0-7.3,4.5-12.3,11.1-12.3c6.7,0,11.1,4.8,11.1,12.3v35.1c0,0.4-0.3,0.7-0.6,0.7
				c0,0,0,0-0.1,0h-2.7c-0.3,0-0.6-0.2-0.7-0.5v-0.1v-16.5h-14.2v16.5c0,0.4-0.3,0.7-0.6,0.7c0,0,0,0-0.1,0h-2.7
				c-0.3,0.1-0.6-0.2-0.7-0.5C902.4,454.3,902.4,454.2,902.4,454.2z M920.6,433.9v-14.8c0-5.3-2.6-8.4-7.1-8.4s-7.1,3.1-7.1,8.4
				v14.8H920.6z"/>
			<path class="st0" d="M950,451.2c0.3,0,0.6,0.2,0.6,0.6v0.1v2.4c0,0.3-0.2,0.6-0.5,0.7H950h-6.1c-6,0-10.8-4.8-10.8-10.8
				c0-0.3,0-0.5,0-0.8v-35.2c0-0.4,0.3-0.7,0.6-0.7c0,0,0,0,0.1,0h2.7c0.3,0,0.6,0.2,0.7,0.5v0.1v35.2c-0.4,3.9,2.4,7.3,6.3,7.7
				c0.1,0,0.3,0,0.4,0h6.1V451.2z"/>
			<path class="st0" d="M657.1,712h-27.8c-4.8,0.3-8.9-3.5-9.2-8.3c0-0.2,0-0.3,0-0.5v-4.7c0-0.3,0.2-0.5,0.5-0.6c0,0,0,0,0.1,0h1.9
				c0.3,0,0.5,0.2,0.6,0.5c0,0,0,0,0,0.1v4.7c0.1,3.2,2.7,5.6,5.9,5.5c0.1,0,0.2,0,0.3,0h8.3v-9.2c0-0.3,0.2-0.5,0.5-0.6l0,0h1.9
				c0.3,0,0.5,0.2,0.6,0.5c0,0,0,0,0,0.1v9.2H657c0.3,0,0.5,0.2,0.5,0.5l0,0v2.1C657.6,711.8,657.4,712,657.1,712z"/>
			<path class="st0" d="M657.1,693.7h-27.9c-4.9,0.4-9.2-3.2-9.6-8.1c0-0.2,0-0.5,0-0.7c0-4.9,4-8.9,8.9-8.8c0.2,0,0.5,0,0.7,0h4
				c3.8-0.2,7.3,2,8.8,5.4l15-6.1c0.4-0.2,0.6,0,0.6,0.4v2.4c0,0.3-0.2,0.5-0.4,0.6l-14.5,5.8v6h14.5c0.3,0,0.5,0.2,0.5,0.5
				c0,0,0,0,0,0.1v2.1C657.6,693.5,657.4,693.7,657.1,693.7z M639.6,684.9c-0.1-3.2-2.7-5.7-5.9-5.7c-0.2,0-0.4,0-0.6,0h-4
				c-3.2-0.4-6.2,1.8-6.6,5.1c0,0.2,0,0.3,0,0.5c0.1,3.3,2.9,5.8,6.1,5.6c0.2,0,0.3,0,0.5,0h10.5V684.9z"/>
			<path class="st0" d="M648.1,670.8h-18.7c-5.1,0.4-9.5-3.4-9.9-8.4c0-0.3,0-0.5,0-0.8c-0.2-4.9,3.7-9.1,8.6-9.2c0.3,0,0.5,0,0.8,0
				h19.8c4.9-0.3,9.1,3.5,9.4,8.5c0,0.3,0,0.5,0,0.8c0,5.1-4.1,9.2-9.2,9.2C648.7,670.9,648.4,670.8,648.1,670.8z M648.7,655.8
				h-19.8c-3.3-0.3-6.1,2.2-6.4,5.4c0,0.1,0,0.3,0,0.4c0.1,3.4,2.9,6.1,6.3,6c0.2,0,0.4,0,0.6-0.1h18.7c3.4,0.4,6.4-1.9,6.9-5.3
				c0-0.2,0-0.4,0.1-0.6c0-3.3-2.7-5.9-5.9-5.9C649,655.8,648.8,655.8,648.7,655.8L648.7,655.8z"/>
			<path class="st0" d="M629.3,616.4h27.8c0.3,0,0.5,0.2,0.5,0.5l0,0v2.1c0,0.3-0.2,0.5-0.5,0.5c0,0,0,0-0.1,0h-27.8
				c-4.4,0-6.8,1.8-6.8,5.1s2.4,5.1,6.8,5.1H657c0.3,0,0.5,0.2,0.5,0.5c0,0,0,0,0,0.1v2.1c0,0.3-0.2,0.5-0.5,0.6l0,0h-27.8
				c-4.4,0-6.8,2.1-6.8,5.1c0,2.9,2.4,5.1,6.8,5.1H657c0.3,0,0.5,0.2,0.5,0.5c0,0,0,0,0,0.1v2.1c0,0.3-0.2,0.5-0.5,0.6l0,0h-27.8
				c-6.1,0-9.8-3.1-9.8-8.3c0-3,1.7-5.6,4.5-6.7c-2.7-1.1-4.5-3.8-4.5-6.7C619.5,619.7,623.3,616.4,629.3,616.4z"/>
			<path class="st0" d="M1191.9,629h-1.7c-0.2,0-0.4-0.2-0.5-0.4c0,0,0,0,0-0.1v-5.6h-29.8c-0.2,0-0.4-0.2-0.5-0.4c0,0,0,0,0-0.1
				v-1.9c0-0.2,0.2-0.4,0.4-0.5c0,0,0,0,0.1,0h29.8v-5.6c0-0.2,0.2-0.4,0.4-0.5c0,0,0,0,0.1,0h1.7c0.2,0,0.4,0.2,0.5,0.4
				c0,0,0,0,0,0.1v14.1C1192.4,628.7,1192.2,628.9,1191.9,629C1192,629,1191.9,629,1191.9,629z"/>
			<path class="st0" d="M1167.8,631h16.4c4.4-0.4,8.3,2.9,8.7,7.2c0,0.2,0,0.5,0,0.7c0.1,4.3-3.4,7.9-7.7,8c-0.2,0-0.4,0-0.5,0
				h-17.3c-4.3,0.2-8-3.1-8.2-7.5c0-0.2,0-0.4,0-0.5c0-4.4,3.5-8,7.9-8C1167.3,630.9,1167.5,631,1167.8,631z M1167.3,644.1h17.3
				c2.9,0.2,5.4-1.9,5.6-4.8c0-0.1,0-0.3,0-0.4c0-2.9-2.5-5.3-5.4-5.2c-0.2,0-0.5,0-0.7,0.1h-16.4c-3.7,0-6.1,2.1-6.1,5.2
				c0.1,2.9,2.4,5.1,5.3,5.1c0.2,0,0.3,0,0.5,0L1167.3,644.1z"/>
			<path class="st0" d="M1191.9,678.9h-1.7c-0.2,0-0.4-0.2-0.5-0.4c0,0,0,0,0-0.1v-5.6H1160c-0.2,0-0.5-0.1-0.5-0.4v-0.1v-1.9
				c0-0.3,0.2-0.5,0.4-0.5c0,0,0,0,0.1,0h29.8v-5.6c0-0.2,0.1-0.5,0.4-0.5h0.1h1.7c0.3,0,0.5,0.2,0.5,0.4c0,0,0,0,0,0.1v14.1
				C1192.4,678.7,1192.2,678.9,1191.9,678.9L1191.9,678.9z"/>
			<path class="st0" d="M1192.4,695.4v1.9c0,0.3-0.2,0.5-0.4,0.5c0,0,0,0-0.1,0h-32c-0.3,0-0.5-0.2-0.5-0.4c0,0,0,0,0-0.1v-1.9
				c0-0.2,0.2-0.4,0.4-0.5h0.1h14.9v-9.4H1160c-0.2,0-0.5-0.1-0.5-0.4V685v-1.9c0-0.3,0.2-0.5,0.4-0.5c0,0,0,0,0.1,0h32
				c0.3,0,0.5,0.2,0.5,0.5l0,0v1.9c0,0.3-0.2,0.5-0.5,0.5l0,0h-14.4v9.4h14.4C1192.2,694.9,1192.4,695.1,1192.4,695.4L1192.4,695.4z
				"/>
			<path class="st0" d="M1167.5,703.3h16.9c4.2-0.2,7.9,3,8.1,7.2c0,0.1,0,0.3,0,0.4v4.9c0,0.2-0.2,0.4-0.4,0.5h-0.1h-1.7
				c-0.2,0-0.4-0.2-0.5-0.4c0,0,0,0,0-0.1V711c-0.1-2.8-2.4-4.9-5.1-4.9c-0.1,0-0.2,0-0.3,0h-6.9v8.6c0,0.3-0.2,0.5-0.4,0.5l0,0
				h-1.7c-0.3,0-0.5-0.2-0.5-0.4c0,0,0,0,0-0.1v-8.6h-7.4c-2.8-0.3-5.2,1.8-5.4,4.5c0,0.1,0,0.2,0,0.3v4.9c0,0.2-0.2,0.4-0.4,0.5
				c0,0,0,0-0.1,0h-1.7c-0.2,0-0.4-0.2-0.5-0.4c0,0,0,0,0-0.1V711c0-4.2,3.4-7.7,7.7-7.7C1167.2,703.3,1167.3,703.3,1167.5,703.3z"
				/>
			<path class="st0" d="M995.2,750.9c12.7,12.8,26.2,24.7,40.3,35.9c14,10.3,29.4,18.4,45.2,19.9c15.8,1.5,31.4-5.3,44.7-16.1
				c13.6-11.5,25.6-24.9,35.5-39.7c-2.4,9-5.9,17.7-10.5,25.8c-4.6,8.3-10.3,16-16.9,22.9c-6.8,7.2-15,13-24,17.1
				c-2.3,1.1-4.8,1.8-7.2,2.7c-2.4,0.9-5,1.3-7.5,1.8c-2.5,0.6-5.1,0.6-7.7,0.9h-7.7c-10.1-1-19.8-4-28.6-8.9
				c-8.5-4.6-16.3-10.4-23.2-17.1C1014.4,783,1003.4,767.7,995.2,750.9z"/>
			<path class="st0" d="M987.3,792c0.2-7.8,0.6-15.6,0.9-23.4l1.2-23.4l0.2-3.1l3.3,0.9c3.1,0.8,6.1,1.5,9.2,2.5
				c3.1,0.9,6.1,1.9,9.2,3.1c3.1,1.1,6.1,2.4,8.9,3.8c3,1.4,5.9,2.9,8.7,4.6l-0.2,0.6c-3.3-0.2-6.5-0.7-9.7-1.3
				c-3.1-0.6-6.4-1.3-9.5-2.1c-3.1-0.7-6.2-1.6-9.2-2.7c-3.1-1-6.1-2.3-9.2-3.4l3.4-2.3l-3.1,23.2c-1.2,7.7-2.3,15.3-3.5,23.2
				L987.3,792z"/>
			<path class="st0" d="M731.2,680.9v7.4c0,15.2-9.8,25.2-24.6,25.2h-20.5c-2.4,0.1-4.4-1.7-4.5-4c0-0.2,0-0.3,0-0.5v-77.2
				c0-15,9.2-25,23.1-25c14.4,0,23.8,10.1,23.8,25v7.2c0,10-4.8,17.8-12.5,20.1C725.5,662.1,731.7,671,731.2,680.9z M690.7,655.7h14
				c9.4,0,15-6.1,15-16.6v-7.3c0-10.5-5.4-16.6-14.8-16.6c-8.9,0-14.1,6.1-14.1,16.6L690.7,655.7z M722,680.9
				c0-10.5-5.7-16.8-15.3-16.8h-16.1V705h16.1c9.8,0,15.3-6.3,15.3-16.8V680.9z"/>
			<path class="st0" d="M753,608.2c0.8,0,1.5,0.6,1.5,1.4v0.1v78c0,11.1,6.1,18.6,15.7,18.6s15.7-7.5,15.7-18.6v-78
				c0-0.8,0.6-1.5,1.4-1.5h0.1h6.1c0.8,0,1.4,0.6,1.5,1.3c0,0.1,0,0.1,0,0.2v78c0,15.8-9.7,27-24.7,27s-24.7-11.2-24.7-27v-78
				c-0.1-0.8,0.5-1.5,1.3-1.5c0.1,0,0.1,0,0.2,0H753z"/>
			<path class="st0" d="M809.7,686.2c-0.1-0.8,0.5-1.5,1.3-1.5c0.1,0,0.1,0,0.2,0h6.1c0.8-0.1,1.5,0.5,1.5,1.3c0,0.1,0,0.1,0,0.2
				c0.5,13.2,6.1,20.1,16.2,20.1c10.1,0,15.9-5.4,15.9-15.7c0-25.7-40.4-31.3-40.4-60.6c0-14,9.6-23.3,24.2-23.3
				c13.7,0,23.1,11.1,23.9,27.6c0.1,0.8-0.5,1.5-1.3,1.5c-0.1,0-0.1,0-0.2,0H851c-0.8,0.1-1.5-0.5-1.5-1.3c0-0.1,0-0.1,0-0.2
				c-0.6-13.2-5.8-19.3-14.9-19.3c-9.9,0-15.1,5.1-15.1,14.9c0,24.2,40.3,29.7,40.3,60.6c0,14.5-9.9,24.2-24.9,24.2
				C819.9,714.6,810.2,703.3,809.7,686.2z"/>
			<path class="st0" d="M877.2,608.2h6.1c0.8,0,1.4,0.6,1.5,1.3c0,0.1,0,0.1,0,0.2v101.9c0.1,0.8-0.5,1.4-1.2,1.5
				c-0.1,0-0.1,0-0.2,0h-6.1c-0.8,0.1-1.5-0.5-1.5-1.3c0-0.1,0-0.1,0-0.2v-102C875.7,608.8,876.4,608.1,877.2,608.2L877.2,608.2z"/>
			<path class="st0" d="M904.5,711.6v-78c0-15.7,9.8-27,24.8-27s24.7,11.3,24.7,27v78c0.1,0.8-0.5,1.5-1.3,1.5c-0.1,0-0.1,0-0.2,0
				h-6c-0.8,0.1-1.5-0.5-1.5-1.3c0-0.1,0-0.1,0-0.2v-78c0-11.1-6.1-18.6-15.7-18.6s-15.7,7.5-15.7,18.6v78c0.1,0.8-0.5,1.5-1.3,1.5
				c-0.1,0-0.1,0-0.2,0H906C905.1,713,904.5,712.4,904.5,711.6L904.5,711.6z"/>
			<path class="st0" d="M970.6,687.7v-54c0-14.5,10.1-25.8,24.6-25.8h15.6c0.8-0.1,1.5,0.5,1.5,1.3c0,0.1,0,0.1,0,0.2v5.4
				c0.1,0.8-0.5,1.5-1.3,1.5c-0.1,0-0.1,0-0.2,0h-15.6c-9.2,0-15.3,7.5-15.3,17.4v22h27.4c0.8,0,1.5,0.6,1.5,1.4v0.1v5.4
				c0,0.8-0.6,1.5-1.4,1.5h-0.1h-27.4v23.5c0,9.9,6.1,17.4,15.3,17.4h15.6c0.8-0.1,1.5,0.5,1.5,1.3c0,0.1,0,0.1,0,0.2v5.4
				c0.1,0.8-0.5,1.5-1.3,1.5c-0.1,0-0.1,0-0.2,0h-15.6C980.7,713.5,970.6,702.3,970.6,687.7z"/>
			<path class="st0" d="M1022.8,686.2c-0.1-0.8,0.5-1.5,1.3-1.5c0.1,0,0.1,0,0.2,0h6.1c0.8-0.1,1.5,0.5,1.5,1.3c0,0.1,0,0.1,0,0.2
				c0.5,13.2,6.1,20.1,16.2,20.1s15.9-5.4,15.9-15.7c0-25.7-40.3-31.3-40.3-60.6c0-14,9.6-23.3,24.1-23.3
				c13.7,0,23.1,11.1,23.8,27.6c0.1,0.8-0.5,1.4-1.2,1.5c-0.1,0-0.1,0-0.2,0h-6.1c-0.8,0.1-1.5-0.5-1.5-1.3c0-0.1,0-0.1,0-0.2
				c-0.6-13.2-5.8-19.3-14.9-19.3c-9.9,0-15.1,5.1-15.1,14.9c0,24.2,40.3,29.7,40.3,60.6c0,14.5-9.9,24.2-24.9,24.2
				C1033,714.6,1023.2,703.3,1022.8,686.2z"/>
			<path class="st0" d="M1083.6,686.2c-0.1-0.8,0.5-1.5,1.3-1.5c0.1,0,0.1,0,0.2,0h6.1c0.8-0.1,1.5,0.5,1.5,1.3c0,0.1,0,0.1,0,0.2
				c0.5,13.2,6.1,20.1,16.2,20.1s15.9-5.4,15.9-15.7c0-25.7-40.3-31.3-40.3-60.6c0-14,9.6-23.3,24.1-23.3
				c13.7,0,23.1,11.1,23.8,27.6c0.1,0.8-0.5,1.4-1.2,1.5c-0.1,0-0.1,0-0.2,0h-6.1c-0.8,0.1-1.5-0.5-1.5-1.3c0-0.1,0-0.1,0-0.2
				c-0.6-13.2-5.8-19.3-14.9-19.3c-9.9,0-15.1,5.1-15.1,14.9c0,24.2,40.3,29.7,40.3,60.6c0,14.5-9.9,24.2-24.9,24.2
				C1093.8,714.6,1084.2,703.3,1083.6,686.2z"/>
		</g>
	</g>
	<path class="st0" d="M520.9,1358.6c35.3-0.1,63.8-28.7,63.7-64c0-18.3-7.9-35.6-21.6-47.7c-10.1-10.1-9.2-31.7-8.9-31.9
		c0.1-1.1-0.3-2.2-1.2-3c-0.7-0.7-1.7-1.1-2.8-1.2h-58.5c-1,0-2,0.4-2.8,1.2c-0.8,0.8-1.2,1.9-1.1,3c0,0.2,1.1,21.8-8.9,31.9
		l-0.7,0.7c-26.2,23.5-28.3,63.7-4.8,89.9C485.6,1351,502.8,1358.6,520.9,1358.6L520.9,1358.6z M484.2,1252.9
		c0.2-0.2,0.7-0.7,0.7-0.9c9-9.6,10.5-25.5,10.8-33h50.7c0.2,7.6,1.8,24.1,11.5,33.9c23.2,20.3,25.5,55.6,5.2,78.8
		c-20.3,23.2-55.6,25.5-78.8,5.2s-25.5-55.6-5.2-78.8C480.7,1256.2,482.4,1254.5,484.2,1252.9L484.2,1252.9z"/>
	<path class="st0" d="M521.2,1342.3c2.2,0,3.9-1.7,3.9-3.9s-1.7-3.9-3.9-3.9c-23,0-41.7-18.7-41.7-41.7c0-2.2-1.8-3.9-3.9-3.9
		s-3.9,1.7-3.9,3.9c-0.1,27.2,21.9,49.4,49.1,49.5C520.9,1342.3,521,1342.3,521.2,1342.3z"/>
	<path class="st0" d="M495.7,1206.6h50.9c5.3-0.2,9.5-4.6,9.3-9.9c-0.2-5.1-4.2-9.2-9.3-9.3h-50.7c-5.5,0.2-9.9,4.4-9.9,9.6
		C486.1,1202.2,490.4,1206.5,495.7,1206.6z M495.7,1195.3h50.9c1,0,1.8,0.8,1.8,1.8c0,0,0,0,0,0.1c0.1,0.9-0.6,1.8-1.5,1.8
		c-0.1,0-0.2,0-0.3,0h-50.7c-1,0-1.8-0.8-1.8-1.8c0,0,0,0,0-0.1c-0.1-0.9,0.5-1.7,1.4-1.8C495.6,1195.3,495.6,1195.3,495.7,1195.3z"
		/>
	<path class="st0" d="M503.3,1183.4H539c5.3,0,9.6-4.3,9.6-9.6s-4.3-9.6-9.6-9.6h-35.8c-5.3,0-9.6,4.3-9.6,9.6
		c-0.1,5.3,4.2,9.6,9.4,9.6C503.1,1183.4,503.2,1183.4,503.3,1183.4z M503.3,1172.2H539c1,0,1.8,0.8,1.8,1.8c0,0,0,0,0,0.1
		c0.1,0.9-0.6,1.8-1.5,1.8c-0.1,0-0.2,0-0.3,0h-35.8c-1,0.1-1.9-0.7-2-1.7s0.7-1.9,1.7-2C503.1,1172.1,503.2,1172.1,503.3,1172.2
		L503.3,1172.2z"/>
	<path class="st0" d="M521.2,1377.7c-2.1,0-3.9,1.7-3.9,3.8v0.1v26.6c0,2.2,1.7,3.9,3.9,3.9s3.9-1.7,3.9-3.9l0,0v-26.6
		C525,1379.4,523.3,1377.7,521.2,1377.7z"/>
	<path class="st0" d="M456.3,1392.3c1.6,1.2,4,0.9,5.2-0.8l0.1-0.1l14.7-22c1.3-1.6,1-4-0.6-5.3c-0.1-0.1-0.2-0.1-0.3-0.2
		c-0.6-0.4-1.3-0.7-2.1-0.7c-1.3,0-2.6,0.7-3.2,1.8l-14.7,22c-1.2,1.5-1,3.8,0.5,5C456,1392.1,456.1,1392.2,456.3,1392.3z"/>
	<path class="st0" d="M567.7,1364.1c-0.7,0-1.5,0.3-2.1,0.7c-1.8,1.2-2.3,3.7-1.2,5.5l14.2,22.3c1.4,1.7,3.9,1.9,5.6,0.5
		c1.4-1.2,1.9-3.2,1-4.9l-14.2-22.3C570.4,1364.7,569.1,1364,567.7,1364.1z"/>
	<path class="st0" d="M595.4,1339.8l23.2,12.6c1.9,1,4.2,0.3,5.3-1.6c1.1-1.7,0.5-4-1.2-5.1c-0.1-0.1-0.3-0.2-0.4-0.2l-23.2-12.6
		c-0.6-0.3-1.2-0.4-1.8-0.5c-1.4,0-2.8,0.8-3.4,2.1C592.9,1336.4,593.6,1338.7,595.4,1339.8z"/>
	<path class="st0" d="M418.2,1350.8c1.1,1.9,3.4,2.6,5.3,1.6l23.4-12.6c1.9-1,2.6-3.4,1.6-5.3c-0.7-1.3-2-2.1-3.4-2.1
		c-0.6,0-1.3,0.2-1.8,0.5l-23.4,12.6C417.9,1346.6,417.2,1348.9,418.2,1350.8z"/>
</g>
</svg>
