<svg id="Capa_4" data-name="Capa 4" xmlns="http://www.w3.org/2000/svg" viewBox="0 0 725.24 677.17"><defs><style>.cls-1{fill:#fff;}</style></defs><title>LogoTipoES</title><path class="cls-1" d="M386.94,363V290.31l-39.52-8.43v82h0c0,1.14.06,2.28.12,3.41h39.59C387,365.85,386.94,364.42,386.94,363Z" transform="translate(-299.25 -61.64)"/><path class="cls-1" d="M444,318.13a46.17,46.17,0,0,1,34.75,38.38l39.93,8.34c0-.63,0-1.26,0-1.89a85.68,85.68,0,0,0-66.5-83.49Z" transform="translate(-299.25 -61.64)"/><path class="cls-1" d="M433.09,316.81a46.8,46.8,0,0,1,6.74.49l8.23-38.69a86.82,86.82,0,0,0-15-1.33c-14.28,0-31.71,4.84-41.76,11v54.59C400.05,325.54,416.28,316.81,433.09,316.81Z" transform="translate(-299.25 -61.64)"/><polygon class="cls-1" points="87.69 224.29 87.69 150.35 48.16 123.54 48.16 215.86 87.69 224.29"/><path class="cls-1" d="M479.2,361c0,.65.05,1.31.05,2a46.16,46.16,0,0,1-46.16,46.15c-.67,0-1.33,0-2-.05l8.18,39.33a85.65,85.65,0,0,0,79.25-79.2Z" transform="translate(-299.25 -61.64)"/><path class="cls-1" d="M426.62,408.65a46.17,46.17,0,0,1-38.85-37H347.89a85.65,85.65,0,0,0,85.2,77c.62,0,1.22,0,1.83-.05Z" transform="translate(-299.25 -61.64)"/><ellipse class="cls-1" cx="28.28" cy="220.24" rx="19.88" ry="6.58"/><path class="cls-1" d="M375.74,599.4c0-5.23,4-9.53,10.07-9.53h6.42v-4.31c0-3.84-2.31-6.62-6.22-6.62-3.51,0-5.7,2.45-6,6.09-.07.47-.27.66-.66.66h-2.45a.63.63,0,0,1-.67-.66c.33-5.63,4-9.73,9.74-9.73,6.09,0,10,4.44,10,10.26V599.4c0,5.9-4,10.26-10.07,10.26S375.74,605.3,375.74,599.4Zm16.49,0v-5.89h-6.42c-3.91,0-6.29,2.65-6.29,5.89,0,3.91,2.38,6.62,6.42,6.62S392.23,603.31,392.23,599.4Z" transform="translate(-299.25 -61.64)"/><path class="cls-1" d="M402.63,608.41V585.69c0-6,4-10.39,9.86-10.39s9.87,4.44,9.87,10.39v22.72a.62.62,0,0,1-.66.66h-2.45a.63.63,0,0,1-.67-.66V585.69c0-4-2.31-6.82-6.09-6.82s-6.09,2.79-6.09,6.82v22.72a.62.62,0,0,1-.66.66h-2.45A.62.62,0,0,1,402.63,608.41Z" transform="translate(-299.25 -61.64)"/><path class="cls-1" d="M428.51,599.4c0-5.23,4-9.53,10.07-9.53H445v-4.31c0-3.84-2.32-6.62-6.22-6.62-3.51,0-5.7,2.45-6,6.09-.07.47-.27.66-.67.66H429.7A.62.62,0,0,1,429,585c.33-5.63,4-9.73,9.74-9.73,6.09,0,10,4.44,10,10.26V599.4c0,5.9-4,10.26-10.06,10.26S428.51,605.3,428.51,599.4Zm16.49,0v-5.89h-6.42c-3.91,0-6.29,2.65-6.29,5.89,0,3.91,2.38,6.62,6.42,6.62S445,603.31,445,599.4Z" transform="translate(-299.25 -61.64)"/><path class="cls-1" d="M456.06,608.41v-45a.62.62,0,0,1,.66-.66h2.45a.62.62,0,0,1,.66.66v45a.62.62,0,0,1-.66.66h-2.45A.62.62,0,0,1,456.06,608.41Z" transform="translate(-299.25 -61.64)"/><path class="cls-1" d="M487.77,576.62v36c0,6.22-4,10.39-10.06,10.39-5.76,0-9.8-4.17-10.07-10.39a.63.63,0,0,1,.67-.66h2.45a.6.6,0,0,1,.66.66c.13,4.24,2.45,6.75,6.29,6.75s6.29-2.51,6.29-6.75V605a8,8,0,0,1-6.29,3.38c-6,0-10.07-4.44-10.07-10.4V576.62a.63.63,0,0,1,.67-.66h2.45a.63.63,0,0,1,.66.66V598c0,4,2.38,6.76,6.29,6.76S484,602,484,598V576.62a.62.62,0,0,1,.66-.66h2.45A.62.62,0,0,1,487.77,576.62Z" transform="translate(-299.25 -61.64)"/><path class="cls-1" d="M508.69,606.22v2.32a.62.62,0,0,1-.66.66h-.86c-5.89,0-9.33-4.1-9.33-11.12V579.54h-4.11a.63.63,0,0,1-.66-.67v-2.25a.62.62,0,0,1,.66-.66h4.11v-8.61a.62.62,0,0,1,.66-.66H501a.62.62,0,0,1,.66.66V576h5.63a.63.63,0,0,1,.66.66v2.25a.63.63,0,0,1-.66.67h-5.63v18.54c0,4.9,1.92,7.48,5.56,7.48H508A.59.59,0,0,1,508.69,606.22Z" transform="translate(-299.25 -61.64)"/><path class="cls-1" d="M513.79,569.07a2.47,2.47,0,0,1,2.58-2.58,2.5,2.5,0,0,1,2.58,2.58,2.59,2.59,0,0,1-2.58,2.59A2.51,2.51,0,0,1,513.79,569.07Zm.73,39.34V576.62a.62.62,0,0,1,.66-.66h2.45a.62.62,0,0,1,.66.66v31.79a.62.62,0,0,1-.66.66h-2.45A.62.62,0,0,1,514.52,608.41Z" transform="translate(-299.25 -61.64)"/><path class="cls-1" d="M525,599.34V585.69c0-6,4-10.39,9.94-10.39,5.76,0,9.6,4.1,9.93,9.73a.62.62,0,0,1-.66.66H541.8a.59.59,0,0,1-.66-.66c-.27-3.64-2.52-6.09-6.16-6.09-3.84,0-6.16,2.78-6.16,6.75v13.65c0,4,2.38,6.75,6.29,6.75,3.71,0,6-2.72,6.29-6.75a.6.6,0,0,1,.67-.67h2.44a.64.64,0,0,1,.67.67c-.34,6-4.24,10.39-10.07,10.39C529.08,609.73,525,605.3,525,599.34Z" transform="translate(-299.25 -61.64)"/><path class="cls-1" d="M549.35,599.34a.63.63,0,0,1,.66-.67h2.45a.6.6,0,0,1,.66.67c.2,4.5,2.45,6.75,6.82,6.75,4,0,6-2.19,6-5.3,0-8-16.22-5.49-16.22-16.55,0-4.84,3.77-8.94,9.53-8.94,6.49,0,9.74,3.84,10,9.73a.62.62,0,0,1-.66.66H566.1a.59.59,0,0,1-.66-.66c-.2-3.51-2.19-6.09-6-6.09-3.58,0-6,2.19-6,5.3,0,7.68,16.22,5.16,16.22,16.55,0,4.84-3.84,8.94-9.73,8.94C553.58,609.73,549.61,605.63,549.35,599.34Z" transform="translate(-299.25 -61.64)"/><path class="cls-1" d="M326.39,516.47c4.66-2.27,7.49-7.52,7.49-14.19v-5.09c0-11-7.07-18.42-17.58-18.42-10.19,0-17.05,7.4-17.05,18.42v54.46a3.74,3.74,0,0,0,3.91,3.91h14.52c10.76,0,18-7.45,18-18.53v-5.19C335.68,524.89,332.09,519.06,326.39,516.47Zm-.33-14.19c0,7-3.6,11-9.87,11h-9.12V497.19c0-7,3.37-11,9.23-11,6.2,0,9.76,4,9.76,11Zm-19,18.42h10.61c6.47,0,10.18,4.06,10.18,11.14V537c0,7.07-3.71,11.13-10.18,11.13H307.07Z" transform="translate(-299.25 -61.64)"/><path class="cls-1" d="M359.31,499.85c-9.18,0-15.73,6.54-16.31,16.31a1.74,1.74,0,0,0,1.8,1.79h3.92c.7,0,1.58-.3,1.79-1.74.4-5.59,3.77-9.07,8.8-9.07,5.6,0,9.23,3.87,9.23,9.86v6.16H359c-9.59,0-16.83,6.87-16.83,16,0,10.1,7,17.15,17,17.15s16.84-7,16.84-17.15V517C376,506.9,369.16,499.85,359.31,499.85Zm-.32,30.6h9.55v8.7c0,6.08-3.58,9.86-9.34,9.86s-9.54-3.78-9.54-9.86C349.66,534,353.5,530.45,359,530.45Z" transform="translate(-299.25 -61.64)"/><path class="cls-1" d="M425.31,499.85A13.83,13.83,0,0,0,413.22,507a14.13,14.13,0,0,0-12.17-7.14c-9.35,0-15.88,7.14-15.88,17.37v36.33a1.74,1.74,0,0,0,1.79,1.8h3.92a1.74,1.74,0,0,0,1.79-1.8V517.22c0-6.22,3.21-10.08,8.38-10.08s8.38,3.86,8.38,10.08v36.33a1.74,1.74,0,0,0,1.79,1.8h3.92a1.74,1.74,0,0,0,1.79-1.8V517.22c0-6.22,3.21-10.08,8.38-10.08s8.38,3.86,8.38,10.08v36.33a1.74,1.74,0,0,0,1.79,1.8h3.92a1.74,1.74,0,0,0,1.79-1.8V517.22C441.19,507,434.66,499.85,425.31,499.85Z" transform="translate(-299.25 -61.64)"/><path class="cls-1" d="M467.47,499.85A13.33,13.33,0,0,0,458,504V481.51a1.73,1.73,0,0,0-1.79-1.79h-3.92a1.73,1.73,0,0,0-1.79,1.79V539c0,10.22,7,17.37,16.94,17.37s16.94-7.15,16.94-17.37V517.22C484.41,507,477.45,499.85,467.47,499.85Zm0,7.29c5.73,0,9.44,4,9.44,10.08V539c0,6.12-3.71,10.07-9.44,10.07S458,545.16,458,539V517.22C458,511.1,461.74,507.14,467.47,507.14Z" transform="translate(-299.25 -61.64)"/><path class="cls-1" d="M509.53,499.85c-10,0-17,7.14-17,17.37V539c0,10.22,7,17.37,17,17.37s17-7.15,17-17.37V517.22C526.57,507,519.56,499.85,509.53,499.85Zm-9.44,17.37c0-6.28,3.62-10.18,9.44-10.18s9.44,3.9,9.44,10.18V539c0,6.28-3.62,10.18-9.44,10.18s-9.44-3.9-9.44-10.18Z" transform="translate(-299.25 -61.64)"/><path class="cls-1" d="M551.69,499.85c-10,0-17.05,7.14-17.05,17.37V539c0,10.22,7,17.37,17.05,17.37s17-7.15,17-17.37V517.22C568.74,507,561.73,499.85,551.69,499.85Zm-9.44,17.37c0-6.28,3.62-10.18,9.44-10.18s9.44,3.9,9.44,10.18V539c0,6.28-3.62,10.18-9.44,10.18s-9.44-3.9-9.44-10.18Z" transform="translate(-299.25 -61.64)"/><rect class="cls-1" x="312.2" width="6.51" height="677.17"/><path class="cls-1" d="M669.64,314.27a.89.89,0,0,1,.94-.94h3.72a.89.89,0,0,1,.94.94c.27,8.2,3.72,12.48,10.06,12.48,6.52,0,9.88-3.35,9.88-9.78,0-15.93-25.07-19.48-25.07-37.65,0-8.66,6-14.44,15-14.44,8.48,0,14.35,6.9,14.82,17.24a.88.88,0,0,1-.93.93h-3.73a.88.88,0,0,1-.93-.93c-.38-8.2-3.64-12-9.23-12-6.15,0-9.41,3.17-9.41,9.22,0,15,25.07,18.45,25.07,37.65,0,9-6.15,15-15.47,15C676.17,332,669.92,324.89,669.64,314.27Z" transform="translate(-299.25 -61.64)"/><path class="cls-1" d="M708.69,314.64V282.21c0-10.25,6.52-17.24,15.84-17.24s15.84,7,15.84,16.31v34.29c0,9.32-6.52,16.31-15.84,16.31S708.69,324.89,708.69,314.64Zm26.09.93V281.28c0-6.43-4.19-11.09-10.25-11.09s-10.25,4.66-10.25,12v32.43c0,7.36,4.19,12,10.25,12S734.78,322,734.78,315.57Z" transform="translate(-299.25 -61.64)"/><path class="cls-1" d="M774,326a.88.88,0,0,1,.93.93v3.35a.88.88,0,0,1-.93.93h-8.39c-8.94,0-14.9-7-14.9-15.93V266.74a.88.88,0,0,1,.93-.93h3.73a.89.89,0,0,1,.93.93v48.55c0,6.06,3.72,10.72,9.31,10.72Z" transform="translate(-299.25 -61.64)"/><path class="cls-1" d="M784.73,265.81a.88.88,0,0,1,.93.93V315.2c0,6.89,3.82,11.55,9.78,11.55s9.79-4.66,9.79-11.55V266.74a.88.88,0,0,1,.93-.93h3.73a.88.88,0,0,1,.93.93V315.2c0,9.78-6.06,16.77-15.38,16.77s-15.37-7-15.37-16.77V266.74a.88.88,0,0,1,.93-.93Z" transform="translate(-299.25 -61.64)"/><path class="cls-1" d="M821.17,315.94v-35c0-9.6,6.05-16,15.18-16,8.76,0,14.91,6.9,15.19,17.24a.88.88,0,0,1-.93.93h-3.73a.83.83,0,0,1-.93-.93c-.28-7.73-4-12-9.6-12-6.05,0-9.59,4-9.59,10.81v35c0,6.81,3.54,10.81,9.59,10.81s9.88-4.66,10.07-12.48a.84.84,0,0,1,.93-.94h3.73a.81.81,0,0,1,.93.84c-.28,10.72-6.52,17.8-15.66,17.8S821.17,325.54,821.17,315.94Z" transform="translate(-299.25 -61.64)"/><path class="cls-1" d="M862.17,265.81h3.72a.89.89,0,0,1,.94.93v63.37a.88.88,0,0,1-.94.93h-3.72a.88.88,0,0,1-.93-.93V266.74A.88.88,0,0,1,862.17,265.81Z" transform="translate(-299.25 -61.64)"/><path class="cls-1" d="M877.92,314.64V282.21c0-10.25,6.52-17.24,15.84-17.24s15.84,7,15.84,16.31v34.29c0,9.32-6.52,16.31-15.84,16.31S877.92,324.89,877.92,314.64Zm26.09.93V281.28c0-6.43-4.2-11.09-10.25-11.09s-10.25,4.66-10.25,12v32.43c0,7.36,4.19,12,10.25,12S904,322,904,315.57Z" transform="translate(-299.25 -61.64)"/><path class="cls-1" d="M919.94,330.11V281.65c0-9.78,6.06-16.77,15.38-16.77s15.37,7,15.37,16.77v48.46a.88.88,0,0,1-.93.93H946a.88.88,0,0,1-.93-.93V281.65c0-6.89-3.82-11.55-9.78-11.55s-9.79,4.66-9.79,11.55v48.46a.88.88,0,0,1-.93.93h-3.73A.88.88,0,0,1,919.94,330.11Z" transform="translate(-299.25 -61.64)"/><path class="cls-1" d="M961,315.2V281.65c0-9,6.24-16,15.19-16h9.69a.88.88,0,0,1,.93.93v3.35a.88.88,0,0,1-.93.93h-9.69c-5.69,0-9.6,4.66-9.6,10.81v13.7h17a.88.88,0,0,1,.93.93v3.36a.88.88,0,0,1-.93.93h-17V315.2c0,6.15,3.91,10.81,9.6,10.81h9.69a.88.88,0,0,1,.93.93v3.35a.88.88,0,0,1-.93.93h-9.69C967.28,331.22,961,324.24,961,315.2Z" transform="translate(-299.25 -61.64)"/><path class="cls-1" d="M993.37,314.27a.89.89,0,0,1,.93-.94H998a.88.88,0,0,1,.93.94c.28,8.2,3.73,12.48,10.07,12.48,6.52,0,9.87-3.35,9.87-9.78,0-15.93-25.06-19.48-25.06-37.65,0-8.66,6-14.44,15-14.44,8.48,0,14.35,6.9,14.82,17.24a.88.88,0,0,1-.94.93H1019a.88.88,0,0,1-.93-.93c-.38-8.2-3.64-12-9.23-12-6.15,0-9.41,3.17-9.41,9.22,0,15,25.06,18.45,25.06,37.65,0,9-6.14,15-15.46,15C999.9,332,993.65,324.89,993.37,314.27Z" transform="translate(-299.25 -61.64)"/><path class="cls-1" d="M680.82,377.33v1.47a.39.39,0,0,1-.41.41H675.5v25.93a.38.38,0,0,1-.41.41h-1.64a.39.39,0,0,1-.41-.41V379.21h-4.9a.39.39,0,0,1-.41-.41v-1.47a.38.38,0,0,1,.41-.41h12.27A.39.39,0,0,1,680.82,377.33Z" transform="translate(-299.25 -61.64)"/><path class="cls-1" d="M682.57,398.6V383.87c0-4,2.74-7,6.67-7h4.25a.38.38,0,0,1,.41.4v1.48a.39.39,0,0,1-.41.41h-4.25c-2.49,0-4.21,2-4.21,4.74v6h7.48a.39.39,0,0,1,.41.41v1.47a.38.38,0,0,1-.41.41H685v6.43c0,2.7,1.72,4.74,4.21,4.74h4.25a.38.38,0,0,1,.41.41v1.47a.38.38,0,0,1-.41.41h-4.25C685.31,405.63,682.57,402.56,682.57,398.6Z" transform="translate(-299.25 -61.64)"/><path class="cls-1" d="M697.29,398.92V383.54c0-4.21,2.66-7,6.67-7,3.85,0,6.55,3,6.67,7.56a.39.39,0,0,1-.41.41h-1.64a.37.37,0,0,1-.41-.41c-.12-3.39-1.75-5.27-4.21-5.27-2.66,0-4.21,1.76-4.21,4.74v15.38c0,3,1.55,4.75,4.21,4.75s4.34-2.05,4.42-5.48a.36.36,0,0,1,.41-.41h1.63c.25,0,.41.12.41.37-.12,4.7-2.86,7.81-6.87,7.81S697.29,403.14,697.29,398.92Z" transform="translate(-299.25 -61.64)"/><path class="cls-1" d="M714.55,405.14V383.87c0-4.29,2.66-7.36,6.75-7.36s6.75,3.07,6.75,7.36v21.27a.38.38,0,0,1-.41.41H726a.38.38,0,0,1-.41-.41V383.87c0-3-1.68-5.07-4.3-5.07s-4.29,2-4.29,5.07v21.27a.39.39,0,0,1-.41.41H715A.39.39,0,0,1,714.55,405.14Z" transform="translate(-299.25 -61.64)"/><path class="cls-1" d="M732.59,398.35V384.12c0-4.5,2.86-7.57,6.95-7.57a6.83,6.83,0,0,1,7,7.16v15.05a6.83,6.83,0,0,1-7,7.16C735.45,405.92,732.59,402.85,732.59,398.35Zm11.45.41V383.71c0-2.83-1.84-4.87-4.5-4.87s-4.5,2-4.5,5.28v14.23c0,3.23,1.84,5.28,4.5,5.28S744,401.58,744,398.76Z" transform="translate(-299.25 -61.64)"/><path class="cls-1" d="M761.26,403.34a.39.39,0,0,1,.41.41v1.47a.39.39,0,0,1-.41.41h-3.68c-3.93,0-6.55-3.07-6.55-7V377.33a.39.39,0,0,1,.41-.41h1.64a.39.39,0,0,1,.41.41v21.31c0,2.66,1.63,4.7,4.09,4.7Z" transform="translate(-299.25 -61.64)"/><path class="cls-1" d="M763.34,398.35V384.12c0-4.5,2.87-7.57,7-7.57a6.82,6.82,0,0,1,7,7.16v15.05a6.82,6.82,0,0,1-7,7.16C766.21,405.92,763.34,402.85,763.34,398.35Zm11.46.41V383.71c0-2.83-1.84-4.87-4.5-4.87s-4.5,2-4.5,5.28v14.23c0,3.23,1.84,5.28,4.5,5.28S774.8,401.58,774.8,398.76Zm-6.14-25.16,2.82-3.72a.56.56,0,0,1,.53-.24h1.89c.32,0,.45.24.2.49l-3.31,3.72a.6.6,0,0,1-.49.24h-1.39C768.58,374.09,768.45,373.85,768.66,373.6Z" transform="translate(-299.25 -61.64)"/><path class="cls-1" d="M781.25,398.51v-14.6c0-4.38,2.7-7.4,6.87-7.4,4,0,6.63,3,6.79,6.95a.38.38,0,0,1-.4.41h-1.64a.36.36,0,0,1-.41-.41c-.16-2.7-1.76-4.66-4.34-4.66-2.74,0-4.41,2-4.41,5.15v14.56c0,3.11,1.84,5.16,4.5,5.16a4.48,4.48,0,0,0,4.5-4.75v-6.34h-3.85a.39.39,0,0,1-.41-.41V390.7a.39.39,0,0,1,.41-.41h5.07a1.12,1.12,0,0,1,1.23,1.23v7.4a6.79,6.79,0,0,1-6.95,7C784.12,406,781.25,402.89,781.25,398.51Z" transform="translate(-299.25 -61.64)"/><path class="cls-1" d="M800,376.92h1.64a.38.38,0,0,1,.41.41v27.81a.38.38,0,0,1-.41.41H800a.38.38,0,0,1-.4-.41V377.33A.38.38,0,0,1,800,376.92Z" transform="translate(-299.25 -61.64)"/><path class="cls-1" d="M806.94,398.92V383.54c0-4.21,2.66-7,6.66-7s6.55,3,6.67,7.56a.38.38,0,0,1-.41.41h-1.63a.36.36,0,0,1-.41-.41c-.13-3.39-1.76-5.27-4.22-5.27-2.65,0-4.21,1.76-4.21,4.74v15.38c0,3,1.56,4.75,4.21,4.75s4.34-2.05,4.42-5.48a.36.36,0,0,1,.41-.41h1.64c.24,0,.41.12.41.37-.13,4.7-2.87,7.81-6.88,7.81S806.94,403.14,806.94,398.92Z" transform="translate(-299.25 -61.64)"/><path class="cls-1" d="M824.2,405.14V383.91c0-4.42,2.7-7.36,6.75-7.36s6.74,2.94,6.74,7.36v21.23a.38.38,0,0,1-.41.41h-1.63a.38.38,0,0,1-.41-.41v-10h-8.59v10a.38.38,0,0,1-.41.41H824.6A.38.38,0,0,1,824.2,405.14Zm11-12.27v-9c0-3.19-1.56-5.07-4.29-5.07s-4.3,1.88-4.3,5.07v9Z" transform="translate(-299.25 -61.64)"/><path class="cls-1" d="M841.7,398.19a.38.38,0,0,1,.41-.41h1.63a.38.38,0,0,1,.41.41c.13,3.6,1.64,5.48,4.42,5.48s4.34-1.48,4.34-4.3c0-7-11-8.55-11-16.52,0-3.81,2.62-6.34,6.59-6.34,3.72,0,6.3,3,6.5,7.56a.38.38,0,0,1-.41.41H853a.38.38,0,0,1-.41-.41c-.17-3.59-1.6-5.27-4-5.27-2.7,0-4.13,1.39-4.13,4.05,0,6.58,11,8.1,11,16.52,0,4-2.7,6.59-6.79,6.59S841.82,402.85,841.7,398.19Z" transform="translate(-299.25 -61.64)"/><path class="cls-1" d="M873.24,403.88v-48.3a2,2,0,0,1,2.25-2.25h10.12c7.58,0,12.22,5.62,12.22,13.12v26.63c0,7.42-4.8,13.05-12.22,13.05H875.49A2.05,2.05,0,0,1,873.24,403.88Zm12.37-1.95c4.72,0,7.73-3.75,7.73-8.85V366.45c0-5.17-2.93-8.92-7.73-8.92h-7.87v44.4Z" transform="translate(-299.25 -61.64)"/><path class="cls-1" d="M905.19,393.23v-27c0-7.28,5-12.9,12.22-12.9h7.8a.71.71,0,0,1,.75.75v2.7a.71.71,0,0,1-.75.75h-7.8c-4.57,0-7.72,3.75-7.72,8.7v11h13.72a.71.71,0,0,1,.75.75v2.7a.71.71,0,0,1-.75.75H909.69v11.78c0,4.95,3.15,8.7,7.72,8.7h7.8a.71.71,0,0,1,.75.75v2.7a.71.71,0,0,1-.75.75h-7.8C910.21,406.13,905.19,400.5,905.19,393.23Z" transform="translate(-299.25 -61.64)"/><path class="cls-1" d="M931.21,392.48a.71.71,0,0,1,.75-.75h3a.71.71,0,0,1,.75.75c.23,6.6,3,10,8.1,10,5.25,0,8-2.7,8-7.88,0-12.82-20.17-15.67-20.17-30.3,0-7,4.8-11.62,12.07-11.62,6.83,0,11.55,5.55,11.93,13.87a.71.71,0,0,1-.75.75h-3a.71.71,0,0,1-.75-.75c-.3-6.6-2.93-9.67-7.43-9.67-4.95,0-7.57,2.55-7.57,7.42,0,12.08,20.17,14.85,20.17,30.3,0,7.28-5,12.08-12.45,12.08C936.46,406.73,931.44,401,931.21,392.48Z" transform="translate(-299.25 -61.64)"/><path class="cls-1" d="M964.21,403.88v-48.3a2.05,2.05,0,0,1,2.25-2.25h10.13c7.57,0,12.22,5.62,12.22,13.12v26.63c0,7.42-4.8,13.05-12.22,13.05H966.46A2.06,2.06,0,0,1,964.21,403.88Zm12.38-1.95c4.72,0,7.72-3.75,7.72-8.85V366.45c0-5.17-2.92-8.92-7.72-8.92h-7.88v44.4Z" transform="translate(-299.25 -61.64)"/><path class="cls-1" d="M996.16,393.23v-27c0-7.28,5-12.9,12.23-12.9h7.8a.71.71,0,0,1,.75.75v2.7a.71.71,0,0,1-.75.75h-7.8c-4.58,0-7.73,3.75-7.73,8.7v11h13.73a.71.71,0,0,1,.75.75v2.7a.71.71,0,0,1-.75.75h-13.73v11.78c0,4.95,3.15,8.7,7.73,8.7h7.8a.71.71,0,0,1,.75.75v2.7a.71.71,0,0,1-.75.75h-7.8C1001.19,406.13,996.16,400.5,996.16,393.23Z" transform="translate(-299.25 -61.64)"/><path class="cls-1" d="M668.6,452.53V437.8c0-4,2.75-7,6.67-7h4.26a.38.38,0,0,1,.4.41v1.47a.39.39,0,0,1-.4.41h-4.26c-2.49,0-4.21,2-4.21,4.74v6h7.48a.39.39,0,0,1,.41.41v1.48a.39.39,0,0,1-.41.41h-7.48v6.42c0,2.7,1.72,4.74,4.21,4.74h4.26a.38.38,0,0,1,.4.41v1.47a.38.38,0,0,1-.4.41h-4.26C671.35,459.56,668.6,456.49,668.6,452.53Z" transform="translate(-299.25 -61.64)"/><path class="cls-1" d="M694.08,457.27a.38.38,0,0,1,.41.41v1.47a.38.38,0,0,1-.41.41H690.4c-3.92,0-6.54-3.07-6.54-7V431.26a.38.38,0,0,1,.41-.41h1.63a.38.38,0,0,1,.41.41v21.31c0,2.66,1.64,4.7,4.09,4.7Z" transform="translate(-299.25 -61.64)"/><path class="cls-1" d="M700.92,492.36V443.61c0-9.85,6.09-16.88,15.46-16.88s15.47,7,15.47,16.88v48.75a.88.88,0,0,1-.94.93h-3.75a.88.88,0,0,1-.93-.93V443.61c0-6.94-3.85-11.63-9.85-11.63s-9.84,4.69-9.84,11.63v48.75a.88.88,0,0,1-.94.93h-3.75A.88.88,0,0,1,700.92,492.36Z" transform="translate(-299.25 -61.64)"/><path class="cls-1" d="M742.25,477.36V443.61c0-9.1,6.28-16.13,15.28-16.13h9.75a.89.89,0,0,1,.94.94v3.38a.88.88,0,0,1-.94.93h-9.75c-5.72,0-9.65,4.69-9.65,10.88v13.78H765a.89.89,0,0,1,.94.94v3.37a.89.89,0,0,1-.94.94H747.88v14.72c0,6.18,3.93,10.87,9.65,10.87h9.75a.89.89,0,0,1,.94.94v3.37a.89.89,0,0,1-.94.94h-9.75C748.53,493.48,742.25,486.45,742.25,477.36Z" transform="translate(-299.25 -61.64)"/><path class="cls-1" d="M776,477.17V443.7c0-10,6.19-17,15.75-17,9.19,0,15.19,6.85,15.56,15.94a.88.88,0,0,1-.93.94h-3.75a.84.84,0,0,1-.94-.94c-.38-6.19-4-10.69-9.94-10.69-6.28,0-10.12,4.69-10.12,11.81v33.38c0,7.12,4.22,11.81,10.31,11.81s10.31-4.69,10.31-10.87V463.58h-8.81a.89.89,0,0,1-.94-.94v-3.38a.88.88,0,0,1,.94-.93h11.62a2.57,2.57,0,0,1,2.82,2.81v17c0,9.09-6.57,16.12-15.94,16.12S776,487.2,776,477.17Z" transform="translate(-299.25 -61.64)"/><path class="cls-1" d="M816.11,476.79V444.17c0-10.31,6.56-17.34,15.94-17.34s15.93,7,15.93,16.4v34.5c0,9.38-6.56,16.41-15.93,16.41S816.11,487.11,816.11,476.79Zm26.25.94v-34.5c0-6.47-4.22-11.15-10.31-11.15s-10.31,4.68-10.31,12.09v32.62c0,7.41,4.21,12.1,10.31,12.1S842.36,484.2,842.36,477.73Z" transform="translate(-299.25 -61.64)"/><path class="cls-1" d="M857.16,478.11V442.86c0-9.66,6.1-16.13,15.28-16.13,8.82,0,15,6.94,15.28,17.35a.88.88,0,0,1-.93.93H883a.84.84,0,0,1-.94-.93c-.28-7.78-4-12.1-9.66-12.1-6.09,0-9.65,4-9.65,10.88v35.25c0,6.84,3.56,10.87,9.65,10.87s9.94-4.69,10.13-12.56a.84.84,0,0,1,.94-.94h3.75c.56,0,.93.28.93.85-.28,10.78-6.56,17.9-15.75,17.9S857.16,487.76,857.16,478.11Z" transform="translate(-299.25 -61.64)"/><path class="cls-1" d="M898.41,427.67h3.75a.88.88,0,0,1,.93.94v63.75a.88.88,0,0,1-.93.93h-3.75a.88.88,0,0,1-.94-.93V428.61A.89.89,0,0,1,898.41,427.67Z" transform="translate(-299.25 -61.64)"/><path class="cls-1" d="M914.25,476.79V444.17c0-10.31,6.56-17.34,15.93-17.34s15.94,7,15.94,16.4v34.5c0,9.38-6.56,16.41-15.94,16.41S914.25,487.11,914.25,476.79Zm26.25.94v-34.5c0-6.47-4.22-11.15-10.32-11.15s-10.31,4.68-10.31,12.09v32.62c0,7.41,4.22,12.1,10.31,12.1S940.5,484.2,940.5,477.73Z" transform="translate(-299.25 -61.64)"/><path class="cls-1" d="M953.52,453.64V432.37c0-4.3,2.54-7.36,6.63-7.36s6.66,3.06,6.66,7.36v4.42a6.26,6.26,0,0,1-6.66,6.58H956v10.27a.39.39,0,0,1-.41.41h-1.64A.39.39,0,0,1,953.52,453.64Zm6.63-12.56a4,4,0,0,0,4.21-4.29v-4.42c0-3-1.64-5.07-4.21-5.07s-4.17,2-4.17,5.07v8.71Z" transform="translate(-299.25 -61.64)"/><path class="cls-1" d="M970.66,453.64V432.41c0-4.42,2.7-7.36,6.75-7.36s6.74,2.94,6.74,7.36v21.23a.39.39,0,0,1-.41.41h-1.63a.39.39,0,0,1-.41-.41v-10h-8.59v10a.39.39,0,0,1-.41.41h-1.64A.39.39,0,0,1,970.66,453.64Zm11-12.27v-9c0-3.19-1.56-5.07-4.29-5.07s-4.3,1.88-4.3,5.07v9Z" transform="translate(-299.25 -61.64)"/><path class="cls-1" d="M989.22,453.64V432.37c0-4.3,2.74-7.36,6.71-7.36s6.71,3.06,6.71,7.36v3a6.93,6.93,0,0,1-4.13,6.74l4.7,11.42a.33.33,0,0,1-.33.49h-1.79a.44.44,0,0,1-.46-.33l-4.41-11.08h-4.54v11a.39.39,0,0,1-.41.41h-1.64A.39.39,0,0,1,989.22,453.64Zm6.67-13.3c2.58,0,4.29-2,4.29-4.94v-3c0-3-1.71-5.07-4.25-5.07s-4.25,2-4.25,5.07v8Z" transform="translate(-299.25 -61.64)"/><path class="cls-1" d="M1007.18,453.64V432.41c0-4.42,2.7-7.36,6.75-7.36s6.74,2.94,6.74,7.36v21.23a.39.39,0,0,1-.41.41h-1.63a.39.39,0,0,1-.41-.41v-10h-8.59v10a.39.39,0,0,1-.41.41h-1.64A.39.39,0,0,1,1007.18,453.64Zm11-12.27v-9c0-3.19-1.56-5.07-4.29-5.07s-4.3,1.88-4.3,5.07v9Z" transform="translate(-299.25 -61.64)"/><path class="cls-1" d="M996.71,485.08V470.35c0-4,2.74-7,6.67-7h4.25a.39.39,0,0,1,.41.41v1.47a.39.39,0,0,1-.41.41h-4.25c-2.5,0-4.22,2-4.22,4.74v6h7.49a.39.39,0,0,1,.41.41v1.48a.39.39,0,0,1-.41.41h-7.49v6.42c0,2.7,1.72,4.74,4.22,4.74h4.25a.39.39,0,0,1,.41.41v1.47a.39.39,0,0,1-.41.41h-4.25C999.45,492.11,996.71,489,996.71,485.08Z" transform="translate(-299.25 -61.64)"/><path class="cls-1" d="M1022.19,489.82a.39.39,0,0,1,.41.41v1.47a.39.39,0,0,1-.41.41h-3.68c-3.93,0-6.55-3.07-6.55-7V463.81a.39.39,0,0,1,.41-.41H1014a.39.39,0,0,1,.41.41v21.31c0,2.66,1.63,4.7,4.09,4.7Z" transform="translate(-299.25 -61.64)"/><path class="cls-1" d="M903.3,516.08c7.35,8.25,14.86,16.3,23.31,23a75.59,75.59,0,0,0,13.45,8.62A41.69,41.69,0,0,0,954.94,552a33.22,33.22,0,0,0,15-2.33,48.91,48.91,0,0,0,13.35-8.26,72.56,72.56,0,0,0,5.81-5.57,80.13,80.13,0,0,0,5.29-6.16,114,114,0,0,0,9.25-13.59,75.64,75.64,0,0,1-7.24,15A70.15,70.15,0,0,1,986,544.29,47.45,47.45,0,0,1,971.81,554a37.62,37.62,0,0,1-8.43,2.53,36.28,36.28,0,0,1-8.83.41,43.37,43.37,0,0,1-16.62-5,58.2,58.2,0,0,1-7.27-4.53c-1.17-.8-2.26-1.71-3.38-2.57s-2.15-1.83-3.19-2.78A115.09,115.09,0,0,1,903.3,516.08Z" transform="translate(-299.25 -61.64)"/><path class="cls-1" d="M898.56,541l.91-14.16,1-14.15.07-1,1.05.3c3.76,1.07,7.52,2.11,11.18,3.46s7.33,2.7,10.9,4.36l-.06.19c-3.87-.71-7.66-1.68-11.42-2.73s-7.44-2.33-11.12-3.63l1.12-.74-1.67,14.08L898.76,541Z" transform="translate(-299.25 -61.64)"/></svg>