<svg id="Capa_3" data-name="Capa 3" xmlns="http://www.w3.org/2000/svg" viewBox="0 0 1193.29 1113.72"><defs><style>.cls-1,.cls-2{fill:#fff;}.cls-2{stroke:#fff;}</style></defs><title>LogoTipo</title><path class="cls-1" d="M1581.81,369.86V250.38l-65-13.87V371.33h0c0,1.88.11,3.75.2,5.61h65.11C1581.93,374.61,1581.81,372.25,1581.81,369.86Z" transform="translate(-1437.59 125.72)"/><path class="cls-1" d="M1675.72,296.12a75.93,75.93,0,0,1,57.14,63.13L1798.55,373c0-1,.07-2.06.07-3.1a140.94,140.94,0,0,0-109.37-137.33Z" transform="translate(-1437.59 125.72)"/><path class="cls-1" d="M1657.71,294a76.24,76.24,0,0,1,11.08.82l13.54-63.64a141.61,141.61,0,0,0-24.62-2.18c-23.49,0-52.16,8-68.69,18.15v89.78C1603.37,308.32,1630.06,294,1657.71,294Z" transform="translate(-1437.59 125.72)"/><polygon class="cls-1" points="144.22 368.88 144.22 247.28 79.21 203.18 79.21 355.01 144.22 368.88"/><path class="cls-1" d="M1733.54,366.61c0,1.08.08,2.16.08,3.25a75.91,75.91,0,0,1-75.91,75.9c-1.1,0-2.19,0-3.29-.08l13.44,64.68A140.87,140.87,0,0,0,1798.21,380.1Z" transform="translate(-1437.59 125.72)"/><path class="cls-1" d="M1647.07,445a75.94,75.94,0,0,1-63.9-60.84h-65.59a140.88,140.88,0,0,0,140.13,126.61c1,0,2-.06,3-.08Z" transform="translate(-1437.59 125.72)"/><ellipse class="cls-1" cx="46.51" cy="362.23" rx="32.7" ry="10.82"/><path class="cls-1" d="M1563.39,758.72c0-8.6,6.65-15.68,16.55-15.68h10.57V736c0-6.31-3.81-10.89-10.24-10.89-5.77,0-9.37,4-9.8,10-.11.76-.43,1.09-1.09,1.09h-4a1,1,0,0,1-1.08-1.09c.54-9.26,6.63-16,16-16,10,0,16.45,7.3,16.45,16.88v22.76c0,9.7-6.54,16.88-16.56,16.88S1563.39,768.42,1563.39,758.72Zm27.12,0V749h-10.57c-6.42,0-10.34,4.36-10.34,9.69,0,6.43,3.92,10.89,10.56,10.89S1590.51,765.15,1590.51,758.72Z" transform="translate(-1437.59 125.72)"/><path class="cls-1" d="M1607.6,773.53V736.18c0-9.8,6.54-17.1,16.23-17.1s16.23,7.3,16.23,17.1v37.35a1,1,0,0,1-1.09,1.09h-4a1,1,0,0,1-1.09-1.09V736.18c0-6.64-3.81-11.22-10-11.22s-10,4.58-10,11.22v37.35a1,1,0,0,1-1.09,1.09h-4A1,1,0,0,1,1607.6,773.53Z" transform="translate(-1437.59 125.72)"/><path class="cls-1" d="M1650.18,758.72c0-8.6,6.64-15.68,16.55-15.68h10.57V736c0-6.31-3.81-10.89-10.24-10.89-5.77,0-9.37,4-9.8,10-.11.76-.44,1.09-1.09,1.09h-4a1,1,0,0,1-1.09-1.09c.54-9.26,6.64-16,16-16,10,0,16.44,7.3,16.44,16.88v22.76c0,9.7-6.53,16.88-16.55,16.88S1650.18,768.42,1650.18,758.72Zm27.12,0V749h-10.57c-6.42,0-10.34,4.36-10.34,9.69,0,6.43,3.92,10.89,10.56,10.89S1677.3,765.15,1677.3,758.72Z" transform="translate(-1437.59 125.72)"/><path class="cls-1" d="M1695.48,773.53v-74a1,1,0,0,1,1.09-1.09h4a1,1,0,0,1,1.09,1.09v74a1,1,0,0,1-1.09,1.09h-4A1,1,0,0,1,1695.48,773.53Z" transform="translate(-1437.59 125.72)"/><path class="cls-1" d="M1747.65,721.26V780.4c0,10.23-6.65,17.09-16.56,17.09-9.47,0-16.12-6.86-16.55-17.09a1,1,0,0,1,1.09-1.09h4a1,1,0,0,1,1.08,1.09c.22,7,4,11.1,10.35,11.1,6.53,0,10.35-4.13,10.35-11.1V768c-2.62,3.38-6.21,5.55-10.35,5.55-9.91,0-16.55-7.29-16.55-17.09V721.26a1,1,0,0,1,1.09-1.09h4a1,1,0,0,1,1.08,1.09v35.18c0,6.53,3.93,11.11,10.35,11.11s10.35-4.58,10.35-11.11V721.26a1,1,0,0,1,1.08-1.09h4A1,1,0,0,1,1747.65,721.26Z" transform="translate(-1437.59 125.72)"/><path class="cls-1" d="M1782.05,769.94v3.81a1,1,0,0,1-1.08,1.09h-1.42c-9.7,0-15.36-6.75-15.36-18.3V726.05h-6.75a1,1,0,0,1-1.09-1.09v-3.7a1,1,0,0,1,1.09-1.09h6.75V706a1,1,0,0,1,1.09-1.09h4a1,1,0,0,1,1.09,1.09v14.16h9.25a1,1,0,0,1,1.09,1.09V725a1,1,0,0,1-1.09,1.09h-9.25v30.49c0,8.06,3.16,12.31,9.15,12.31H1781A1,1,0,0,1,1782.05,769.94Z" transform="translate(-1437.59 125.72)"/><path class="cls-1" d="M1790.43,708.84a4.06,4.06,0,0,1,4.25-4.24,4.12,4.12,0,0,1,4.25,4.24,4.25,4.25,0,0,1-4.25,4.25A4.12,4.12,0,0,1,1790.43,708.84Zm1.2,64.69V721.26a1,1,0,0,1,1.09-1.09h4a1,1,0,0,1,1.09,1.09v52.27a1,1,0,0,1-1.09,1.09h-4A1,1,0,0,1,1791.63,773.53Z" transform="translate(-1437.59 125.72)"/><path class="cls-1" d="M1808.94,758.61V736.18c0-9.8,6.54-17.1,16.34-17.1,9.48,0,15.79,6.75,16.34,16a1,1,0,0,1-1.09,1.09h-4a1,1,0,0,1-1.09-1.09c-.44-6-4.14-10-10.13-10-6.31,0-10.12,4.58-10.12,11.11v22.43c0,6.54,3.91,11.11,10.34,11.11,6.1,0,9.91-4.46,10.35-11.11a1,1,0,0,1,1.09-1.08h4a1,1,0,0,1,1.09,1.08c-.54,9.92-7,17.1-16.55,17.1C1815.59,775.71,1808.94,768.42,1808.94,758.61Z" transform="translate(-1437.59 125.72)"/><path class="cls-1" d="M1848.91,758.61a1,1,0,0,1,1.09-1.08h4a1,1,0,0,1,1.09,1.08c.32,7.41,4,11.11,11.21,11.11,6.54,0,9.8-3.59,9.8-8.71,0-13.18-26.68-9-26.68-27.23,0-7.95,6.21-14.7,15.69-14.7,10.67,0,16,6.32,16.44,16a1,1,0,0,1-1.09,1.09h-4a1,1,0,0,1-1.09-1.09c-.32-5.77-3.59-10-9.91-10-5.88,0-9.8,3.59-9.8,8.71,0,12.64,26.69,8.5,26.69,27.23,0,8-6.32,14.7-16,14.7C1855.88,775.71,1849.34,769,1848.91,758.61Z" transform="translate(-1437.59 125.72)"/><path class="cls-1" d="M1482.22,622.33c7.67-3.74,12.31-12.38,12.31-23.34v-8.37c0-18.12-11.61-30.3-28.9-30.3-16.77,0-28,12.18-28,30.3v89.56a6.15,6.15,0,0,0,6.43,6.43h23.87c17.71,0,29.61-12.24,29.61-30.47V647.6C1497.5,636.18,1491.6,626.59,1482.22,622.33Zm-.55-23.34c0,11.52-5.91,18.13-16.22,18.13h-15v-26.5c0-11.52,5.53-18.13,15.18-18.13,10.2,0,16,6.61,16,18.13Zm-31.22,30.3h17.44c10.64,0,16.75,6.67,16.75,18.31v8.54c0,11.63-6.11,18.31-16.75,18.31h-17.44Z" transform="translate(-1437.59 125.72)"/><path class="cls-1" d="M1536.36,595c-15.09,0-25.87,10.75-26.81,26.81a2.85,2.85,0,0,0,2.94,3h6.45c1.16,0,2.61-.48,2.94-2.86.67-9.2,6.22-14.91,14.48-14.91,9.22,0,15.18,6.36,15.18,16.22v10.12h-15.7c-15.78,0-27.69,11.3-27.69,26.29,0,16.61,11.53,28.21,28,28.21,16.3,0,27.69-11.6,27.69-28.21V623.21C1563.88,606.6,1552.56,595,1536.36,595Zm-.52,50.32h15.7v14.3c0,10-5.88,16.22-15.35,16.22-9.68,0-15.7-6.21-15.7-16.22C1520.49,651.2,1526.8,645.32,1535.84,645.32Z" transform="translate(-1437.59 125.72)"/><path class="cls-1" d="M1644.91,595A22.75,22.75,0,0,0,1625,606.74c-4.47-7.4-11.81-11.74-20-11.74-15.38,0-26.12,11.74-26.12,28.55v59.77a2.84,2.84,0,0,0,2.95,2.94h6.44a2.84,2.84,0,0,0,3-2.94V623.55c0-10.21,5.28-16.56,13.78-16.56s13.78,6.35,13.78,16.56v59.77a2.84,2.84,0,0,0,3,2.94h6.44a2.84,2.84,0,0,0,3-2.94V623.55c0-10.21,5.28-16.56,13.78-16.56s13.78,6.35,13.78,16.56v59.77a2.84,2.84,0,0,0,3,2.94h6.44a2.84,2.84,0,0,0,3-2.94V623.55C1671,606.74,1660.29,595,1644.91,595Z" transform="translate(-1437.59 125.72)"/><path class="cls-1" d="M1714.25,595a21.89,21.89,0,0,0-15.52,6.77V564.84a2.85,2.85,0,0,0-2.94-3h-6.45a2.85,2.85,0,0,0-2.95,3v94.61c0,16.81,11.46,28.56,27.86,28.56s27.87-11.75,27.87-28.56v-35.9C1742.12,606.74,1730.66,595,1714.25,595Zm0,12c9.43,0,15.53,6.5,15.53,16.56v35.9c0,10.07-6.1,16.57-15.53,16.57s-15.52-6.5-15.52-16.57v-35.9C1698.73,613.49,1704.82,607,1714.25,607Z" transform="translate(-1437.59 125.72)"/><path class="cls-1" d="M1783.42,595c-16.5,0-28,11.74-28,28.55v35.9c0,16.81,11.53,28.56,28,28.56s28-11.75,28-28.56v-35.9C1811.46,606.74,1799.93,595,1783.42,595Zm-15.52,28.55c0-10.32,5.95-16.74,15.52-16.74s15.53,6.42,15.53,16.74v35.9c0,10.33-6,16.74-15.53,16.74s-15.52-6.41-15.52-16.74Z" transform="translate(-1437.59 125.72)"/><path class="cls-1" d="M1852.76,595c-16.5,0-28,11.74-28,28.55v35.9c0,16.81,11.53,28.56,28,28.56s28-11.75,28-28.56v-35.9C1880.8,606.74,1869.27,595,1852.76,595Zm-15.52,28.55c0-10.32,6-16.74,15.52-16.74s15.53,6.42,15.53,16.74v35.9c0,10.33-6,16.74-15.53,16.74s-15.52-6.41-15.52-16.74Z" transform="translate(-1437.59 125.72)"/><rect class="cls-1" x="513.46" width="10.7" height="1113.72"/><path class="cls-2" d="M2046.76,289.77a1.45,1.45,0,0,1,1.53-1.53h6.13a1.45,1.45,0,0,1,1.54,1.53c.46,13.49,6.13,20.54,16.55,20.54,10.73,0,16.24-5.52,16.24-16.1,0-26.2-41.22-32-41.22-61.91,0-14.26,9.81-23.76,24.67-23.76,14,0,23.6,11.34,24.37,28.35a1.45,1.45,0,0,1-1.53,1.54h-6.13a1.45,1.45,0,0,1-1.53-1.54c-.62-13.48-6-19.77-15.18-19.77-10.11,0-15.48,5.21-15.48,15.18,0,24.67,41.23,30.34,41.23,61.91,0,14.87-10.12,24.68-25.44,24.68C2057.49,318.89,2047.22,307.24,2046.76,289.77Z" transform="translate(-1437.59 125.72)"/><path class="cls-2" d="M2111,290.38V237.05c0-16.86,10.73-28.36,26.05-28.36s26.06,11.5,26.06,26.83v56.39c0,15.33-10.73,26.82-26.06,26.82S2111,307.24,2111,290.38Zm42.91,1.53V235.52c0-10.58-6.9-18.24-16.86-18.24s-16.86,7.66-16.86,19.77v53.33c0,12.11,6.9,19.77,16.86,19.77S2153.89,302.49,2153.89,291.91Z" transform="translate(-1437.59 125.72)"/><path class="cls-2" d="M2218.41,309.08a1.45,1.45,0,0,1,1.54,1.53v5.52a1.45,1.45,0,0,1-1.54,1.53h-13.79c-14.71,0-24.52-11.49-24.52-26.2V211.61a1.45,1.45,0,0,1,1.53-1.54h6.13a1.45,1.45,0,0,1,1.53,1.54v79.85c0,10,6.13,17.62,15.33,17.62Z" transform="translate(-1437.59 125.72)"/><path class="cls-2" d="M2236,210.07a1.45,1.45,0,0,1,1.53,1.54V291.3c0,11.34,6.29,19,16.09,19s16.1-7.67,16.1-19V211.61a1.45,1.45,0,0,1,1.53-1.54h6.13a1.45,1.45,0,0,1,1.53,1.54V291.3c0,16.09-10,27.59-25.29,27.59s-25.28-11.5-25.28-27.59V211.61a1.45,1.45,0,0,1,1.53-1.54Z" transform="translate(-1437.59 125.72)"/><path class="cls-2" d="M2296,292.53V234.9c0-15.78,10-26.36,25-26.36,14.4,0,24.52,11.34,25,28.35a1.46,1.46,0,0,1-1.54,1.54h-6.13a1.38,1.38,0,0,1-1.53-1.54c-.46-12.72-6.59-19.77-15.78-19.77-10,0-15.79,6.59-15.79,17.78v57.63c0,11.19,5.82,17.78,15.79,17.78s16.24-7.67,16.55-20.54a1.37,1.37,0,0,1,1.53-1.53h6.13c.92,0,1.53.46,1.53,1.38-.46,17.62-10.73,29.27-25.74,29.27S2296,308.31,2296,292.53Z" transform="translate(-1437.59 125.72)"/><path class="cls-2" d="M2363.4,210.07h6.13a1.45,1.45,0,0,1,1.53,1.54V315.82a1.45,1.45,0,0,1-1.53,1.54h-6.13a1.45,1.45,0,0,1-1.53-1.54V211.61A1.45,1.45,0,0,1,2363.4,210.07Z" transform="translate(-1437.59 125.72)"/><path class="cls-2" d="M2389.3,290.38V237.05c0-16.86,10.73-28.36,26.06-28.36s26,11.5,26,26.83v56.39c0,15.33-10.73,26.82-26,26.82S2389.3,307.24,2389.3,290.38Zm42.91,1.53V235.52c0-10.58-6.89-18.24-16.85-18.24s-16.86,7.66-16.86,19.77v53.33c0,12.11,6.89,19.77,16.86,19.77S2432.21,302.49,2432.21,291.91Z" transform="translate(-1437.59 125.72)"/><path class="cls-2" d="M2458.42,315.82V236.13c0-16.09,10-27.59,25.29-27.59S2509,220,2509,236.13v79.69a1.46,1.46,0,0,1-1.54,1.54h-6.13a1.45,1.45,0,0,1-1.53-1.54V236.13c0-11.34-6.28-19-16.09-19s-16.09,7.67-16.09,19v79.69a1.46,1.46,0,0,1-1.54,1.54H2460A1.45,1.45,0,0,1,2458.42,315.82Z" transform="translate(-1437.59 125.72)"/><path class="cls-2" d="M2526,291.3V236.13c0-14.87,10.27-26.36,25-26.36h15.94a1.44,1.44,0,0,1,1.53,1.53v5.52a1.44,1.44,0,0,1-1.53,1.53H2551c-9.35,0-15.78,7.66-15.78,17.78v22.53h28a1.44,1.44,0,0,1,1.53,1.53v5.52a1.44,1.44,0,0,1-1.53,1.53h-28V291.3c0,10.12,6.43,17.78,15.78,17.78h15.94a1.44,1.44,0,0,1,1.53,1.53v5.52a1.44,1.44,0,0,1-1.53,1.53H2551C2536.28,317.66,2526,306.17,2526,291.3Z" transform="translate(-1437.59 125.72)"/><path class="cls-2" d="M2579.19,289.77a1.44,1.44,0,0,1,1.53-1.53h6.13a1.45,1.45,0,0,1,1.54,1.53c.46,13.49,6.13,20.54,16.55,20.54,10.73,0,16.24-5.52,16.24-16.1,0-26.2-41.22-32-41.22-61.91,0-14.26,9.8-23.76,24.67-23.76,13.95,0,23.6,11.34,24.37,28.35a1.45,1.45,0,0,1-1.53,1.54h-6.13a1.46,1.46,0,0,1-1.54-1.54c-.61-13.48-6-19.77-15.17-19.77-10.11,0-15.48,5.21-15.48,15.18,0,24.67,41.23,30.34,41.23,61.91,0,14.87-10.12,24.68-25.44,24.68C2589.92,318.89,2579.65,307.24,2579.19,289.77Z" transform="translate(-1437.59 125.72)"/><path class="cls-2" d="M2065.13,393.49v2.42a.64.64,0,0,1-.67.67h-8.07v42.64a.64.64,0,0,1-.67.68H2053a.64.64,0,0,1-.68-.68V396.58h-8.07a.64.64,0,0,1-.67-.67v-2.42a.64.64,0,0,1,.67-.68h20.18A.64.64,0,0,1,2065.13,393.49Z" transform="translate(-1437.59 125.72)"/><path class="cls-2" d="M2068,428.46V404.25c0-6.53,4.5-11.57,11-11.57h7a.64.64,0,0,1,.68.67v2.42a.64.64,0,0,1-.68.68h-7c-4.1,0-6.93,3.36-6.93,7.8v9.89h12.31a.64.64,0,0,1,.67.67v2.42a.64.64,0,0,1-.67.67h-12.31v10.56c0,4.44,2.83,7.81,6.93,7.81h7a.63.63,0,0,1,.68.67v2.42a.64.64,0,0,1-.68.67h-7C2072.53,440,2068,435,2068,428.46Z" transform="translate(-1437.59 125.72)"/><path class="cls-2" d="M2092.24,429V403.71c0-6.93,4.37-11.57,11-11.57,6.32,0,10.76,5,11,12.45a.64.64,0,0,1-.68.67h-2.69a.6.6,0,0,1-.67-.67c-.2-5.59-2.89-8.68-6.93-8.68-4.37,0-6.93,2.89-6.93,7.8V429c0,4.91,2.56,7.8,6.93,7.8s7.13-3.36,7.27-9a.6.6,0,0,1,.67-.67h2.69c.4,0,.67.2.67.6-.2,7.74-4.71,12.85-11.3,12.85S2092.24,435.93,2092.24,429Z" transform="translate(-1437.59 125.72)"/><path class="cls-2" d="M2120.62,439.22v-35c0-7.06,4.37-12.11,11.1-12.11s11.1,5.05,11.1,12.11v35a.64.64,0,0,1-.67.68h-2.69a.64.64,0,0,1-.68-.68v-35c0-5-2.75-8.34-7.06-8.34s-7.06,3.36-7.06,8.34v35a.64.64,0,0,1-.67.68h-2.7A.64.64,0,0,1,2120.62,439.22Z" transform="translate(-1437.59 125.72)"/><path class="cls-2" d="M2150.29,428.06V404.65c0-7.4,4.7-12.44,11.43-12.44s11.43,5,11.43,11.77v24.75c0,6.73-4.7,11.77-11.43,11.77S2150.29,435.46,2150.29,428.06Zm18.83.67V404c0-4.64-3-8-7.4-8s-7.4,3.36-7.4,8.67v23.41c0,5.31,3,8.68,7.4,8.68S2169.12,433.37,2169.12,428.73Z" transform="translate(-1437.59 125.72)"/><path class="cls-2" d="M2197.43,436.27a.63.63,0,0,1,.68.67v2.42a.64.64,0,0,1-.68.67h-6c-6.46,0-10.76-5-10.76-11.5v-35a.64.64,0,0,1,.67-.68H2184a.64.64,0,0,1,.67.68v35c0,4.37,2.69,7.74,6.73,7.74Z" transform="translate(-1437.59 125.72)"/><path class="cls-2" d="M2200.86,428.06V404.65c0-7.4,4.71-12.44,11.44-12.44s11.43,5,11.43,11.77v24.75c0,6.73-4.71,11.77-11.43,11.77S2200.86,435.46,2200.86,428.06Zm18.84.67V404c0-4.64-3-8-7.4-8s-7.4,3.36-7.4,8.67v23.41c0,5.31,3,8.68,7.4,8.68S2219.7,433.37,2219.7,428.73Zm-10.09-41.36,4.64-6.12a.92.92,0,0,1,.87-.41h3.1c.54,0,.74.41.33.81l-5.44,6.12a1,1,0,0,1-.81.4H2210C2209.47,388.17,2209.27,387.77,2209.61,387.37Z" transform="translate(-1437.59 125.72)"/><path class="cls-2" d="M2230.32,428.33v-24c0-7.2,4.44-12.18,11.3-12.18,6.59,0,10.9,4.91,11.17,11.44a.64.64,0,0,1-.67.67h-2.69a.6.6,0,0,1-.68-.67c-.27-4.44-2.89-7.67-7.13-7.67-4.5,0-7.26,3.36-7.26,8.47v23.95c0,5.11,3,8.47,7.4,8.47s7.4-3.36,7.4-7.8V418.58h-6.33a.64.64,0,0,1-.67-.68v-2.42a.64.64,0,0,1,.67-.67h8.34a1.84,1.84,0,0,1,2,2V429a11.17,11.17,0,0,1-11.43,11.57C2235,440.57,2230.32,435.53,2230.32,428.33Z" transform="translate(-1437.59 125.72)"/><path class="cls-2" d="M2261.2,392.81h2.69a.64.64,0,0,1,.67.68v45.73a.64.64,0,0,1-.67.68h-2.69a.64.64,0,0,1-.68-.68V393.49A.64.64,0,0,1,2261.2,392.81Z" transform="translate(-1437.59 125.72)"/><path class="cls-2" d="M2272.56,429V403.71c0-6.93,4.38-11.57,11-11.57,6.32,0,10.76,5,11,12.45a.64.64,0,0,1-.67.67h-2.69a.6.6,0,0,1-.67-.67c-.21-5.59-2.9-8.68-6.93-8.68-4.38,0-6.93,2.89-6.93,7.8V429c0,4.91,2.55,7.8,6.93,7.8s7.13-3.36,7.26-9a.6.6,0,0,1,.67-.67h2.69c.41,0,.68.2.68.6-.2,7.74-4.71,12.85-11.3,12.85S2272.56,435.93,2272.56,429Z" transform="translate(-1437.59 125.72)"/><path class="cls-2" d="M2301,439.22v-34.9c0-7.27,4.44-12.11,11.09-12.11s11.1,4.84,11.1,12.11v34.9a.63.63,0,0,1-.67.68h-2.69a.64.64,0,0,1-.67-.68V422.81H2305v16.41a.64.64,0,0,1-.67.68h-2.69A.64.64,0,0,1,2301,439.22Zm18.16-20.17V404.32c0-5.25-2.56-8.34-7.07-8.34s-7.06,3.09-7.06,8.34v14.73Z" transform="translate(-1437.59 125.72)"/><path class="cls-2" d="M2329.73,427.79a.64.64,0,0,1,.68-.67h2.69a.64.64,0,0,1,.67.67c.2,5.92,2.69,9,7.27,9s7.12-2.42,7.12-7.06c0-11.5-18.09-14.06-18.09-27.17,0-6.26,4.31-10.43,10.83-10.43,6.12,0,10.36,5,10.69,12.45a.63.63,0,0,1-.67.67h-2.69a.64.64,0,0,1-.67-.67c-.27-5.92-2.62-8.68-6.66-8.68-4.44,0-6.79,2.29-6.79,6.66,0,10.83,18.09,13.32,18.09,27.17,0,6.53-4.44,10.83-11.16,10.83S2329.94,435.46,2329.73,427.79Z" transform="translate(-1437.59 125.72)"/><path class="cls-2" d="M2381.6,437.15V357.71a3.38,3.38,0,0,1,3.7-3.7H2402c12.45,0,20.1,9.25,20.1,21.59v43.79c0,12.21-7.89,21.46-20.1,21.46H2385.3A3.38,3.38,0,0,1,2381.6,437.15Zm20.36-3.21c7.77,0,12.7-6.16,12.7-14.55V375.6c0-8.51-4.81-14.68-12.7-14.68h-13v73Z" transform="translate(-1437.59 125.72)"/><path class="cls-2" d="M2434.15,419.63v-44.4c0-12,8.27-21.22,20.11-21.22h12.83a1.16,1.16,0,0,1,1.23,1.23v4.44a1.17,1.17,0,0,1-1.23,1.24h-12.83c-7.53,0-12.71,6.17-12.71,14.31v18.13h22.58a1.16,1.16,0,0,1,1.23,1.23V399a1.17,1.17,0,0,1-1.23,1.24h-22.58v19.36c0,8.15,5.18,14.31,12.71,14.31h12.83a1.17,1.17,0,0,1,1.23,1.24v4.44a1.16,1.16,0,0,1-1.23,1.23h-12.83C2442.42,440.85,2434.15,431.6,2434.15,419.63Z" transform="translate(-1437.59 125.72)"/><path class="cls-2" d="M2477,418.4a1.16,1.16,0,0,1,1.23-1.23h4.93a1.17,1.17,0,0,1,1.24,1.23c.37,10.85,4.93,16.53,13.32,16.53,8.63,0,13.07-4.44,13.07-12.95,0-21.1-33.18-25.78-33.18-49.84,0-11.47,7.9-19.12,19.86-19.12,11.23,0,19,9.13,19.61,22.82a1.17,1.17,0,0,1-1.23,1.24h-4.93a1.18,1.18,0,0,1-1.24-1.24c-.49-10.85-4.81-15.91-12.21-15.91-8.14,0-12.46,4.2-12.46,12.21,0,19.86,33.19,24.43,33.19,49.84,0,12-8.15,19.86-20.48,19.86C2485.59,441.84,2477.33,432.46,2477,418.4Z" transform="translate(-1437.59 125.72)"/><path class="cls-2" d="M2531.23,437.15V357.71a3.38,3.38,0,0,1,3.7-3.7h16.65c12.46,0,20.11,9.25,20.11,21.59v43.79c0,12.21-7.9,21.46-20.11,21.46h-16.65A3.38,3.38,0,0,1,2531.23,437.15Zm20.35-3.21c7.77,0,12.71-6.16,12.71-14.55V375.6c0-8.51-4.81-14.68-12.71-14.68h-12.95v73Z" transform="translate(-1437.59 125.72)"/><path class="cls-2" d="M2583.78,419.63v-44.4c0-12,8.26-21.22,20.11-21.22h12.82a1.16,1.16,0,0,1,1.24,1.23v4.44a1.17,1.17,0,0,1-1.24,1.24h-12.82c-7.53,0-12.71,6.17-12.71,14.31v18.13h22.57a1.17,1.17,0,0,1,1.24,1.23V399a1.18,1.18,0,0,1-1.24,1.24h-22.57v19.36c0,8.15,5.18,14.31,12.71,14.31h12.82a1.17,1.17,0,0,1,1.24,1.24v4.44a1.16,1.16,0,0,1-1.24,1.23h-12.82C2592,440.85,2583.78,431.6,2583.78,419.63Z" transform="translate(-1437.59 125.72)"/><path class="cls-2" d="M2045.05,517.16V493c0-6.53,4.5-11.57,11-11.57h7a.64.64,0,0,1,.67.67v2.42a.64.64,0,0,1-.67.68h-7c-4.1,0-6.93,3.36-6.93,7.8v9.89h12.31a.63.63,0,0,1,.68.67v2.42a.64.64,0,0,1-.68.67h-12.31v10.56c0,4.44,2.83,7.8,6.93,7.8h7a.64.64,0,0,1,.67.68v2.42a.64.64,0,0,1-.67.67h-7C2049.55,528.73,2045.05,523.69,2045.05,517.16Z" transform="translate(-1437.59 125.72)"/><path class="cls-2" d="M2087,525a.63.63,0,0,1,.67.68v2.42a.63.63,0,0,1-.67.67h-6c-6.46,0-10.76-5-10.76-11.5v-35a.64.64,0,0,1,.67-.68h2.69a.64.64,0,0,1,.67.68v35c0,4.37,2.69,7.73,6.73,7.73Z" transform="translate(-1437.59 125.72)"/><path class="cls-2" d="M2098.19,582.67V502.51c0-16.19,10-27.75,25.44-27.75s25.43,11.56,25.43,27.75v80.16a1.45,1.45,0,0,1-1.54,1.54h-6.16a1.46,1.46,0,0,1-1.55-1.54V502.51c0-11.41-6.32-19.12-16.18-19.12s-16.19,7.71-16.19,19.12v80.16a1.46,1.46,0,0,1-1.54,1.54h-6.17A1.46,1.46,0,0,1,2098.19,582.67Z" transform="translate(-1437.59 125.72)"/><path class="cls-2" d="M2166.17,558V502.51c0-15,10.33-26.52,25.13-26.52h16a1.46,1.46,0,0,1,1.54,1.54v5.55a1.45,1.45,0,0,1-1.54,1.54h-16c-9.4,0-15.88,7.71-15.88,17.89v22.66h28.22a1.45,1.45,0,0,1,1.54,1.54v5.55a1.46,1.46,0,0,1-1.54,1.54h-28.22V558c0,10.18,6.48,17.89,15.88,17.89h16a1.45,1.45,0,0,1,1.54,1.54V583a1.46,1.46,0,0,1-1.54,1.54h-16C2176.5,584.52,2166.17,573,2166.17,558Z" transform="translate(-1437.59 125.72)"/><path class="cls-2" d="M2221.67,557.7v-55c0-16.49,10.17-27.9,25.9-27.9,15.11,0,25,11.25,25.59,26.2a1.46,1.46,0,0,1-1.54,1.55h-6.17a1.39,1.39,0,0,1-1.54-1.55c-.62-10.17-6.63-17.57-16.34-17.57-10.33,0-16.65,7.71-16.65,19.42V557.7c0,11.71,6.94,19.42,17,19.42s16.95-7.71,16.95-17.88v-23.9h-14.49a1.45,1.45,0,0,1-1.54-1.54v-5.55a1.46,1.46,0,0,1,1.54-1.54h19.12c2.93,0,4.62,1.7,4.62,4.62v27.91c0,15-10.79,26.51-26.2,26.51S2221.67,574.19,2221.67,557.7Z" transform="translate(-1437.59 125.72)"/><path class="cls-2" d="M2287.65,557.08V503.43c0-17,10.79-28.52,26.21-28.52s26.2,11.56,26.2,27v56.73c0,15.42-10.79,27-26.2,27S2287.65,574,2287.65,557.08Zm43.16,1.54V501.89c0-10.64-6.93-18.35-16.95-18.35s-17,7.71-17,19.89v53.65c0,12.18,6.94,19.89,17,19.89S2330.81,569.26,2330.81,558.62Z" transform="translate(-1437.59 125.72)"/><path class="cls-2" d="M2355.17,559.24v-58c0-15.88,10-26.51,25.13-26.51,14.49,0,24.66,11.41,25.13,28.52a1.46,1.46,0,0,1-1.55,1.54h-6.16a1.38,1.38,0,0,1-1.54-1.54c-.47-12.8-6.63-19.89-15.88-19.89-10,0-15.88,6.63-15.88,17.88v58c0,11.25,5.86,17.88,15.88,17.88s16.34-7.71,16.65-20.66a1.38,1.38,0,0,1,1.54-1.54h6.16c.93,0,1.55.46,1.55,1.39-.47,17.73-10.79,29.44-25.9,29.44S2355.17,575.12,2355.17,559.24Z" transform="translate(-1437.59 125.72)"/><path class="cls-2" d="M2423,476.3h6.17a1.46,1.46,0,0,1,1.54,1.54V582.67a1.46,1.46,0,0,1-1.54,1.54H2423a1.45,1.45,0,0,1-1.54-1.54V477.84A1.45,1.45,0,0,1,2423,476.3Z" transform="translate(-1437.59 125.72)"/><path class="cls-2" d="M2449.05,557.08V503.43c0-17,10.79-28.52,26.21-28.52s26.21,11.56,26.21,27v56.73c0,15.42-10.8,27-26.21,27S2449.05,574,2449.05,557.08Zm43.17,1.54V501.89c0-10.64-6.94-18.35-17-18.35s-17,7.71-17,19.89v53.65c0,12.18,6.94,19.89,17,19.89S2492.22,569.26,2492.22,558.62Z" transform="translate(-1437.59 125.72)"/><path class="cls-2" d="M2513.65,519V484c0-7.06,4.17-12.1,10.89-12.1s11,5,11,12.1v7.27c0,6.39-4.31,10.83-11,10.83h-6.86V519a.64.64,0,0,1-.67.67h-2.69A.64.64,0,0,1,2513.65,519Zm10.89-20.65c4.17,0,6.93-2.76,6.93-7.06V484c0-5-2.69-8.34-6.93-8.34s-6.86,3.37-6.86,8.34v14.33Z" transform="translate(-1437.59 125.72)"/><path class="cls-2" d="M2541.83,519V484.08c0-7.26,4.44-12.11,11.1-12.11s11.09,4.85,11.09,12.11V519a.64.64,0,0,1-.67.67h-2.69a.64.64,0,0,1-.67-.67V502.58h-14.13V519a.64.64,0,0,1-.67.67h-2.69A.64.64,0,0,1,2541.83,519ZM2560,498.81V484.08c0-5.25-2.56-8.34-7.06-8.34s-7.07,3.09-7.07,8.34v14.73Z" transform="translate(-1437.59 125.72)"/><path class="cls-2" d="M2572.36,519V484c0-7.06,4.51-12.1,11-12.1s11,5,11,12.1v5c0,5.58-2.9,9.48-6.8,11.1l7.74,18.77a.53.53,0,0,1-.54.8h-3a.7.7,0,0,1-.74-.54l-7.26-18.22h-7.47V519a.64.64,0,0,1-.67.67H2573A.64.64,0,0,1,2572.36,519Zm11-21.86c4.24,0,7.06-3.36,7.06-8.14v-5c0-5-2.82-8.34-7-8.34s-7,3.37-7,8.34v13.12Z" transform="translate(-1437.59 125.72)"/><path class="cls-2" d="M2601.89,519V484.08c0-7.26,4.44-12.11,11.1-12.11s11.1,4.85,11.1,12.11V519a.64.64,0,0,1-.67.67h-2.7a.64.64,0,0,1-.67-.67V502.58h-14.12V519a.64.64,0,0,1-.68.67h-2.69A.64.64,0,0,1,2601.89,519Zm18.16-20.18V484.08c0-5.25-2.55-8.34-7.06-8.34s-7.06,3.09-7.06,8.34v14.73Z" transform="translate(-1437.59 125.72)"/><path class="cls-2" d="M2584.67,570.7V546.48c0-6.52,4.51-11.56,11-11.56h7a.62.62,0,0,1,.67.67V538a.63.63,0,0,1-.67.67h-7c-4.11,0-6.93,3.36-6.93,7.8v9.89H2601a.64.64,0,0,1,.67.67v2.43a.64.64,0,0,1-.67.67h-12.31V570.7c0,4.44,2.82,7.8,6.93,7.8h7a.63.63,0,0,1,.67.67v2.42a.63.63,0,0,1-.67.68h-7C2589.18,582.27,2584.67,577.22,2584.67,570.7Z" transform="translate(-1437.59 125.72)"/><path class="cls-2" d="M2626.58,578.5a.64.64,0,0,1,.67.67v2.42a.64.64,0,0,1-.67.68h-6.06c-6.45,0-10.76-5-10.76-11.5v-35a.64.64,0,0,1,.67-.67h2.69a.64.64,0,0,1,.68.67v35c0,4.37,2.69,7.73,6.72,7.73Z" transform="translate(-1437.59 125.72)"/><path class="cls-1" d="M2431.06,621.68c11.55,14,23.66,27.49,37.51,38.85a119.3,119.3,0,0,0,22.25,14.59,68.21,68.21,0,0,0,25,7.24,54.83,54.83,0,0,0,25.47-4c8.12-3.22,15.5-8.26,22.22-14.06a120.21,120.21,0,0,0,9.5-9.39q4.53-5,8.56-10.38a168.94,168.94,0,0,0,14.55-22.81,132.4,132.4,0,0,1-12.54,24.22,120,120,0,0,1-17.44,21.25,79,79,0,0,1-23,15.55,59,59,0,0,1-27.66,4.64,71.79,71.79,0,0,1-26.78-8,100.46,100.46,0,0,1-11.83-7.26c-1-.65-1.89-1.31-2.8-2l-2.74-2.09c-1.77-1.47-3.55-2.93-5.26-4.46C2452.33,651.28,2440.94,636.88,2431.06,621.68Z" transform="translate(-1437.59 125.72)"/><path class="cls-1" d="M2423.31,662.59l1.77-23.26,1.86-23.24L2427,615l1.05.32,9.22,2.77c1.54.46,3.06,1,4.59,1.46s3,1,4.56,1.51c3,1,6.07,2.09,9.08,3.21s6,2.22,9,3.44l-.06.19c-3.14-.73-6.25-1.54-9.34-2.39s-6.19-1.72-9.27-2.62c-1.54-.45-3.07-.92-4.6-1.4s-3.07-.94-4.59-1.45l-9.13-3.06,1.14-.75-2.54,23.18-2.63,23.18Z" transform="translate(-1437.59 125.72)"/></svg>