<svg id="LogoTipo" xmlns="http://www.w3.org/2000/svg" viewBox="0 0 388.7 364.28"><defs><style>.cls-1{fill:#fff;}</style></defs><title>LogoTipoEN</title><path class="cls-1" d="M1169-363.72V-402.8l-21.26-4.54v44.1h0c0,.62,0,1.23.06,1.84h21.3C1169.06-362.17,1169-362.94,1169-363.72Z" transform="translate(-1121.85 525.82)"/><path class="cls-1" d="M1199.73-387.84a24.86,24.86,0,0,1,18.7,20.65l21.48,4.48c0-.34,0-.67,0-1a46.09,46.09,0,0,0-35.77-44.92Z" transform="translate(-1121.85 525.82)"/><path class="cls-1" d="M1193.84-388.55a25.42,25.42,0,0,1,3.63.27l4.43-20.81a45.59,45.59,0,0,0-8.06-.72c-7.68,0-17.06,2.6-22.46,5.94v29.36A24.76,24.76,0,0,1,1193.84-388.55Z" transform="translate(-1121.85 525.82)"/><polygon class="cls-1" points="47.17 120.65 47.17 80.88 25.91 66.45 25.91 116.12 47.17 120.65"/><path class="cls-1" d="M1218.64-364.78c0,.35,0,.7,0,1.06a24.83,24.83,0,0,1-24.83,24.83c-.36,0-.71,0-1.07,0l4.39,21.16a46.09,46.09,0,0,0,42.64-42.61Z" transform="translate(-1121.85 525.82)"/><path class="cls-1" d="M1190.36-339.14a24.85,24.85,0,0,1-20.9-19.9H1148a46.08,46.08,0,0,0,45.83,41.41l1,0Z" transform="translate(-1121.85 525.82)"/><ellipse class="cls-1" cx="15.21" cy="118.48" rx="10.7" ry="3.54"/><path class="cls-1" d="M1163-236.53a5.14,5.14,0,0,1,5.42-5.13h3.45V-244a3.26,3.26,0,0,0-3.34-3.57,3.17,3.17,0,0,0-3.21,3.28c0,.25-.14.36-.36.36h-1.32a.34.34,0,0,1-.35-.36c.18-3,2.17-5.24,5.24-5.24a5.22,5.22,0,0,1,5.37,5.53v7.44a5.22,5.22,0,0,1-5.41,5.52A5.27,5.27,0,0,1,1163-236.53Zm8.87,0v-3.17h-3.45a3.16,3.16,0,0,0-3.39,3.17,3.29,3.29,0,0,0,3.46,3.56A3.24,3.24,0,0,0,1171.86-236.53Z" transform="translate(-1121.85 525.82)"/><path class="cls-1" d="M1177.45-231.69V-243.9a5.25,5.25,0,0,1,5.31-5.6,5.25,5.25,0,0,1,5.31,5.6v12.21a.34.34,0,0,1-.36.36h-1.32a.33.33,0,0,1-.35-.36V-243.9c0-2.18-1.25-3.67-3.28-3.67s-3.28,1.49-3.28,3.67v12.21a.33.33,0,0,1-.35.36h-1.32A.34.34,0,0,1,1177.45-231.69Z" transform="translate(-1121.85 525.82)"/><path class="cls-1" d="M1191.38-236.53a5.14,5.14,0,0,1,5.41-5.13h3.46V-244a3.26,3.26,0,0,0-3.35-3.57c-1.89,0-3.06,1.32-3.2,3.28,0,.25-.15.36-.36.36H1192a.34.34,0,0,1-.35-.36c.17-3,2.17-5.24,5.23-5.24a5.22,5.22,0,0,1,5.38,5.53v7.44a5.23,5.23,0,0,1-5.41,5.52A5.26,5.26,0,0,1,1191.38-236.53Zm8.87,0v-3.17h-3.46a3.15,3.15,0,0,0-3.38,3.17,3.28,3.28,0,0,0,3.46,3.56A3.25,3.25,0,0,0,1200.25-236.53Z" transform="translate(-1121.85 525.82)"/><path class="cls-1" d="M1206.2-231.69v-24.22a.33.33,0,0,1,.35-.35h1.32a.34.34,0,0,1,.36.35v24.22a.34.34,0,0,1-.36.36h-1.32A.33.33,0,0,1,1206.2-231.69Z" transform="translate(-1121.85 525.82)"/><path class="cls-1" d="M1223.26-248.78v19.34a5.21,5.21,0,0,1-5.42,5.59c-3.09,0-5.27-2.24-5.41-5.59a.34.34,0,0,1,.36-.36h1.32a.32.32,0,0,1,.35.36c.07,2.28,1.32,3.63,3.38,3.63s3.39-1.35,3.39-3.63v-4.06a4.31,4.31,0,0,1-3.39,1.81,5.28,5.28,0,0,1-5.41-5.59v-11.5a.34.34,0,0,1,.36-.36h1.32a.33.33,0,0,1,.35.36v11.5a3.31,3.31,0,0,0,3.38,3.64,3.31,3.31,0,0,0,3.39-3.64v-11.5a.33.33,0,0,1,.35-.36h1.32A.34.34,0,0,1,1223.26-248.78Z" transform="translate(-1121.85 525.82)"/><path class="cls-1" d="M1234.51-232.86v1.25a.33.33,0,0,1-.35.35h-.47c-3.17,0-5-2.21-5-6v-10h-2.21a.33.33,0,0,1-.35-.35v-1.21a.33.33,0,0,1,.35-.36h2.21v-4.63a.34.34,0,0,1,.36-.36h1.32a.34.34,0,0,1,.35.36v4.63h3a.34.34,0,0,1,.36.36v1.21a.34.34,0,0,1-.36.35h-3v10c0,2.63,1,4,3,4h.47A.32.32,0,0,1,1234.51-232.86Z" transform="translate(-1121.85 525.82)"/><path class="cls-1" d="M1237.25-252.84a1.33,1.33,0,0,1,1.39-1.39,1.34,1.34,0,0,1,1.39,1.39,1.39,1.39,0,0,1-1.39,1.39A1.35,1.35,0,0,1,1237.25-252.84Zm.4,21.15v-17.09a.33.33,0,0,1,.35-.36h1.32a.34.34,0,0,1,.36.36v17.09a.34.34,0,0,1-.36.36H1238A.33.33,0,0,1,1237.65-231.69Z" transform="translate(-1121.85 525.82)"/><path class="cls-1" d="M1243.31-236.57v-7.33a5.25,5.25,0,0,1,5.34-5.6,5.23,5.23,0,0,1,5.35,5.24.35.35,0,0,1-.36.36h-1.32a.32.32,0,0,1-.35-.36,3.22,3.22,0,0,0-3.32-3.28c-2.06,0-3.31,1.5-3.31,3.64v7.33a3.31,3.31,0,0,0,3.38,3.64c2,0,3.25-1.46,3.39-3.64a.32.32,0,0,1,.36-.35h1.31a.33.33,0,0,1,.36.35c-.18,3.25-2.28,5.6-5.42,5.6A5.29,5.29,0,0,1,1243.31-236.57Z" transform="translate(-1121.85 525.82)"/><path class="cls-1" d="M1256.38-236.57a.33.33,0,0,1,.36-.35h1.32a.32.32,0,0,1,.35.35c.11,2.43,1.32,3.64,3.67,3.64,2.14,0,3.21-1.18,3.21-2.85,0-4.31-8.73-3-8.73-8.91a4.85,4.85,0,0,1,5.13-4.81c3.49,0,5.24,2.07,5.38,5.24a.34.34,0,0,1-.36.36h-1.32a.32.32,0,0,1-.35-.36,3.12,3.12,0,0,0-3.24-3.28,2.9,2.9,0,0,0-3.21,2.85c0,4.14,8.73,2.78,8.73,8.91a4.91,4.91,0,0,1-5.24,4.81C1258.66-231,1256.52-233.18,1256.38-236.57Z" transform="translate(-1121.85 525.82)"/><path class="cls-1" d="M1136.44-281.14c2.51-1.22,4-4.05,4-7.64v-2.73c0-5.93-3.8-9.91-9.45-9.91-5.49,0-9.17,4-9.17,9.91v29.29a2,2,0,0,0,2.1,2.1h7.81c5.79,0,9.68-4,9.68-10v-2.8A8.81,8.81,0,0,0,1136.44-281.14Zm-.17-7.64c0,3.77-1.94,5.94-5.31,5.94h-4.91v-8.67c0-3.77,1.81-5.93,5-5.93,3.33,0,5.25,2.16,5.25,5.93Zm-10.22,9.91h5.71c3.48,0,5.47,2.19,5.47,6v2.8c0,3.8-2,6-5.47,6h-5.71Z" transform="translate(-1121.85 525.82)"/><path class="cls-1" d="M1154.15-290.08c-4.93,0-8.46,3.51-8.77,8.77a.93.93,0,0,0,1,1h2.1c.38,0,.86-.15,1-.93.21-3,2-4.88,4.73-4.88,3,0,5,2.08,5,5.31v3.31H1154c-5.16,0-9,3.69-9,8.6a8.8,8.8,0,0,0,9.17,9.22c5.33,0,9.05-3.79,9.05-9.22v-11.91C1163.15-286.29,1159.45-290.08,1154.15-290.08Zm-.17,16.46h5.14v4.68c0,3.27-1.93,5.3-5,5.3s-5.14-2-5.14-5.3C1149-271.7,1151-273.62,1154-273.62Z" transform="translate(-1121.85 525.82)"/><path class="cls-1" d="M1189.66-290.08a7.45,7.45,0,0,0-6.51,3.84,7.59,7.59,0,0,0-6.54-3.84c-5,0-8.55,3.84-8.55,9.34v19.55a.93.93,0,0,0,1,1h2.11a.93.93,0,0,0,1-1v-19.55c0-3.34,1.73-5.42,4.51-5.42s4.5,2.08,4.5,5.42v19.55a.93.93,0,0,0,1,1h2.11a.93.93,0,0,0,1-1v-19.55c0-3.34,1.73-5.42,4.51-5.42s4.5,2.08,4.5,5.42v19.55a.93.93,0,0,0,1,1h2.11a.92.92,0,0,0,1-1v-19.55C1198.2-286.24,1194.69-290.08,1189.66-290.08Z" transform="translate(-1121.85 525.82)"/><path class="cls-1" d="M1212.34-290.08a7.17,7.17,0,0,0-5.08,2.21v-12.08a.94.94,0,0,0-1-1h-2.11a.94.94,0,0,0-1,1V-269c0,5.5,3.75,9.34,9.12,9.34s9.11-3.84,9.11-9.34v-11.74C1221.45-286.24,1217.7-290.08,1212.34-290.08Zm0,3.92c3.08,0,5.08,2.13,5.08,5.42V-269c0,3.29-2,5.42-5.08,5.42s-5.08-2.13-5.08-5.42v-11.74C1207.26-284,1209.25-286.16,1212.34-286.16Z" transform="translate(-1121.85 525.82)"/><path class="cls-1" d="M1235-290.08c-5.4,0-9.17,3.84-9.17,9.34V-269c0,5.5,3.77,9.34,9.17,9.34s9.17-3.84,9.17-9.34v-11.74C1244.13-286.24,1240.36-290.08,1235-290.08Zm-5.08,9.34c0-3.38,1.95-5.48,5.08-5.48s5.08,2.1,5.08,5.48V-269c0,3.38-2,5.48-5.08,5.48s-5.08-2.1-5.08-5.48Z" transform="translate(-1121.85 525.82)"/><path class="cls-1" d="M1257.64-290.08c-5.4,0-9.17,3.84-9.17,9.34V-269c0,5.5,3.77,9.34,9.17,9.34s9.17-3.84,9.17-9.34v-11.74C1266.81-286.24,1263-290.08,1257.64-290.08Zm-5.08,9.34c0-3.38,2-5.48,5.08-5.48s5.08,2.1,5.08,5.48V-269c0,3.38-2,5.48-5.08,5.48s-5.08-2.1-5.08-5.48Z" transform="translate(-1121.85 525.82)"/><rect class="cls-1" x="167.94" width="3.5" height="364.28"/><g id="Capa_5" data-name="Capa 5"><path class="cls-1" d="M1323.14-342.46a.52.52,0,0,1,.55-.56h2.22a.52.52,0,0,1,.55.56c.17,4.87,2.21,7.41,6,7.41s5.87-2,5.87-5.81c0-9.47-14.89-11.57-14.89-22.36,0-5.15,3.54-8.59,8.91-8.59,5,0,8.52,4.1,8.8,10.25a.52.52,0,0,1-.55.55h-2.22a.52.52,0,0,1-.55-.55c-.22-4.88-2.16-7.15-5.48-7.15-3.66,0-5.59,1.89-5.59,5.49,0,8.91,14.89,11,14.89,22.36,0,5.37-3.66,8.91-9.19,8.91S1323.31-336.15,1323.14-342.46Z" transform="translate(-1121.85 525.82)"/><path class="cls-1" d="M1346.34-342.24v-19.27c0-6.09,3.87-10.24,9.41-10.24s9.41,4.15,9.41,9.69v20.37c0,5.54-3.88,9.69-9.41,9.69S1346.34-336.15,1346.34-342.24Zm15.5.55v-20.37c0-3.82-2.49-6.59-6.09-6.59s-6.09,2.77-6.09,7.14v19.27c0,4.37,2.49,7.14,6.09,7.14S1361.84-337.87,1361.84-341.69Z" transform="translate(-1121.85 525.82)"/><path class="cls-1" d="M1385.14-335.49a.52.52,0,0,1,.56.55v2a.52.52,0,0,1-.56.55h-5c-5.31,0-8.85-4.15-8.85-9.47V-370.7a.52.52,0,0,1,.55-.55h2.21a.52.52,0,0,1,.56.55v28.84c0,3.6,2.21,6.37,5.53,6.37Z" transform="translate(-1121.85 525.82)"/><path class="cls-1" d="M1391.51-371.25a.52.52,0,0,1,.56.55v28.79c0,4.1,2.27,6.86,5.81,6.86s5.81-2.76,5.81-6.86V-370.7a.52.52,0,0,1,.56-.55h2.21a.52.52,0,0,1,.55.55v28.79c0,5.81-3.59,10-9.13,10s-9.13-4.15-9.13-10V-370.7a.52.52,0,0,1,.55-.55Z" transform="translate(-1121.85 525.82)"/><path class="cls-1" d="M1429-370.7v2a.52.52,0,0,1-.55.56h-6.64V-333a.52.52,0,0,1-.56.55H1419a.52.52,0,0,1-.55-.55v-35.1h-6.65a.52.52,0,0,1-.55-.56v-2a.52.52,0,0,1,.55-.55h16.61A.52.52,0,0,1,1429-370.7Z" transform="translate(-1121.85 525.82)"/><path class="cls-1" d="M1434-371.25h2.22a.52.52,0,0,1,.55.55V-333a.52.52,0,0,1-.55.55H1434a.52.52,0,0,1-.55-.55V-370.7A.52.52,0,0,1,1434-371.25Z" transform="translate(-1121.85 525.82)"/><path class="cls-1" d="M1443.39-342.24v-19.27c0-6.09,3.88-10.24,9.41-10.24s9.41,4.15,9.41,9.69v20.37c0,5.54-3.87,9.69-9.41,9.69S1443.39-336.15,1443.39-342.24Zm15.5.55v-20.37c0-3.82-2.49-6.59-6.09-6.59s-6.09,2.77-6.09,7.14v19.27c0,4.37,2.49,7.14,6.09,7.14S1458.89-337.87,1458.89-341.69Z" transform="translate(-1121.85 525.82)"/><path class="cls-1" d="M1468.36-333v-28.79c0-5.81,3.6-10,9.13-10s9.14,4.16,9.14,10V-333a.52.52,0,0,1-.56.55h-2.21a.52.52,0,0,1-.55-.55v-28.79c0-4.1-2.27-6.87-5.82-6.87s-5.81,2.77-5.81,6.87V-333a.52.52,0,0,1-.55.55h-2.22A.52.52,0,0,1,1468.36-333Z" transform="translate(-1121.85 525.82)"/><path class="cls-1" d="M1492.06-342.46a.52.52,0,0,1,.55-.56h2.21a.52.52,0,0,1,.56.56c.16,4.87,2.21,7.41,6,7.41s5.86-2,5.86-5.81c0-9.47-14.89-11.57-14.89-22.36,0-5.15,3.55-8.59,8.92-8.59,5,0,8.52,4.1,8.8,10.25a.52.52,0,0,1-.56.55h-2.21a.52.52,0,0,1-.55-.55c-.23-4.88-2.16-7.15-5.48-7.15-3.66,0-5.6,1.89-5.6,5.49,0,8.91,14.9,11,14.9,22.36,0,5.37-3.66,8.91-9.19,8.91S1492.22-336.15,1492.06-342.46Z" transform="translate(-1121.85 525.82)"/><path class="cls-1" d="M1328.52-392.81v.79a.21.21,0,0,1-.22.22h-2.64v13.95a.21.21,0,0,1-.22.22h-.88a.2.2,0,0,1-.22-.22V-391.8h-2.64a.2.2,0,0,1-.22-.22v-.79a.2.2,0,0,1,.22-.22h6.6A.21.21,0,0,1,1328.52-392.81Z" transform="translate(-1121.85 525.82)"/><path class="cls-1" d="M1329.46-381.37v-7.92a3.59,3.59,0,0,1,3.59-3.79h2.29a.21.21,0,0,1,.22.22v.8a.21.21,0,0,1-.22.22h-2.29a2.34,2.34,0,0,0-2.27,2.55v3.23h4a.21.21,0,0,1,.22.22v.8a.21.21,0,0,1-.22.22h-4v3.45a2.34,2.34,0,0,0,2.27,2.55h2.29a.21.21,0,0,1,.22.22v.79a.2.2,0,0,1-.22.22h-2.29A3.58,3.58,0,0,1,1329.46-381.37Z" transform="translate(-1121.85 525.82)"/><path class="cls-1" d="M1337.38-381.19v-8.28a3.49,3.49,0,0,1,3.59-3.78c2.07,0,3.52,1.63,3.58,4.07a.2.2,0,0,1-.22.22h-.88a.2.2,0,0,1-.22-.22c-.06-1.83-.94-2.84-2.26-2.84s-2.27.95-2.27,2.55v8.28c0,1.6.84,2.55,2.27,2.55s2.33-1.1,2.37-2.95a.2.2,0,0,1,.22-.22h.88c.14,0,.22.07.22.2-.06,2.53-1.54,4.2-3.69,4.2A3.49,3.49,0,0,1,1337.38-381.19Z" transform="translate(-1121.85 525.82)"/><path class="cls-1" d="M1352.78-393h.88a.21.21,0,0,1,.22.22v15a.21.21,0,0,1-.22.22h-.88a.21.21,0,0,1-.22-.22v-7h-4.4v7a.21.21,0,0,1-.22.22h-.88a.21.21,0,0,1-.22-.22v-15a.21.21,0,0,1,.22-.22h.88a.21.21,0,0,1,.22.22v6.75h4.4v-6.75A.21.21,0,0,1,1352.78-393Z" transform="translate(-1121.85 525.82)"/><path class="cls-1" d="M1356.79-377.85v-11.44c0-2.31,1.43-4,3.63-4s3.63,1.65,3.63,4v11.44a.21.21,0,0,1-.22.22H1363a.2.2,0,0,1-.22-.22v-11.44c0-1.63-.91-2.73-2.31-2.73s-2.31,1.1-2.31,2.73v11.44a.21.21,0,0,1-.22.22H1357A.2.2,0,0,1,1356.79-377.85Z" transform="translate(-1121.85 525.82)"/><path class="cls-1" d="M1366.49-381.5v-7.66a3.73,3.73,0,0,1,3.74-4.07,3.67,3.67,0,0,1,3.74,3.85v8.1a3.67,3.67,0,0,1-3.74,3.85A3.73,3.73,0,0,1,1366.49-381.5Zm6.16.22v-8.1a2.43,2.43,0,0,0-2.42-2.62c-1.43,0-2.42,1.1-2.42,2.84v7.66c0,1.74,1,2.84,2.42,2.84A2.43,2.43,0,0,0,1372.65-381.28Z" transform="translate(-1121.85 525.82)"/><path class="cls-1" d="M1381.91-378.82a.21.21,0,0,1,.22.22v.79a.2.2,0,0,1-.22.22h-2a3.52,3.52,0,0,1-3.52-3.76v-11.46a.21.21,0,0,1,.22-.22h.88a.21.21,0,0,1,.22.22v11.46a2.3,2.3,0,0,0,2.2,2.53Z" transform="translate(-1121.85 525.82)"/><path class="cls-1" d="M1383-381.5v-7.66a3.73,3.73,0,0,1,3.74-4.07,3.67,3.67,0,0,1,3.74,3.85v8.1a3.67,3.67,0,0,1-3.74,3.85A3.73,3.73,0,0,1,1383-381.5Zm6.16.22v-8.1a2.43,2.43,0,0,0-2.42-2.62c-1.43,0-2.42,1.1-2.42,2.84v7.66c0,1.74,1,2.84,2.42,2.84A2.43,2.43,0,0,0,1389.19-381.28Z" transform="translate(-1121.85 525.82)"/><path class="cls-1" d="M1392.67-381.41v-7.86c0-2.35,1.45-4,3.69-4a3.62,3.62,0,0,1,3.66,3.74.21.21,0,0,1-.22.22h-.88a.2.2,0,0,1-.22-.22,2.39,2.39,0,0,0-2.34-2.51c-1.47,0-2.37,1.1-2.37,2.77v7.84a2.47,2.47,0,0,0,2.42,2.77,2.41,2.41,0,0,0,2.42-2.55v-3.41h-2.07a.21.21,0,0,1-.22-.22v-.8a.21.21,0,0,1,.22-.22h2.73a.6.6,0,0,1,.66.66v4a3.65,3.65,0,0,1-3.74,3.78A3.71,3.71,0,0,1,1392.67-381.41Z" transform="translate(-1121.85 525.82)"/><path class="cls-1" d="M1402.77-393h.87a.2.2,0,0,1,.22.22v15a.2.2,0,0,1-.22.22h-.87a.21.21,0,0,1-.23-.22v-15A.21.21,0,0,1,1402.77-393Z" transform="translate(-1121.85 525.82)"/><path class="cls-1" d="M1406.48-381.19v-8.28a3.49,3.49,0,0,1,3.59-3.78c2.07,0,3.52,1.63,3.59,4.07a.21.21,0,0,1-.22.22h-.88a.2.2,0,0,1-.22-.22c-.07-1.83-.95-2.84-2.27-2.84s-2.27.95-2.27,2.55v8.28c0,1.6.84,2.55,2.27,2.55s2.33-1.1,2.38-2.95a.2.2,0,0,1,.22-.22h.88a.19.19,0,0,1,.22.2c-.07,2.53-1.54,4.2-3.7,4.2A3.49,3.49,0,0,1,1406.48-381.19Z" transform="translate(-1121.85 525.82)"/><path class="cls-1" d="M1415.77-377.85v-11.42c0-2.38,1.45-4,3.63-4s3.63,1.58,3.63,4v11.42a.21.21,0,0,1-.22.22h-.88a.2.2,0,0,1-.22-.22v-5.37h-4.62v5.37a.21.21,0,0,1-.22.22H1416A.2.2,0,0,1,1415.77-377.85Zm5.94-6.6v-4.82c0-1.72-.84-2.73-2.31-2.73s-2.31,1-2.31,2.73v4.82Z" transform="translate(-1121.85 525.82)"/><path class="cls-1" d="M1431.26-378.82a.2.2,0,0,1,.21.22v.79a.2.2,0,0,1-.21.22h-2a3.52,3.52,0,0,1-3.52-3.76v-11.46a.21.21,0,0,1,.22-.22h.88a.2.2,0,0,1,.22.22v11.46a2.3,2.3,0,0,0,2.2,2.53Z" transform="translate(-1121.85 525.82)"/><path class="cls-1" d="M1335.84-293.84h-9.06a2.85,2.85,0,0,1-3-2.85v-1.52a.17.17,0,0,1,.18-.18h.62a.17.17,0,0,1,.18.18v1.52a1.86,1.86,0,0,0,2,1.8h2.71v-3a.17.17,0,0,1,.17-.18h.63a.17.17,0,0,1,.18.18v3h5.37a.17.17,0,0,1,.17.18v.69A.17.17,0,0,1,1335.84-293.84Z" transform="translate(-1121.85 525.82)"/><path class="cls-1" d="M1335.84-299.82h-9.1a2.89,2.89,0,0,1-3.14-2.87,2.89,2.89,0,0,1,3.14-2.87h1.3a3,3,0,0,1,2.88,1.77l4.88-2c.12-.06.21,0,.21.14v.77a.18.18,0,0,1-.14.19l-4.74,1.89v1.94h4.71a.16.16,0,0,1,.17.17v.7A.17.17,0,0,1,1335.84-299.82Zm-5.69-2.85a1.89,1.89,0,0,0-2.11-1.84h-1.3a1.92,1.92,0,0,0-2.17,1.82,1.92,1.92,0,0,0,2.17,1.82h3.41Z" transform="translate(-1121.85 525.82)"/><path class="cls-1" d="M1332.93-307.27h-6.08a3,3,0,0,1-3.24-3,2.91,2.91,0,0,1,3.06-3h6.44a2.91,2.91,0,0,1,3.06,3A3,3,0,0,1,1332.93-307.27Zm.18-4.9h-6.44a1.93,1.93,0,0,0-2.08,1.92,2,2,0,0,0,2.26,1.93h6.08a2,2,0,0,0,2.26-1.93A1.93,1.93,0,0,0,1333.11-312.17Z" transform="translate(-1121.85 525.82)"/><path class="cls-1" d="M1326.78-325h9.06a.17.17,0,0,1,.17.18v.7a.16.16,0,0,1-.17.17h-9.06c-1.42,0-2.21.58-2.21,1.67s.79,1.66,2.21,1.66h9.06a.16.16,0,0,1,.17.17v.7a.17.17,0,0,1-.17.18h-9.06c-1.42,0-2.21.7-2.21,1.66s.79,1.66,2.21,1.66h9.06a.16.16,0,0,1,.17.17v.7a.17.17,0,0,1-.17.18h-9.06c-2,0-3.18-1-3.18-2.71a2.32,2.32,0,0,1,1.46-2.19,2.33,2.33,0,0,1-1.46-2.18C1323.6-323.94,1324.82-325,1326.78-325Z" transform="translate(-1121.85 525.82)"/><path class="cls-1" d="M1510.09-320.91h-.55a.14.14,0,0,1-.15-.15v-1.84h-9.72a.14.14,0,0,1-.15-.15v-.62a.14.14,0,0,1,.15-.15h9.72v-1.84a.14.14,0,0,1,.15-.15h.55a.14.14,0,0,1,.15.15v4.6A.14.14,0,0,1,1510.09-320.91Z" transform="translate(-1121.85 525.82)"/><path class="cls-1" d="M1502.22-320.25h5.33a2.6,2.6,0,0,1,2.83,2.6,2.56,2.56,0,0,1-2.68,2.61h-5.64a2.56,2.56,0,0,1-2.68-2.61A2.6,2.6,0,0,1,1502.22-320.25Zm-.16,4.29h5.64a1.69,1.69,0,0,0,1.82-1.69,1.73,1.73,0,0,0-2-1.68h-5.33c-1.21,0-2,.69-2,1.68A1.69,1.69,0,0,0,1502.06-316Z" transform="translate(-1121.85 525.82)"/><path class="cls-1" d="M1510.09-304.65h-.55a.14.14,0,0,1-.15-.15v-1.84h-9.71a.14.14,0,0,1-.16-.15v-.61a.15.15,0,0,1,.16-.16h9.71v-1.83a.14.14,0,0,1,.15-.16h.55a.15.15,0,0,1,.16.16v4.59A.15.15,0,0,1,1510.09-304.65Z" transform="translate(-1121.85 525.82)"/><path class="cls-1" d="M1510.25-299.27v.61a.15.15,0,0,1-.16.16h-10.41a.15.15,0,0,1-.16-.16v-.61a.14.14,0,0,1,.16-.15h4.87v-3.07h-4.87a.14.14,0,0,1-.16-.15v-.61a.15.15,0,0,1,.16-.16h10.41a.16.16,0,0,1,.16.16v.61a.15.15,0,0,1-.16.15h-4.7v3.07h4.7A.15.15,0,0,1,1510.25-299.27Z" transform="translate(-1121.85 525.82)"/><path class="cls-1" d="M1502.13-296.68h5.51a2.5,2.5,0,0,1,2.64,2.5v1.59a.14.14,0,0,1-.16.15h-.55a.14.14,0,0,1-.15-.15v-1.59a1.63,1.63,0,0,0-1.78-1.58h-2.25v2.8a.15.15,0,0,1-.15.16h-.55a.15.15,0,0,1-.16-.16v-2.8h-2.4a1.63,1.63,0,0,0-1.78,1.58v1.59a.14.14,0,0,1-.15.15h-.56a.14.14,0,0,1-.15-.15v-1.59A2.5,2.5,0,0,1,1502.13-296.68Z" transform="translate(-1121.85 525.82)"/><path class="cls-1" d="M1446-281.17a147.66,147.66,0,0,0,13.13,11.69c4.56,3.37,9.58,6,14.73,6.48s10.23-1.73,14.57-5.24A61.7,61.7,0,0,0,1500-281.17a35.52,35.52,0,0,1-3.43,8.39,35.19,35.19,0,0,1-5.49,7.45,25.8,25.8,0,0,1-7.81,5.58c-.75.36-1.55.59-2.33.88s-1.62.41-2.44.6-1.67.19-2.5.28l-2.52,0a23.75,23.75,0,0,1-9.33-2.9,35,35,0,0,1-7.55-5.57A54.4,54.4,0,0,1,1446-281.17Z" transform="translate(-1121.85 525.82)"/><path class="cls-1" d="M1443.44-267.8c.07-2.54.18-5.09.29-7.63l.39-7.63.05-1,1.07.29c1,.27,2,.5,3,.8s2,.63,3,1,2,.78,2.91,1.23a29.42,29.42,0,0,1,2.83,1.49l-.06.19a27.46,27.46,0,0,1-3.17-.42c-1-.18-2.07-.41-3.09-.67a30.79,30.79,0,0,1-3-.88c-1-.34-2-.75-3-1.11l1.12-.74-1,7.56c-.38,2.52-.74,5-1.15,7.55Z" transform="translate(-1121.85 525.82)"/><path class="cls-1" d="M1360-304v2.4c0,4.94-3.18,8.21-8,8.21h-6.69a1.39,1.39,0,0,1-1.47-1.47V-320c0-4.88,3-8.16,7.53-8.16,4.69,0,7.77,3.28,7.77,8.16v2.35c0,3.27-1.57,5.81-4.06,6.55A7.1,7.1,0,0,1,1360-304Zm-13.2-8.21h4.55c3.07,0,4.88-2,4.88-5.42V-320c0-3.42-1.76-5.42-4.83-5.42-2.89,0-4.6,2-4.6,5.42ZM1357-304c0-3.42-1.86-5.47-5-5.47h-5.23v13.34H1352c3.18,0,5-2.05,5-5.47Z" transform="translate(-1121.85 525.82)"/><path class="cls-1" d="M1367.1-327.68a.47.47,0,0,1,.49.49v25.41c0,3.62,2,6.06,5.13,6.06s5.13-2.44,5.13-6.06v-25.41a.47.47,0,0,1,.49-.49h2a.46.46,0,0,1,.48.49v25.41c0,5.14-3.17,8.8-8.06,8.8s-8.06-3.66-8.06-8.8v-25.41a.46.46,0,0,1,.48-.49Z" transform="translate(-1121.85 525.82)"/><path class="cls-1" d="M1385.57-302.26a.46.46,0,0,1,.49-.49h2a.46.46,0,0,1,.49.49c.15,4.3,2,6.54,5.28,6.54s5.18-1.76,5.18-5.13c0-8.36-13.15-10.21-13.15-19.74,0-4.55,3.13-7.58,7.87-7.58,4.45,0,7.53,3.62,7.78,9a.46.46,0,0,1-.49.49h-2a.46.46,0,0,1-.49-.49c-.19-4.3-1.9-6.3-4.84-6.3-3.22,0-4.93,1.66-4.93,4.84,0,7.87,13.14,9.67,13.14,19.74,0,4.74-3.22,7.87-8.11,7.87S1385.72-296.69,1385.57-302.26Z" transform="translate(-1121.85 525.82)"/><path class="cls-1" d="M1407.56-327.68h2a.46.46,0,0,1,.48.49V-294a.45.45,0,0,1-.48.49h-2a.46.46,0,0,1-.49-.49v-33.23A.47.47,0,0,1,1407.56-327.68Z" transform="translate(-1121.85 525.82)"/><path class="cls-1" d="M1416.45-294v-25.41c0-5.13,3.18-8.8,8.07-8.8s8.06,3.67,8.06,8.8V-294a.46.46,0,0,1-.49.49h-1.95a.46.46,0,0,1-.49-.49v-25.41c0-3.62-2-6.06-5.13-6.06s-5.13,2.44-5.13,6.06V-294a.46.46,0,0,1-.49.49h-2A.46.46,0,0,1,1416.45-294Z" transform="translate(-1121.85 525.82)"/><path class="cls-1" d="M1438-301.78v-17.59c0-4.74,3.28-8.41,8-8.41h5.08a.46.46,0,0,1,.49.49v1.76a.46.46,0,0,1-.49.49H1446c-3,0-5,2.44-5,5.67v7.18h8.94a.47.47,0,0,1,.49.49v1.76a.47.47,0,0,1-.49.49h-8.94v7.67c0,3.23,2,5.67,5,5.67h5.08a.46.46,0,0,1,.49.49v1.76a.46.46,0,0,1-.49.49H1446C1441.28-293.37,1438-297,1438-301.78Z" transform="translate(-1121.85 525.82)"/><path class="cls-1" d="M1455-302.26a.46.46,0,0,1,.49-.49h2a.46.46,0,0,1,.49.49c.15,4.3,2,6.54,5.28,6.54s5.18-1.76,5.18-5.13c0-8.36-13.14-10.21-13.14-19.74,0-4.55,3.12-7.58,7.86-7.58,4.45,0,7.53,3.62,7.77,9a.45.45,0,0,1-.48.49h-2a.46.46,0,0,1-.49-.49c-.19-4.3-1.9-6.3-4.84-6.3-3.22,0-4.93,1.66-4.93,4.84,0,7.87,13.14,9.67,13.14,19.74,0,4.74-3.22,7.87-8.11,7.87S1455.11-296.69,1455-302.26Z" transform="translate(-1121.85 525.82)"/><path class="cls-1" d="M1474.8-302.26a.46.46,0,0,1,.49-.49h2a.46.46,0,0,1,.49.49c.15,4.3,2,6.54,5.28,6.54s5.18-1.76,5.18-5.13c0-8.36-13.14-10.21-13.14-19.74,0-4.55,3.12-7.58,7.86-7.58,4.45,0,7.53,3.62,7.77,9a.45.45,0,0,1-.48.49h-2a.46.46,0,0,1-.49-.49c-.19-4.3-1.9-6.3-4.84-6.3-3.22,0-4.93,1.66-4.93,4.84,0,7.87,13.14,9.67,13.14,19.74,0,4.74-3.22,7.87-8.11,7.87S1475-296.69,1474.8-302.26Z" transform="translate(-1121.85 525.82)"/></g></svg>