<svg xmlns="http://www.w3.org/2000/svg" xmlns:xlink="http://www.w3.org/1999/xlink" viewBox="0 0 1100 1199"><defs><style>.cls-1{fill:#fff;}.cls-2{mask:url(#mask);}.cls-3{fill:#047c87;}.cls-4{filter:url(#luminosity-noclip);}</style><filter id="luminosity-noclip" x="0.5" y="0.5" width="1100" height="1199" filterUnits="userSpaceOnUse" color-interpolation-filters="sRGB"><feFlood flood-color="#fff" result="bg"/><feBlend in="SourceGraphic" in2="bg"/></filter><mask id="mask" x="0" y="0" width="1100" height="1199" maskUnits="userSpaceOnUse"><g class="cls-4"><g transform="translate(-0.5 -0.5)"><path d="M756,287H741.34L719,298.73a33.22,33.22,0,0,0-7.94-3.27l-28.08-7v-3.19a46.69,46.69,0,0,0,20-38.18V235.45c0-25.85-20.29-47.48-45.22-48.24-1.27,0-2.51,0-3.76.08l7.27-17L626,135.05l-20.8,13.52a112.53,112.53,0,0,0-25-10.34L575.12,114H525.93l-5.14,24.18a113.07,113.07,0,0,0-24.95,10.3L475,135l-35.28,35.11,7.16,17c-.27,0-.53-.06-.8-.07a46.42,46.42,0,0,0-33.93,13.1A45.88,45.88,0,0,0,398,233.45v13.27a46.5,46.5,0,0,0,20,38.07v3.93l-18.24,4.56L366.71,274H345V411.22L410.35,433h12.73l1.59-5.57,20,12a20.69,20.69,0,0,0,19.95,20,20.69,20.69,0,0,0,19.92,19.93,20.69,20.69,0,0,0,19.93,19.92,20.73,20.73,0,0,0,20.66,20,21,21,0,0,0,11.65-3.6l5.88,5.19a20.23,20.23,0,0,0,13.37,5h.49a20.21,20.21,0,0,0,20.17-19.94,20.2,20.2,0,0,0,19.92-19.92,20.2,20.2,0,0,0,19.92-19.94,20.41,20.41,0,0,0,19.94-20.37,19.08,19.08,0,0,0-.1-2L756,384.05Zm-66-51.4v11.63a33.42,33.42,0,0,1-16.67,28.82L670,278l0,20.82,33.32,8.33L630,345.73V327.44a32.35,32.35,0,0,0-9.31-22.65L643,299.22v-22l-3.16-1.83A31.76,31.76,0,0,1,624,248V233.93a33,33,0,0,1,34-33C675.65,201.48,690,217,690,235.6ZM560.24,339.93l-30-9.6a81.7,81.7,0,0,0-42.45-1.94l-3.8.85v-2A19.89,19.89,0,0,1,499.05,308L537,298.46V278l-3.33-1.93A33.42,33.42,0,0,1,517,247.22V234.17a33.51,33.51,0,0,1,34.54-33.48c17.9.54,32.46,16.32,32.46,35.17v11.37a33.42,33.42,0,0,1-16.67,28.82L564,278l0,20.48L602,308a19.89,19.89,0,0,1,15,19.32v24.87l-1.64.86H610.8l-40.73-11.66A41.88,41.88,0,0,0,560.24,339.93ZM485.87,213.86a72.67,72.67,0,0,1,129-.54A46,46,0,0,0,610,233.91V247.2a46.78,46.78,0,0,0,20,38.25v3.11l-26.5,6.63L577,288.56v-3.11a46.79,46.79,0,0,0,20-38.24V235.72c0-25.81-20.22-47.41-45.07-48.16A46.51,46.51,0,0,0,504,234V247.2a46.78,46.78,0,0,0,20,38.25v3.11l-26.5,6.63L471,288.56v-3.11a46.79,46.79,0,0,0,20-38.24V235.58A48.68,48.68,0,0,0,485.87,213.86Zm-30.57-40,21.2-21.2,18.66,12.15,3.57-2.19a98.71,98.71,0,0,1,28.73-11.92l4.08-1L536.16,128h29.06l4.6,21.76,4.09,1a99.09,99.09,0,0,1,28.73,11.92l3.57,2.19,18.66-12.14,21.18,21.18-7.53,17.62a46.58,46.58,0,0,0-14,9.31c-.27.27-.5.55-.77.83a86.17,86.17,0,0,0-146.36.4,46.73,46.73,0,0,0-14.64-10.38ZM431,298.83V277.21l-3.16-1.83A31.76,31.76,0,0,1,412,248V233.93a33,33,0,0,1,34-33c17.63.53,32,16.07,32,34.65v11.63a33.42,33.42,0,0,1-16.67,28.82L458,278l0,21.26,22.27,5.56a32.28,32.28,0,0,0-9.3,22.62v5.3l-20.79,4.62.54-1.88.25-12.33-35.16-20.51ZM358,287h4.84l47.72,27.84-24.08,96.32L358,401.66Zm54.53,133-13.06-4.35,23.39-93.57L438,330.91v1.89L413.09,420Zm45.25,18.93a7.46,7.46,0,0,1,2.18-5.26L471.63,422a7.44,7.44,0,0,1,10.52,10.53l-11.66,11.66a7.45,7.45,0,0,1-12.71-5.26Zm19.91,19.91a7.46,7.46,0,0,1,2.18-5.26l11.66-11.67a7.44,7.44,0,1,1,10.53,10.52L490.39,464.1a7.44,7.44,0,0,1-12.7-5.26Zm19.91,19.91a7.5,7.5,0,0,1,2.18-5.27l11.66-11.66A7.44,7.44,0,0,1,522,472.34L510.3,484a7.45,7.45,0,0,1-12.7-5.26ZM525,506.09a7.44,7.44,0,0,1-7.44-7.44,7.53,7.53,0,0,1,2.17-5.26l11.67-11.66a7.44,7.44,0,1,1,10.52,10.52l-11.66,11.67A7.53,7.53,0,0,1,525,506.09ZM563.71,508a7.08,7.08,0,0,1-6.9,5h-1a6.91,6.91,0,0,1-4.57-1.73l-5-4.38,5-5a20.65,20.65,0,0,0,4.18-6.17l6,5A7,7,0,0,1,563.71,508Zm59.63-58.45A7.27,7.27,0,0,1,617,453h-1a7.11,7.11,0,0,1-4.58-1.67l-36.16-30.12-8.54,10.24,35.11,29.26A7,7,0,0,1,597.2,473h-1.27a7,7,0,0,1-4.45-1.61l-36.21-30.18-8.54,10.25,35.1,29.25a7,7,0,0,1,2.19,7.42,7.18,7.18,0,0,1-7.84,4.8,10.9,10.9,0,0,1-5.81-2.47l-14.88-12.4a20.75,20.75,0,0,0-17.9-11.65,20.76,20.76,0,0,0-20-20,20.76,20.76,0,0,0-20-20,20.79,20.79,0,0,0-24.51-19.74,21.08,21.08,0,0,0-11.18,6l-11.47,11.47a20.42,20.42,0,0,0-1.87,2.28l-20.48-12.29L446,351.31l45-10a68.63,68.63,0,0,1,35.77,1.62l9.82,3.14-33.3,16.65a22.22,22.22,0,0,0-12.33,20V384a22.33,22.33,0,0,0,33.82,19.15l24.83-14.89a13.75,13.75,0,0,1,16,1.54L622,440.49A7.22,7.22,0,0,1,623.34,449.51ZM743,375.91,631.15,431.84c-.36-.39-.74-.75-1.14-1.11l-56.08-50.48a26.72,26.72,0,0,0-31.64-3.06L517.56,392a9,9,0,0,1-7.87.66,9.12,9.12,0,0,1-5.69-8.59V383a9,9,0,0,1,4.95-8l37-18.52a28.79,28.79,0,0,1,20.69-1.92l41.72,11.91,10.1.26L743,301.21Z"/></g></g></mask></defs><title>P1</title><g id="Capa_2" data-name="Capa 2"><rect class="cls-1" x="126.5" y="169.5" width="903" height="887"/></g><g id="Capa_1" data-name="Capa 1"><g class="cls-2"><rect class="cls-3" width="1100" height="1199"/></g></g></svg>