<?xml version="1.0"?>
<svg xmlns="http://www.w3.org/2000/svg" id="Capa_1" enable-background="new 0 0 512 512" height="512px" viewBox="0 0 512 512" width="512px"><g><g><path d="m485.18 21.635c-.011.004-.022.007-.034.011l-471.576 159.482c-16.783 5.675-18.407 28.853-2.583 36.815l145.962 73.447v150.087c0 17.041 19.885 26.126 32.799 15.368l53.712-44.75 48.195 70.674c8.922 13.087 28.737 11.069 34.918-3.425l183.768-431.037c6.599-15.465-7.45-32.383-25.161-26.672zm-310.374 233.959-103.124-51.891 310.063-104.859zm22.141 143.189v-54.896l23.872 35.007zm107.164 31.257c-1.524-2.234-99.595-146.048-99.919-146.524l239.842-181.673z" data-original="#000000" class="active-path" data-old_color="#000000" fill="#FFFFFF"/></g></g> </svg>
